%TF.GenerationSoftware,KiCad,Pcbnew,6.0.6-3a73a75311~116~ubuntu20.04.1*%
%TF.CreationDate,2022-08-01T12:42:22+05:30*%
%TF.ProjectId,LSA,4c53412e-6b69-4636-9164-5f7063625858,rev?*%
%TF.SameCoordinates,Original*%
%TF.FileFunction,Legend,Top*%
%TF.FilePolarity,Positive*%
%FSLAX46Y46*%
G04 Gerber Fmt 4.6, Leading zero omitted, Abs format (unit mm)*
G04 Created by KiCad (PCBNEW 6.0.6-3a73a75311~116~ubuntu20.04.1) date 2022-08-01 12:42:22*
%MOMM*%
%LPD*%
G01*
G04 APERTURE LIST*
%ADD10C,0.150000*%
%ADD11C,0.120000*%
%ADD12C,0.127000*%
%ADD13C,0.200000*%
G04 APERTURE END LIST*
D10*
%TO.C,D4*%
X118656904Y-85492380D02*
X118656904Y-84492380D01*
X118895000Y-84492380D01*
X119037857Y-84540000D01*
X119133095Y-84635238D01*
X119180714Y-84730476D01*
X119228333Y-84920952D01*
X119228333Y-85063809D01*
X119180714Y-85254285D01*
X119133095Y-85349523D01*
X119037857Y-85444761D01*
X118895000Y-85492380D01*
X118656904Y-85492380D01*
X120085476Y-84825714D02*
X120085476Y-85492380D01*
X119847380Y-84444761D02*
X119609285Y-85159047D01*
X120228333Y-85159047D01*
%TO.C,J1*%
X100486666Y-62604880D02*
X100486666Y-63319166D01*
X100439047Y-63462023D01*
X100343809Y-63557261D01*
X100200952Y-63604880D01*
X100105714Y-63604880D01*
X101486666Y-63604880D02*
X100915238Y-63604880D01*
X101200952Y-63604880D02*
X101200952Y-62604880D01*
X101105714Y-62747738D01*
X101010476Y-62842976D01*
X100915238Y-62890595D01*
%TO.C,R4*%
X110332380Y-90566666D02*
X109856190Y-90900000D01*
X110332380Y-91138095D02*
X109332380Y-91138095D01*
X109332380Y-90757142D01*
X109380000Y-90661904D01*
X109427619Y-90614285D01*
X109522857Y-90566666D01*
X109665714Y-90566666D01*
X109760952Y-90614285D01*
X109808571Y-90661904D01*
X109856190Y-90757142D01*
X109856190Y-91138095D01*
X109665714Y-89709523D02*
X110332380Y-89709523D01*
X109284761Y-89947619D02*
X109999047Y-90185714D01*
X109999047Y-89566666D01*
%TO.C,R6*%
X67232380Y-78666666D02*
X66756190Y-79000000D01*
X67232380Y-79238095D02*
X66232380Y-79238095D01*
X66232380Y-78857142D01*
X66280000Y-78761904D01*
X66327619Y-78714285D01*
X66422857Y-78666666D01*
X66565714Y-78666666D01*
X66660952Y-78714285D01*
X66708571Y-78761904D01*
X66756190Y-78857142D01*
X66756190Y-79238095D01*
X66232380Y-77809523D02*
X66232380Y-78000000D01*
X66280000Y-78095238D01*
X66327619Y-78142857D01*
X66470476Y-78238095D01*
X66660952Y-78285714D01*
X67041904Y-78285714D01*
X67137142Y-78238095D01*
X67184761Y-78190476D01*
X67232380Y-78095238D01*
X67232380Y-77904761D01*
X67184761Y-77809523D01*
X67137142Y-77761904D01*
X67041904Y-77714285D01*
X66803809Y-77714285D01*
X66708571Y-77761904D01*
X66660952Y-77809523D01*
X66613333Y-77904761D01*
X66613333Y-78095238D01*
X66660952Y-78190476D01*
X66708571Y-78238095D01*
X66803809Y-78285714D01*
%TO.C,R8*%
X110232380Y-78766666D02*
X109756190Y-79100000D01*
X110232380Y-79338095D02*
X109232380Y-79338095D01*
X109232380Y-78957142D01*
X109280000Y-78861904D01*
X109327619Y-78814285D01*
X109422857Y-78766666D01*
X109565714Y-78766666D01*
X109660952Y-78814285D01*
X109708571Y-78861904D01*
X109756190Y-78957142D01*
X109756190Y-79338095D01*
X109660952Y-78195238D02*
X109613333Y-78290476D01*
X109565714Y-78338095D01*
X109470476Y-78385714D01*
X109422857Y-78385714D01*
X109327619Y-78338095D01*
X109280000Y-78290476D01*
X109232380Y-78195238D01*
X109232380Y-78004761D01*
X109280000Y-77909523D01*
X109327619Y-77861904D01*
X109422857Y-77814285D01*
X109470476Y-77814285D01*
X109565714Y-77861904D01*
X109613333Y-77909523D01*
X109660952Y-78004761D01*
X109660952Y-78195238D01*
X109708571Y-78290476D01*
X109756190Y-78338095D01*
X109851428Y-78385714D01*
X110041904Y-78385714D01*
X110137142Y-78338095D01*
X110184761Y-78290476D01*
X110232380Y-78195238D01*
X110232380Y-78004761D01*
X110184761Y-77909523D01*
X110137142Y-77861904D01*
X110041904Y-77814285D01*
X109851428Y-77814285D01*
X109756190Y-77861904D01*
X109708571Y-77909523D01*
X109660952Y-78004761D01*
%TO.C,D1*%
X52856904Y-84192380D02*
X52856904Y-83192380D01*
X53095000Y-83192380D01*
X53237857Y-83240000D01*
X53333095Y-83335238D01*
X53380714Y-83430476D01*
X53428333Y-83620952D01*
X53428333Y-83763809D01*
X53380714Y-83954285D01*
X53333095Y-84049523D01*
X53237857Y-84144761D01*
X53095000Y-84192380D01*
X52856904Y-84192380D01*
X54380714Y-84192380D02*
X53809285Y-84192380D01*
X54095000Y-84192380D02*
X54095000Y-83192380D01*
X53999761Y-83335238D01*
X53904523Y-83430476D01*
X53809285Y-83478095D01*
%TO.C,D3*%
X97556904Y-88892380D02*
X97556904Y-87892380D01*
X97795000Y-87892380D01*
X97937857Y-87940000D01*
X98033095Y-88035238D01*
X98080714Y-88130476D01*
X98128333Y-88320952D01*
X98128333Y-88463809D01*
X98080714Y-88654285D01*
X98033095Y-88749523D01*
X97937857Y-88844761D01*
X97795000Y-88892380D01*
X97556904Y-88892380D01*
X98461666Y-87892380D02*
X99080714Y-87892380D01*
X98747380Y-88273333D01*
X98890238Y-88273333D01*
X98985476Y-88320952D01*
X99033095Y-88368571D01*
X99080714Y-88463809D01*
X99080714Y-88701904D01*
X99033095Y-88797142D01*
X98985476Y-88844761D01*
X98890238Y-88892380D01*
X98604523Y-88892380D01*
X98509285Y-88844761D01*
X98461666Y-88797142D01*
%TO.C,R3*%
X104432380Y-90766666D02*
X103956190Y-91100000D01*
X104432380Y-91338095D02*
X103432380Y-91338095D01*
X103432380Y-90957142D01*
X103480000Y-90861904D01*
X103527619Y-90814285D01*
X103622857Y-90766666D01*
X103765714Y-90766666D01*
X103860952Y-90814285D01*
X103908571Y-90861904D01*
X103956190Y-90957142D01*
X103956190Y-91338095D01*
X103432380Y-90433333D02*
X103432380Y-89814285D01*
X103813333Y-90147619D01*
X103813333Y-90004761D01*
X103860952Y-89909523D01*
X103908571Y-89861904D01*
X104003809Y-89814285D01*
X104241904Y-89814285D01*
X104337142Y-89861904D01*
X104384761Y-89909523D01*
X104432380Y-90004761D01*
X104432380Y-90290476D01*
X104384761Y-90385714D01*
X104337142Y-90433333D01*
%TO.C,P3*%
X102322380Y-84978095D02*
X101322380Y-84978095D01*
X101322380Y-84597142D01*
X101370000Y-84501904D01*
X101417619Y-84454285D01*
X101512857Y-84406666D01*
X101655714Y-84406666D01*
X101750952Y-84454285D01*
X101798571Y-84501904D01*
X101846190Y-84597142D01*
X101846190Y-84978095D01*
X101322380Y-84073333D02*
X101322380Y-83454285D01*
X101703333Y-83787619D01*
X101703333Y-83644761D01*
X101750952Y-83549523D01*
X101798571Y-83501904D01*
X101893809Y-83454285D01*
X102131904Y-83454285D01*
X102227142Y-83501904D01*
X102274761Y-83549523D01*
X102322380Y-83644761D01*
X102322380Y-83930476D01*
X102274761Y-84025714D01*
X102227142Y-84073333D01*
%TO.C,D2*%
X75956904Y-89992380D02*
X75956904Y-88992380D01*
X76195000Y-88992380D01*
X76337857Y-89040000D01*
X76433095Y-89135238D01*
X76480714Y-89230476D01*
X76528333Y-89420952D01*
X76528333Y-89563809D01*
X76480714Y-89754285D01*
X76433095Y-89849523D01*
X76337857Y-89944761D01*
X76195000Y-89992380D01*
X75956904Y-89992380D01*
X76909285Y-89087619D02*
X76956904Y-89040000D01*
X77052142Y-88992380D01*
X77290238Y-88992380D01*
X77385476Y-89040000D01*
X77433095Y-89087619D01*
X77480714Y-89182857D01*
X77480714Y-89278095D01*
X77433095Y-89420952D01*
X76861666Y-89992380D01*
X77480714Y-89992380D01*
%TO.C,R5*%
X60232380Y-78866666D02*
X59756190Y-79200000D01*
X60232380Y-79438095D02*
X59232380Y-79438095D01*
X59232380Y-79057142D01*
X59280000Y-78961904D01*
X59327619Y-78914285D01*
X59422857Y-78866666D01*
X59565714Y-78866666D01*
X59660952Y-78914285D01*
X59708571Y-78961904D01*
X59756190Y-79057142D01*
X59756190Y-79438095D01*
X59232380Y-77961904D02*
X59232380Y-78438095D01*
X59708571Y-78485714D01*
X59660952Y-78438095D01*
X59613333Y-78342857D01*
X59613333Y-78104761D01*
X59660952Y-78009523D01*
X59708571Y-77961904D01*
X59803809Y-77914285D01*
X60041904Y-77914285D01*
X60137142Y-77961904D01*
X60184761Y-78009523D01*
X60232380Y-78104761D01*
X60232380Y-78342857D01*
X60184761Y-78438095D01*
X60137142Y-78485714D01*
%TO.C,P4*%
X123322380Y-78138095D02*
X122322380Y-78138095D01*
X122322380Y-77757142D01*
X122370000Y-77661904D01*
X122417619Y-77614285D01*
X122512857Y-77566666D01*
X122655714Y-77566666D01*
X122750952Y-77614285D01*
X122798571Y-77661904D01*
X122846190Y-77757142D01*
X122846190Y-78138095D01*
X122655714Y-76709523D02*
X123322380Y-76709523D01*
X122274761Y-76947619D02*
X122989047Y-77185714D01*
X122989047Y-76566666D01*
%TO.C,U1*%
X86333595Y-72551880D02*
X86333595Y-73361404D01*
X86381214Y-73456642D01*
X86428833Y-73504261D01*
X86524071Y-73551880D01*
X86714547Y-73551880D01*
X86809785Y-73504261D01*
X86857404Y-73456642D01*
X86905023Y-73361404D01*
X86905023Y-72551880D01*
X87905023Y-73551880D02*
X87333595Y-73551880D01*
X87619309Y-73551880D02*
X87619309Y-72551880D01*
X87524071Y-72694738D01*
X87428833Y-72789976D01*
X87333595Y-72837595D01*
%TO.C,P1*%
X57222380Y-78478095D02*
X56222380Y-78478095D01*
X56222380Y-78097142D01*
X56270000Y-78001904D01*
X56317619Y-77954285D01*
X56412857Y-77906666D01*
X56555714Y-77906666D01*
X56650952Y-77954285D01*
X56698571Y-78001904D01*
X56746190Y-78097142D01*
X56746190Y-78478095D01*
X57222380Y-76954285D02*
X57222380Y-77525714D01*
X57222380Y-77240000D02*
X56222380Y-77240000D01*
X56365238Y-77335238D01*
X56460476Y-77430476D01*
X56508095Y-77525714D01*
%TO.C,R2*%
X67332380Y-89766666D02*
X66856190Y-90100000D01*
X67332380Y-90338095D02*
X66332380Y-90338095D01*
X66332380Y-89957142D01*
X66380000Y-89861904D01*
X66427619Y-89814285D01*
X66522857Y-89766666D01*
X66665714Y-89766666D01*
X66760952Y-89814285D01*
X66808571Y-89861904D01*
X66856190Y-89957142D01*
X66856190Y-90338095D01*
X66427619Y-89385714D02*
X66380000Y-89338095D01*
X66332380Y-89242857D01*
X66332380Y-89004761D01*
X66380000Y-88909523D01*
X66427619Y-88861904D01*
X66522857Y-88814285D01*
X66618095Y-88814285D01*
X66760952Y-88861904D01*
X67332380Y-89433333D01*
X67332380Y-88814285D01*
%TO.C,P2*%
X80322380Y-83138095D02*
X79322380Y-83138095D01*
X79322380Y-82757142D01*
X79370000Y-82661904D01*
X79417619Y-82614285D01*
X79512857Y-82566666D01*
X79655714Y-82566666D01*
X79750952Y-82614285D01*
X79798571Y-82661904D01*
X79846190Y-82757142D01*
X79846190Y-83138095D01*
X79417619Y-82185714D02*
X79370000Y-82138095D01*
X79322380Y-82042857D01*
X79322380Y-81804761D01*
X79370000Y-81709523D01*
X79417619Y-81661904D01*
X79512857Y-81614285D01*
X79608095Y-81614285D01*
X79750952Y-81661904D01*
X80322380Y-82233333D01*
X80322380Y-81614285D01*
%TO.C,R7*%
X104332380Y-78666666D02*
X103856190Y-79000000D01*
X104332380Y-79238095D02*
X103332380Y-79238095D01*
X103332380Y-78857142D01*
X103380000Y-78761904D01*
X103427619Y-78714285D01*
X103522857Y-78666666D01*
X103665714Y-78666666D01*
X103760952Y-78714285D01*
X103808571Y-78761904D01*
X103856190Y-78857142D01*
X103856190Y-79238095D01*
X103332380Y-78333333D02*
X103332380Y-77666666D01*
X104332380Y-78095238D01*
%TO.C,R1*%
X60332380Y-89666666D02*
X59856190Y-90000000D01*
X60332380Y-90238095D02*
X59332380Y-90238095D01*
X59332380Y-89857142D01*
X59380000Y-89761904D01*
X59427619Y-89714285D01*
X59522857Y-89666666D01*
X59665714Y-89666666D01*
X59760952Y-89714285D01*
X59808571Y-89761904D01*
X59856190Y-89857142D01*
X59856190Y-90238095D01*
X60332380Y-88714285D02*
X60332380Y-89285714D01*
X60332380Y-89000000D02*
X59332380Y-89000000D01*
X59475238Y-89095238D01*
X59570476Y-89190476D01*
X59618095Y-89285714D01*
D11*
%TO.C,D4*%
X117835000Y-86764000D02*
X117835000Y-86920000D01*
X117835000Y-89080000D02*
X117835000Y-89236000D01*
X120436130Y-86920163D02*
G75*
G03*
X118354039Y-86920000I-1041130J-1079837D01*
G01*
X121067335Y-86921392D02*
G75*
G03*
X117835000Y-86764484I-1672335J-1078608D01*
G01*
X118354039Y-89080000D02*
G75*
G03*
X120436130Y-89079837I1040961J1080000D01*
G01*
X117835000Y-89235516D02*
G75*
G03*
X121067335Y-89078608I1560000J1235516D01*
G01*
%TO.C,J1*%
X98710000Y-67830000D02*
X78130000Y-67830000D01*
X94000000Y-57320000D02*
X93000000Y-57320000D01*
X93500000Y-58320000D02*
X94000000Y-57320000D01*
X97410000Y-66520000D02*
X79430000Y-66520000D01*
X97410000Y-60020000D02*
X97410000Y-66520000D01*
X98710000Y-58710000D02*
X98710000Y-67830000D01*
X78130000Y-58710000D02*
X98710000Y-58710000D01*
X86370000Y-60020000D02*
X86370000Y-58710000D01*
X79430000Y-60020000D02*
X86370000Y-60020000D01*
X90470000Y-58710000D02*
X90470000Y-60020000D01*
X93000000Y-57320000D02*
X93500000Y-58320000D01*
X79430000Y-66520000D02*
X79430000Y-60020000D01*
X86370000Y-60020000D02*
X86370000Y-60020000D01*
X78130000Y-67830000D02*
X78130000Y-58710000D01*
X90470000Y-60020000D02*
X97410000Y-60020000D01*
%TO.C,R4*%
X111800000Y-87530000D02*
X111800000Y-88480000D01*
X111800000Y-93270000D02*
X111800000Y-92320000D01*
X110880000Y-88480000D02*
X110880000Y-92320000D01*
X112720000Y-92320000D02*
X112720000Y-88480000D01*
X110880000Y-92320000D02*
X112720000Y-92320000D01*
X112720000Y-88480000D02*
X110880000Y-88480000D01*
%TO.C,R6*%
X67780000Y-76580000D02*
X67780000Y-80420000D01*
X67780000Y-80420000D02*
X69620000Y-80420000D01*
X68700000Y-75630000D02*
X68700000Y-76580000D01*
X69620000Y-76580000D02*
X67780000Y-76580000D01*
X69620000Y-80420000D02*
X69620000Y-76580000D01*
X68700000Y-81370000D02*
X68700000Y-80420000D01*
%TO.C,R8*%
X112620000Y-76680000D02*
X110780000Y-76680000D01*
X111700000Y-75730000D02*
X111700000Y-76680000D01*
X112620000Y-80520000D02*
X112620000Y-76680000D01*
X110780000Y-76680000D02*
X110780000Y-80520000D01*
X111700000Y-81470000D02*
X111700000Y-80520000D01*
X110780000Y-80520000D02*
X112620000Y-80520000D01*
%TO.C,D1*%
X52035000Y-85464000D02*
X52035000Y-85620000D01*
X52035000Y-87780000D02*
X52035000Y-87936000D01*
X55267335Y-85621392D02*
G75*
G03*
X52035000Y-85464484I-1672335J-1078608D01*
G01*
X52035000Y-87935516D02*
G75*
G03*
X55267335Y-87778608I1560000J1235516D01*
G01*
X52554039Y-87780000D02*
G75*
G03*
X54636130Y-87779837I1040961J1080000D01*
G01*
X54636130Y-85620163D02*
G75*
G03*
X52554039Y-85620000I-1041130J-1079837D01*
G01*
%TO.C,D3*%
X99336130Y-90320163D02*
G75*
G03*
X97254039Y-90320000I-1041130J-1079837D01*
G01*
X96735000Y-92635516D02*
G75*
G03*
X99967335Y-92478608I1560000J1235516D01*
G01*
X99967335Y-90321392D02*
G75*
G03*
X96735000Y-90164484I-1672335J-1078608D01*
G01*
X97254039Y-92480000D02*
G75*
G03*
X99336130Y-92479837I1040961J1080000D01*
G01*
X96735000Y-92480000D02*
X96735000Y-92636000D01*
X96735000Y-90164000D02*
X96735000Y-90320000D01*
%TO.C,R3*%
X104980000Y-88680000D02*
X104980000Y-92520000D01*
X104980000Y-92520000D02*
X106820000Y-92520000D01*
X106820000Y-88680000D02*
X104980000Y-88680000D01*
X105900000Y-87730000D02*
X105900000Y-88680000D01*
X106820000Y-92520000D02*
X106820000Y-88680000D01*
X105900000Y-93470000D02*
X105900000Y-92520000D01*
%TO.C,P3*%
X100960000Y-86650000D02*
X99760000Y-86650000D01*
X100960000Y-81780000D02*
X99660000Y-81780000D01*
X97640000Y-86650000D02*
X96440000Y-86650000D01*
X97740000Y-81780000D02*
X97740000Y-80860000D01*
X96440000Y-86650000D02*
X96440000Y-81780000D01*
X97740000Y-81780000D02*
X96440000Y-81780000D01*
X99660000Y-81780000D02*
X99660000Y-80860000D01*
X100960000Y-81780000D02*
X100960000Y-86650000D01*
%TO.C,D2*%
X75135000Y-91264000D02*
X75135000Y-91420000D01*
X75135000Y-93580000D02*
X75135000Y-93736000D01*
X75135000Y-93735516D02*
G75*
G03*
X78367335Y-93578608I1560000J1235516D01*
G01*
X78367335Y-91421392D02*
G75*
G03*
X75135000Y-91264484I-1672335J-1078608D01*
G01*
X75654039Y-93580000D02*
G75*
G03*
X77736130Y-93579837I1040961J1080000D01*
G01*
X77736130Y-91420163D02*
G75*
G03*
X75654039Y-91420000I-1041130J-1079837D01*
G01*
%TO.C,R5*%
X62620000Y-76780000D02*
X60780000Y-76780000D01*
X60780000Y-80620000D02*
X62620000Y-80620000D01*
X61700000Y-75830000D02*
X61700000Y-76780000D01*
X60780000Y-76780000D02*
X60780000Y-80620000D01*
X62620000Y-80620000D02*
X62620000Y-76780000D01*
X61700000Y-81570000D02*
X61700000Y-80620000D01*
%TO.C,P4*%
X121960000Y-74940000D02*
X120660000Y-74940000D01*
X117440000Y-79810000D02*
X117440000Y-74940000D01*
X118640000Y-79810000D02*
X117440000Y-79810000D01*
X118740000Y-74940000D02*
X117440000Y-74940000D01*
X118740000Y-74940000D02*
X118740000Y-74020000D01*
X121960000Y-79810000D02*
X120760000Y-79810000D01*
X121960000Y-74940000D02*
X121960000Y-79810000D01*
X120660000Y-74940000D02*
X120660000Y-74020000D01*
D12*
%TO.C,U1*%
X84510500Y-93088500D02*
X91114500Y-93088500D01*
X84510500Y-73911500D02*
X91114500Y-73911500D01*
D13*
X82695000Y-75880000D02*
G75*
G03*
X82695000Y-75880000I-100000J0D01*
G01*
D11*
%TO.C,P1*%
X52640000Y-75280000D02*
X51340000Y-75280000D01*
X54560000Y-75280000D02*
X54560000Y-74360000D01*
X51340000Y-80150000D02*
X51340000Y-75280000D01*
X55860000Y-75280000D02*
X54560000Y-75280000D01*
X52540000Y-80150000D02*
X51340000Y-80150000D01*
X55860000Y-80150000D02*
X54660000Y-80150000D01*
X52640000Y-75280000D02*
X52640000Y-74360000D01*
X55860000Y-75280000D02*
X55860000Y-80150000D01*
%TO.C,R2*%
X69720000Y-91520000D02*
X69720000Y-87680000D01*
X69720000Y-87680000D02*
X67880000Y-87680000D01*
X67880000Y-91520000D02*
X69720000Y-91520000D01*
X68800000Y-86730000D02*
X68800000Y-87680000D01*
X68800000Y-92470000D02*
X68800000Y-91520000D01*
X67880000Y-87680000D02*
X67880000Y-91520000D01*
%TO.C,P2*%
X78960000Y-84810000D02*
X77760000Y-84810000D01*
X75740000Y-79940000D02*
X74440000Y-79940000D01*
X74440000Y-84810000D02*
X74440000Y-79940000D01*
X77660000Y-79940000D02*
X77660000Y-79020000D01*
X78960000Y-79940000D02*
X78960000Y-84810000D01*
X78960000Y-79940000D02*
X77660000Y-79940000D01*
X75740000Y-79940000D02*
X75740000Y-79020000D01*
X75640000Y-84810000D02*
X74440000Y-84810000D01*
%TO.C,R7*%
X105800000Y-75630000D02*
X105800000Y-76580000D01*
X104880000Y-80420000D02*
X106720000Y-80420000D01*
X106720000Y-80420000D02*
X106720000Y-76580000D01*
X104880000Y-76580000D02*
X104880000Y-80420000D01*
X106720000Y-76580000D02*
X104880000Y-76580000D01*
X105800000Y-81370000D02*
X105800000Y-80420000D01*
%TO.C,R1*%
X60880000Y-87580000D02*
X60880000Y-91420000D01*
X62720000Y-91420000D02*
X62720000Y-87580000D01*
X62720000Y-87580000D02*
X60880000Y-87580000D01*
X61800000Y-86630000D02*
X61800000Y-87580000D01*
X61800000Y-92370000D02*
X61800000Y-91420000D01*
X60880000Y-91420000D02*
X62720000Y-91420000D01*
%TD*%
M02*
