%TF.GenerationSoftware,KiCad,Pcbnew,6.0.6-3a73a75311~116~ubuntu20.04.1*%
%TF.CreationDate,2022-08-01T12:42:22+05:30*%
%TF.ProjectId,LSA,4c53412e-6b69-4636-9164-5f7063625858,rev?*%
%TF.SameCoordinates,Original*%
%TF.FileFunction,Copper,L1,Top*%
%TF.FilePolarity,Positive*%
%FSLAX46Y46*%
G04 Gerber Fmt 4.6, Leading zero omitted, Abs format (unit mm)*
G04 Created by KiCad (PCBNEW 6.0.6-3a73a75311~116~ubuntu20.04.1) date 2022-08-01 12:42:22*
%MOMM*%
%LPD*%
G01*
G04 APERTURE LIST*
G04 Aperture macros list*
%AMRoundRect*
0 Rectangle with rounded corners*
0 $1 Rounding radius*
0 $2 $3 $4 $5 $6 $7 $8 $9 X,Y pos of 4 corners*
0 Add a 4 corners polygon primitive as box body*
4,1,4,$2,$3,$4,$5,$6,$7,$8,$9,$2,$3,0*
0 Add four circle primitives for the rounded corners*
1,1,$1+$1,$2,$3*
1,1,$1+$1,$4,$5*
1,1,$1+$1,$6,$7*
1,1,$1+$1,$8,$9*
0 Add four rect primitives between the rounded corners*
20,1,$1+$1,$2,$3,$4,$5,0*
20,1,$1+$1,$4,$5,$6,$7,0*
20,1,$1+$1,$6,$7,$8,$9,0*
20,1,$1+$1,$8,$9,$2,$3,0*%
G04 Aperture macros list end*
%TA.AperFunction,ComponentPad*%
%ADD10R,1.800000X1.800000*%
%TD*%
%TA.AperFunction,ComponentPad*%
%ADD11C,1.800000*%
%TD*%
%TA.AperFunction,ComponentPad*%
%ADD12RoundRect,0.250000X-0.600000X0.600000X-0.600000X-0.600000X0.600000X-0.600000X0.600000X0.600000X0*%
%TD*%
%TA.AperFunction,ComponentPad*%
%ADD13C,1.700000*%
%TD*%
%TA.AperFunction,ComponentPad*%
%ADD14C,1.400000*%
%TD*%
%TA.AperFunction,ComponentPad*%
%ADD15O,1.400000X1.400000*%
%TD*%
%TA.AperFunction,ComponentPad*%
%ADD16RoundRect,0.249200X-0.450800X0.600800X-0.450800X-0.600800X0.450800X-0.600800X0.450800X0.600800X0*%
%TD*%
%TA.AperFunction,ComponentPad*%
%ADD17O,1.400000X1.700000*%
%TD*%
%TA.AperFunction,ComponentPad*%
%ADD18R,1.180000X1.180000*%
%TD*%
%TA.AperFunction,ComponentPad*%
%ADD19C,1.180000*%
%TD*%
%TA.AperFunction,ViaPad*%
%ADD20C,0.800000*%
%TD*%
%TA.AperFunction,Conductor*%
%ADD21C,0.250000*%
%TD*%
G04 APERTURE END LIST*
D10*
%TO.P,D4,1,K*%
%TO.N,GND*%
X118125000Y-88000000D03*
D11*
%TO.P,D4,2,A*%
%TO.N,Net-(D4-Pad2)*%
X120665000Y-88000000D03*
%TD*%
D12*
%TO.P,J1,1,Pin_1*%
%TO.N,unconnected-(J1-Pad1)*%
X93500000Y-62000000D03*
D13*
%TO.P,J1,2,Pin_2*%
%TO.N,unconnected-(J1-Pad2)*%
X93500000Y-64540000D03*
%TO.P,J1,3,Pin_3*%
%TO.N,unconnected-(J1-Pad3)*%
X90960000Y-62000000D03*
%TO.P,J1,4,Pin_4*%
%TO.N,O4*%
X90960000Y-64540000D03*
%TO.P,J1,5,Pin_5*%
%TO.N,unconnected-(J1-Pad5)*%
X88420000Y-62000000D03*
%TO.P,J1,6,Pin_6*%
%TO.N,O3*%
X88420000Y-64540000D03*
%TO.P,J1,7,Pin_7*%
%TO.N,VCC*%
X85880000Y-62000000D03*
%TO.P,J1,8,Pin_8*%
%TO.N,O2*%
X85880000Y-64540000D03*
%TO.P,J1,9,Pin_9*%
%TO.N,GND*%
X83340000Y-62000000D03*
%TO.P,J1,10,Pin_10*%
%TO.N,O1*%
X83340000Y-64540000D03*
%TD*%
D14*
%TO.P,R4,1*%
%TO.N,VCC*%
X111800000Y-94210000D03*
D15*
%TO.P,R4,2*%
%TO.N,Net-(D4-Pad2)*%
X111800000Y-86590000D03*
%TD*%
D14*
%TO.P,R6,1*%
%TO.N,A2*%
X68700000Y-82310000D03*
D15*
%TO.P,R6,2*%
%TO.N,GND*%
X68700000Y-74690000D03*
%TD*%
D14*
%TO.P,R8,1*%
%TO.N,A4*%
X111700000Y-82410000D03*
D15*
%TO.P,R8,2*%
%TO.N,GND*%
X111700000Y-74790000D03*
%TD*%
D10*
%TO.P,D1,1,K*%
%TO.N,GND*%
X52325000Y-86700000D03*
D11*
%TO.P,D1,2,A*%
%TO.N,Net-(D1-Pad2)*%
X54865000Y-86700000D03*
%TD*%
%TO.P,D3,2,A*%
%TO.N,Net-(D3-Pad2)*%
X99565000Y-91400000D03*
D10*
%TO.P,D3,1,K*%
%TO.N,GND*%
X97025000Y-91400000D03*
%TD*%
D14*
%TO.P,R3,1*%
%TO.N,VCC*%
X105900000Y-94410000D03*
D15*
%TO.P,R3,2*%
%TO.N,Net-(D3-Pad2)*%
X105900000Y-86790000D03*
%TD*%
D16*
%TO.P,P3,1,K*%
%TO.N,VCC*%
X98700000Y-81700000D03*
D17*
%TO.P,P3,2,A*%
%TO.N,A3*%
X98700000Y-86780000D03*
%TD*%
D10*
%TO.P,D2,1,K*%
%TO.N,GND*%
X75425000Y-92500000D03*
D11*
%TO.P,D2,2,A*%
%TO.N,Net-(D2-Pad2)*%
X77965000Y-92500000D03*
%TD*%
D14*
%TO.P,R5,1*%
%TO.N,A1*%
X61700000Y-82510000D03*
D15*
%TO.P,R5,2*%
%TO.N,GND*%
X61700000Y-74890000D03*
%TD*%
D16*
%TO.P,P4,1,K*%
%TO.N,VCC*%
X119700000Y-74860000D03*
D17*
%TO.P,P4,2,A*%
%TO.N,A4*%
X119700000Y-79940000D03*
%TD*%
D18*
%TO.P,U1,1*%
%TO.N,O1*%
X83685000Y-75880000D03*
D19*
%TO.P,U1,2,-*%
X83685000Y-78420000D03*
%TO.P,U1,3,+*%
%TO.N,A1*%
X83685000Y-80960000D03*
%TO.P,U1,4,V+*%
%TO.N,VCC*%
X83685000Y-83500000D03*
%TO.P,U1,5,+*%
%TO.N,A2*%
X83685000Y-86040000D03*
%TO.P,U1,6,-*%
%TO.N,O2*%
X83685000Y-88580000D03*
%TO.P,U1,7*%
X83685000Y-91120000D03*
%TO.P,U1,8*%
%TO.N,O3*%
X91940000Y-91120000D03*
%TO.P,U1,9,-*%
X91940000Y-88580000D03*
%TO.P,U1,10,+*%
%TO.N,A3*%
X91940000Y-86040000D03*
%TO.P,U1,11,V-*%
%TO.N,GND*%
X91940000Y-83500000D03*
%TO.P,U1,12,+*%
%TO.N,A4*%
X91940000Y-80960000D03*
%TO.P,U1,13,-*%
%TO.N,O4*%
X91940000Y-78420000D03*
%TO.P,U1,14*%
X91940000Y-75880000D03*
%TD*%
D16*
%TO.P,P1,1,K*%
%TO.N,VCC*%
X53600000Y-75200000D03*
D17*
%TO.P,P1,2,A*%
%TO.N,A1*%
X53600000Y-80280000D03*
%TD*%
D14*
%TO.P,R2,1*%
%TO.N,VCC*%
X68800000Y-93410000D03*
D15*
%TO.P,R2,2*%
%TO.N,Net-(D2-Pad2)*%
X68800000Y-85790000D03*
%TD*%
D16*
%TO.P,P2,1,K*%
%TO.N,VCC*%
X76700000Y-79860000D03*
D17*
%TO.P,P2,2,A*%
%TO.N,A2*%
X76700000Y-84940000D03*
%TD*%
D14*
%TO.P,R7,1*%
%TO.N,A3*%
X105800000Y-82310000D03*
D15*
%TO.P,R7,2*%
%TO.N,GND*%
X105800000Y-74690000D03*
%TD*%
D14*
%TO.P,R1,1*%
%TO.N,VCC*%
X61800000Y-93310000D03*
D15*
%TO.P,R1,2*%
%TO.N,Net-(D1-Pad2)*%
X61800000Y-85690000D03*
%TD*%
D20*
%TO.N,VCC*%
X119700000Y-71000000D03*
X124800000Y-79800000D03*
X109300000Y-94200000D03*
X103500000Y-93900000D03*
X66800000Y-93400000D03*
X59000000Y-93400000D03*
X82100000Y-83100000D03*
X76700000Y-68500000D03*
X53600000Y-72600000D03*
%TO.N,GND*%
X93800000Y-83500000D03*
X49200000Y-84700000D03*
X72100000Y-95000000D03*
X118200000Y-93200000D03*
X94800000Y-93700000D03*
X111700000Y-72600000D03*
X105700000Y-72500000D03*
X71300000Y-74700000D03*
X61700000Y-72600000D03*
%TD*%
D21*
%TO.N,VCC*%
X114300000Y-65600000D02*
X114300000Y-58600000D01*
X119700000Y-71000000D02*
X114300000Y-65600000D01*
X114300000Y-58600000D02*
X114100000Y-58400000D01*
X114100000Y-58400000D02*
X87500000Y-58400000D01*
X87500000Y-58400000D02*
X87400000Y-58500000D01*
X87400000Y-60480000D02*
X85880000Y-62000000D01*
X87400000Y-58500000D02*
X87400000Y-60480000D01*
X124800000Y-79800000D02*
X124800000Y-76000000D01*
X124800000Y-76000000D02*
X122600000Y-76000000D01*
X122600000Y-76000000D02*
X121460000Y-74860000D01*
X121460000Y-74860000D02*
X119700000Y-74860000D01*
X109300000Y-94200000D02*
X109090000Y-94410000D01*
X109090000Y-94410000D02*
X105900000Y-94410000D01*
X122400000Y-83300000D02*
X122400000Y-77560000D01*
X103500000Y-93900000D02*
X103500000Y-91900000D01*
X122400000Y-77560000D02*
X119700000Y-74860000D01*
X103500000Y-91900000D02*
X104500000Y-90900000D01*
X108800000Y-84900000D02*
X109500000Y-84200000D01*
X104500000Y-90900000D02*
X108700000Y-90900000D01*
X108700000Y-90900000D02*
X108800000Y-90800000D01*
X108800000Y-90800000D02*
X108800000Y-84900000D01*
X109500000Y-84200000D02*
X121500000Y-84200000D01*
X121500000Y-84200000D02*
X122400000Y-83300000D01*
X66800000Y-93400000D02*
X66710000Y-93310000D01*
X66710000Y-93310000D02*
X61800000Y-93310000D01*
X59000000Y-93400000D02*
X59000000Y-89800000D01*
X59000000Y-89800000D02*
X59200000Y-89600000D01*
X50500000Y-80100000D02*
X50500000Y-75500000D01*
X50500000Y-75500000D02*
X50800000Y-75200000D01*
X59200000Y-89600000D02*
X65000000Y-89600000D01*
X65000000Y-89600000D02*
X65000000Y-84900000D01*
X65000000Y-84900000D02*
X64300000Y-84200000D01*
X64300000Y-84200000D02*
X54600000Y-84200000D01*
X54600000Y-84200000D02*
X50500000Y-80100000D01*
X50800000Y-75200000D02*
X53600000Y-75200000D01*
X82100000Y-83100000D02*
X79940000Y-83100000D01*
X79940000Y-83100000D02*
X76700000Y-79860000D01*
X84705000Y-60825000D02*
X85880000Y-62000000D01*
X76700000Y-68500000D02*
X76700000Y-64700000D01*
X76700000Y-64700000D02*
X80575000Y-60825000D01*
X80575000Y-60825000D02*
X84705000Y-60825000D01*
X53600000Y-56300000D02*
X85800000Y-56300000D01*
X85800000Y-56300000D02*
X85880000Y-56380000D01*
X85880000Y-56380000D02*
X85880000Y-62000000D01*
X53600000Y-72600000D02*
X53600000Y-56300000D01*
%TO.N,GND*%
X91940000Y-83500000D02*
X93800000Y-83500000D01*
X52325000Y-86700000D02*
X51200000Y-86700000D01*
X51200000Y-86700000D02*
X49200000Y-84700000D01*
X75425000Y-92500000D02*
X74600000Y-92500000D01*
X74600000Y-92500000D02*
X72100000Y-95000000D01*
X118125000Y-88000000D02*
X118125000Y-93125000D01*
X118125000Y-93125000D02*
X118200000Y-93200000D01*
X97025000Y-91475000D02*
X94800000Y-93700000D01*
X97025000Y-91400000D02*
X97025000Y-91475000D01*
X111700000Y-74790000D02*
X111700000Y-72600000D01*
X105800000Y-72600000D02*
X105700000Y-72500000D01*
X105800000Y-74690000D02*
X105800000Y-72600000D01*
X71290000Y-74690000D02*
X71300000Y-74700000D01*
X68700000Y-74690000D02*
X71290000Y-74690000D01*
X61700000Y-74890000D02*
X61700000Y-72600000D01*
%TO.N,A1*%
X61700000Y-82510000D02*
X63890000Y-82510000D01*
X82260000Y-80960000D02*
X83685000Y-80960000D01*
X63890000Y-82510000D02*
X65400000Y-81000000D01*
X65400000Y-81000000D02*
X65400000Y-72500000D01*
X75225000Y-72500000D02*
X75225000Y-73925000D01*
X65400000Y-72500000D02*
X75225000Y-72500000D01*
X75225000Y-73925000D02*
X82260000Y-80960000D01*
%TO.N,O3*%
X91940000Y-88580000D02*
X91940000Y-91120000D01*
X88420000Y-64540000D02*
X88420000Y-85060000D01*
X88420000Y-85060000D02*
X91940000Y-88580000D01*
%TO.N,O4*%
X91940000Y-75880000D02*
X91940000Y-78420000D01*
X90960000Y-64540000D02*
X90960000Y-74900000D01*
X90960000Y-74900000D02*
X91940000Y-75880000D01*
%TO.N,O2*%
X83685000Y-88580000D02*
X83685000Y-91120000D01*
X85880000Y-64540000D02*
X85880000Y-86385000D01*
X85880000Y-86385000D02*
X83685000Y-88580000D01*
%TO.N,O1*%
X83685000Y-75880000D02*
X83685000Y-78420000D01*
X83340000Y-64540000D02*
X83340000Y-75535000D01*
X83340000Y-75535000D02*
X83685000Y-75880000D01*
%TO.N,A2*%
X76700000Y-84940000D02*
X82585000Y-84940000D01*
X82585000Y-84940000D02*
X83685000Y-86040000D01*
X68700000Y-82310000D02*
X71330000Y-84940000D01*
X71330000Y-84940000D02*
X76700000Y-84940000D01*
%TO.N,Net-(D2-Pad2)*%
X68800000Y-85790000D02*
X71255000Y-85790000D01*
X71255000Y-85790000D02*
X77965000Y-92500000D01*
%TO.N,A4*%
X91940000Y-80960000D02*
X92530000Y-80370000D01*
X92530000Y-80370000D02*
X109660000Y-80370000D01*
X109660000Y-80370000D02*
X111700000Y-82410000D01*
%TO.N,A3*%
X98700000Y-86780000D02*
X101330000Y-86780000D01*
X101330000Y-86780000D02*
X105800000Y-82310000D01*
X91940000Y-86040000D02*
X97960000Y-86040000D01*
X97960000Y-86040000D02*
X98700000Y-86780000D01*
%TO.N,Net-(D3-Pad2)*%
X99565000Y-91400000D02*
X101290000Y-91400000D01*
X101290000Y-91400000D02*
X105900000Y-86790000D01*
%TO.N,A1*%
X53600000Y-80280000D02*
X59470000Y-80280000D01*
X59470000Y-80280000D02*
X61700000Y-82510000D01*
%TO.N,Net-(D1-Pad2)*%
X54865000Y-86700000D02*
X60790000Y-86700000D01*
X60790000Y-86700000D02*
X61800000Y-85690000D01*
%TO.N,A4*%
X111700000Y-82410000D02*
X117230000Y-82410000D01*
X117230000Y-82410000D02*
X119700000Y-79940000D01*
%TO.N,Net-(D4-Pad2)*%
X111800000Y-86590000D02*
X119255000Y-86590000D01*
X119255000Y-86590000D02*
X120665000Y-88000000D01*
%TD*%
%TA.AperFunction,Conductor*%
%TO.N,VCC*%
G36*
X129333621Y-47228502D02*
G01*
X129380114Y-47282158D01*
X129391500Y-47334500D01*
X129391500Y-101965500D01*
X129371498Y-102033621D01*
X129317842Y-102080114D01*
X129265500Y-102091500D01*
X43534500Y-102091500D01*
X43466379Y-102071498D01*
X43419886Y-102017842D01*
X43408500Y-101965500D01*
X43408500Y-94324261D01*
X61150294Y-94324261D01*
X61159590Y-94336276D01*
X61189189Y-94357001D01*
X61198677Y-94362479D01*
X61380277Y-94447159D01*
X61390571Y-94450907D01*
X61584122Y-94502769D01*
X61594909Y-94504671D01*
X61794525Y-94522135D01*
X61805475Y-94522135D01*
X62005091Y-94504671D01*
X62015878Y-94502769D01*
X62209429Y-94450907D01*
X62219723Y-94447159D01*
X62268829Y-94424261D01*
X68150294Y-94424261D01*
X68159590Y-94436276D01*
X68189189Y-94457001D01*
X68198677Y-94462479D01*
X68380277Y-94547159D01*
X68390571Y-94550907D01*
X68584122Y-94602769D01*
X68594909Y-94604671D01*
X68794525Y-94622135D01*
X68805475Y-94622135D01*
X69005091Y-94604671D01*
X69015878Y-94602769D01*
X69209429Y-94550907D01*
X69219723Y-94547159D01*
X69401323Y-94462479D01*
X69410811Y-94457001D01*
X69441248Y-94435689D01*
X69449623Y-94425212D01*
X69442554Y-94411764D01*
X68812812Y-93782022D01*
X68798868Y-93774408D01*
X68797035Y-93774539D01*
X68790420Y-93778790D01*
X68156724Y-94412486D01*
X68150294Y-94424261D01*
X62268829Y-94424261D01*
X62401323Y-94362479D01*
X62410811Y-94357001D01*
X62441248Y-94335689D01*
X62449623Y-94325212D01*
X62442554Y-94311764D01*
X61812812Y-93682022D01*
X61798868Y-93674408D01*
X61797035Y-93674539D01*
X61790420Y-93678790D01*
X61156724Y-94312486D01*
X61150294Y-94324261D01*
X43408500Y-94324261D01*
X43408500Y-93315475D01*
X60587865Y-93315475D01*
X60605329Y-93515091D01*
X60607231Y-93525878D01*
X60659093Y-93719429D01*
X60662841Y-93729723D01*
X60747521Y-93911323D01*
X60752999Y-93920811D01*
X60774311Y-93951248D01*
X60784788Y-93959623D01*
X60798236Y-93952554D01*
X61427978Y-93322812D01*
X61434356Y-93311132D01*
X62164408Y-93311132D01*
X62164539Y-93312965D01*
X62168790Y-93319580D01*
X62802486Y-93953276D01*
X62814261Y-93959706D01*
X62826276Y-93950410D01*
X62847001Y-93920811D01*
X62852479Y-93911323D01*
X62937159Y-93729723D01*
X62940907Y-93719429D01*
X62992769Y-93525878D01*
X62994671Y-93515091D01*
X63003386Y-93415475D01*
X67587865Y-93415475D01*
X67605329Y-93615091D01*
X67607231Y-93625878D01*
X67659093Y-93819429D01*
X67662841Y-93829723D01*
X67747521Y-94011323D01*
X67752999Y-94020811D01*
X67774311Y-94051248D01*
X67784788Y-94059623D01*
X67798236Y-94052554D01*
X68427978Y-93422812D01*
X68434356Y-93411132D01*
X69164408Y-93411132D01*
X69164539Y-93412965D01*
X69168790Y-93419580D01*
X69802486Y-94053276D01*
X69814261Y-94059706D01*
X69826276Y-94050410D01*
X69847001Y-94020811D01*
X69852479Y-94011323D01*
X69937159Y-93829723D01*
X69940907Y-93819429D01*
X69992769Y-93625878D01*
X69994671Y-93615091D01*
X70012135Y-93415475D01*
X70012135Y-93404525D01*
X69994671Y-93204909D01*
X69992769Y-93194122D01*
X69940907Y-93000571D01*
X69937159Y-92990277D01*
X69852479Y-92808677D01*
X69847001Y-92799189D01*
X69825689Y-92768752D01*
X69815212Y-92760377D01*
X69801764Y-92767446D01*
X69172022Y-93397188D01*
X69164408Y-93411132D01*
X68434356Y-93411132D01*
X68435592Y-93408868D01*
X68435461Y-93407035D01*
X68431210Y-93400420D01*
X67797514Y-92766724D01*
X67785739Y-92760294D01*
X67773724Y-92769590D01*
X67752999Y-92799189D01*
X67747521Y-92808677D01*
X67662841Y-92990277D01*
X67659093Y-93000571D01*
X67607231Y-93194122D01*
X67605329Y-93204909D01*
X67587865Y-93404525D01*
X67587865Y-93415475D01*
X63003386Y-93415475D01*
X63012135Y-93315475D01*
X63012135Y-93304525D01*
X62994671Y-93104909D01*
X62992769Y-93094122D01*
X62940907Y-92900571D01*
X62937159Y-92890277D01*
X62852479Y-92708677D01*
X62847001Y-92699189D01*
X62825689Y-92668752D01*
X62815212Y-92660377D01*
X62801764Y-92667446D01*
X62172022Y-93297188D01*
X62164408Y-93311132D01*
X61434356Y-93311132D01*
X61435592Y-93308868D01*
X61435461Y-93307035D01*
X61431210Y-93300420D01*
X60797514Y-92666724D01*
X60785739Y-92660294D01*
X60773724Y-92669590D01*
X60752999Y-92699189D01*
X60747521Y-92708677D01*
X60662841Y-92890277D01*
X60659093Y-92900571D01*
X60607231Y-93094122D01*
X60605329Y-93104909D01*
X60587865Y-93304525D01*
X60587865Y-93315475D01*
X43408500Y-93315475D01*
X43408500Y-92294788D01*
X61150377Y-92294788D01*
X61157446Y-92308236D01*
X61787188Y-92937978D01*
X61801132Y-92945592D01*
X61802965Y-92945461D01*
X61809580Y-92941210D01*
X62356002Y-92394788D01*
X68150377Y-92394788D01*
X68157446Y-92408236D01*
X68787188Y-93037978D01*
X68801132Y-93045592D01*
X68802965Y-93045461D01*
X68809580Y-93041210D01*
X69443276Y-92407514D01*
X69449706Y-92395739D01*
X69440410Y-92383724D01*
X69410811Y-92362999D01*
X69401323Y-92357521D01*
X69219723Y-92272841D01*
X69209429Y-92269093D01*
X69015878Y-92217231D01*
X69005091Y-92215329D01*
X68805475Y-92197865D01*
X68794525Y-92197865D01*
X68594909Y-92215329D01*
X68584122Y-92217231D01*
X68390571Y-92269093D01*
X68380277Y-92272841D01*
X68198677Y-92357521D01*
X68189189Y-92362999D01*
X68158752Y-92384311D01*
X68150377Y-92394788D01*
X62356002Y-92394788D01*
X62443276Y-92307514D01*
X62449706Y-92295739D01*
X62440410Y-92283724D01*
X62410811Y-92262999D01*
X62401323Y-92257521D01*
X62219723Y-92172841D01*
X62209429Y-92169093D01*
X62015878Y-92117231D01*
X62005091Y-92115329D01*
X61805475Y-92097865D01*
X61794525Y-92097865D01*
X61594909Y-92115329D01*
X61584122Y-92117231D01*
X61390571Y-92169093D01*
X61380277Y-92172841D01*
X61198677Y-92257521D01*
X61189189Y-92262999D01*
X61158752Y-92284311D01*
X61150377Y-92294788D01*
X43408500Y-92294788D01*
X43408500Y-84700000D01*
X48286496Y-84700000D01*
X48287186Y-84706565D01*
X48296754Y-84797595D01*
X48306458Y-84889928D01*
X48365473Y-85071556D01*
X48460960Y-85236944D01*
X48465378Y-85241851D01*
X48465379Y-85241852D01*
X48547955Y-85333562D01*
X48588747Y-85378866D01*
X48743248Y-85491118D01*
X48749276Y-85493802D01*
X48749278Y-85493803D01*
X48907939Y-85564443D01*
X48917712Y-85568794D01*
X48993132Y-85584825D01*
X49098056Y-85607128D01*
X49098061Y-85607128D01*
X49104513Y-85608500D01*
X49160406Y-85608500D01*
X49228527Y-85628502D01*
X49249501Y-85645405D01*
X49974203Y-86370108D01*
X50696348Y-87092253D01*
X50703888Y-87100539D01*
X50708000Y-87107018D01*
X50713777Y-87112443D01*
X50757651Y-87153643D01*
X50760493Y-87156398D01*
X50780230Y-87176135D01*
X50783427Y-87178615D01*
X50792447Y-87186318D01*
X50824679Y-87216586D01*
X50831625Y-87220405D01*
X50831628Y-87220407D01*
X50842434Y-87226348D01*
X50858951Y-87237198D01*
X50867721Y-87244000D01*
X50909291Y-87301554D01*
X50916500Y-87343563D01*
X50916500Y-87648134D01*
X50923255Y-87710316D01*
X50974385Y-87846705D01*
X51061739Y-87963261D01*
X51178295Y-88050615D01*
X51314684Y-88101745D01*
X51376866Y-88108500D01*
X53273134Y-88108500D01*
X53335316Y-88101745D01*
X53471705Y-88050615D01*
X53588261Y-87963261D01*
X53675615Y-87846705D01*
X53700180Y-87781178D01*
X53742822Y-87724414D01*
X53809383Y-87699714D01*
X53878732Y-87714921D01*
X53898647Y-87728464D01*
X54035174Y-87841811D01*
X54054349Y-87857730D01*
X54254322Y-87974584D01*
X54259147Y-87976426D01*
X54259148Y-87976427D01*
X54295124Y-87990165D01*
X54470694Y-88057209D01*
X54475760Y-88058240D01*
X54475761Y-88058240D01*
X54512384Y-88065691D01*
X54697656Y-88103385D01*
X54827089Y-88108131D01*
X54923949Y-88111683D01*
X54923953Y-88111683D01*
X54929113Y-88111872D01*
X54934233Y-88111216D01*
X54934235Y-88111216D01*
X55008166Y-88101745D01*
X55158847Y-88082442D01*
X55163795Y-88080957D01*
X55163802Y-88080956D01*
X55375747Y-88017369D01*
X55380690Y-88015886D01*
X55407735Y-88002637D01*
X55584049Y-87916262D01*
X55584052Y-87916260D01*
X55588684Y-87913991D01*
X55777243Y-87779494D01*
X55941303Y-87616005D01*
X56076458Y-87427917D01*
X56088440Y-87403672D01*
X56136553Y-87351466D01*
X56201397Y-87333500D01*
X60711233Y-87333500D01*
X60722416Y-87334027D01*
X60729909Y-87335702D01*
X60737835Y-87335453D01*
X60737836Y-87335453D01*
X60797986Y-87333562D01*
X60801945Y-87333500D01*
X60829856Y-87333500D01*
X60833791Y-87333003D01*
X60833856Y-87332995D01*
X60845693Y-87332062D01*
X60877951Y-87331048D01*
X60881970Y-87330922D01*
X60889889Y-87330673D01*
X60909343Y-87325021D01*
X60928700Y-87321013D01*
X60940930Y-87319468D01*
X60940931Y-87319468D01*
X60948797Y-87318474D01*
X60956168Y-87315555D01*
X60956170Y-87315555D01*
X60989912Y-87302196D01*
X61001142Y-87298351D01*
X61035983Y-87288229D01*
X61035984Y-87288229D01*
X61043593Y-87286018D01*
X61050412Y-87281985D01*
X61050417Y-87281983D01*
X61061028Y-87275707D01*
X61078776Y-87267012D01*
X61097617Y-87259552D01*
X61133387Y-87233564D01*
X61143307Y-87227048D01*
X61174535Y-87208580D01*
X61174538Y-87208578D01*
X61181362Y-87204542D01*
X61195683Y-87190221D01*
X61210717Y-87177380D01*
X61216290Y-87173331D01*
X61227107Y-87165472D01*
X61255298Y-87131395D01*
X61263288Y-87122616D01*
X61468461Y-86917443D01*
X61530773Y-86883417D01*
X61579437Y-86882452D01*
X61584029Y-86883262D01*
X61589345Y-86884686D01*
X61800000Y-86903116D01*
X62010655Y-86884686D01*
X62015968Y-86883262D01*
X62015970Y-86883262D01*
X62209600Y-86831379D01*
X62209602Y-86831378D01*
X62214910Y-86829956D01*
X62223563Y-86825921D01*
X62401577Y-86742912D01*
X62401580Y-86742910D01*
X62406558Y-86740589D01*
X62579776Y-86619301D01*
X62729301Y-86469776D01*
X62850589Y-86296558D01*
X62853476Y-86290368D01*
X62937633Y-86109892D01*
X62937634Y-86109891D01*
X62939956Y-86104910D01*
X62948396Y-86073414D01*
X62993262Y-85905970D01*
X62993262Y-85905968D01*
X62994686Y-85900655D01*
X63013116Y-85690000D01*
X62994686Y-85479345D01*
X62993134Y-85473554D01*
X62941379Y-85280400D01*
X62941378Y-85280398D01*
X62939956Y-85275090D01*
X62935452Y-85265431D01*
X62852912Y-85088423D01*
X62852910Y-85088420D01*
X62850589Y-85083442D01*
X62729301Y-84910224D01*
X62579776Y-84760699D01*
X62406558Y-84639411D01*
X62401580Y-84637090D01*
X62401577Y-84637088D01*
X62219892Y-84552367D01*
X62219891Y-84552366D01*
X62214910Y-84550044D01*
X62209602Y-84548622D01*
X62209600Y-84548621D01*
X62015970Y-84496738D01*
X62015968Y-84496738D01*
X62010655Y-84495314D01*
X61800000Y-84476884D01*
X61589345Y-84495314D01*
X61584032Y-84496738D01*
X61584030Y-84496738D01*
X61390400Y-84548621D01*
X61390398Y-84548622D01*
X61385090Y-84550044D01*
X61380109Y-84552366D01*
X61380108Y-84552367D01*
X61198423Y-84637088D01*
X61198420Y-84637090D01*
X61193442Y-84639411D01*
X61020224Y-84760699D01*
X60870699Y-84910224D01*
X60749411Y-85083442D01*
X60747090Y-85088420D01*
X60747088Y-85088423D01*
X60664548Y-85265431D01*
X60660044Y-85275090D01*
X60658622Y-85280398D01*
X60658621Y-85280400D01*
X60606866Y-85473554D01*
X60605314Y-85479345D01*
X60586884Y-85690000D01*
X60587363Y-85695475D01*
X60604835Y-85895175D01*
X60605314Y-85900655D01*
X60606736Y-85905961D01*
X60607547Y-85910561D01*
X60599679Y-85981121D01*
X60572557Y-86021538D01*
X60564500Y-86029595D01*
X60502188Y-86063621D01*
X60475405Y-86066500D01*
X56201359Y-86066500D01*
X56133238Y-86046498D01*
X56095567Y-86008940D01*
X56077570Y-85981121D01*
X55984764Y-85837665D01*
X55980740Y-85833242D01*
X55870614Y-85712216D01*
X55828887Y-85666358D01*
X55824836Y-85663159D01*
X55824832Y-85663155D01*
X55651177Y-85526011D01*
X55651172Y-85526008D01*
X55647123Y-85522810D01*
X55642607Y-85520317D01*
X55642604Y-85520315D01*
X55448879Y-85413373D01*
X55448875Y-85413371D01*
X55444355Y-85410876D01*
X55439486Y-85409152D01*
X55439482Y-85409150D01*
X55230903Y-85335288D01*
X55230899Y-85335287D01*
X55226028Y-85333562D01*
X55220935Y-85332655D01*
X55220932Y-85332654D01*
X55003095Y-85293851D01*
X55003089Y-85293850D01*
X54998006Y-85292945D01*
X54925096Y-85292054D01*
X54771581Y-85290179D01*
X54771579Y-85290179D01*
X54766411Y-85290116D01*
X54537464Y-85325150D01*
X54317314Y-85397106D01*
X54312726Y-85399494D01*
X54312722Y-85399496D01*
X54136718Y-85491118D01*
X54111872Y-85504052D01*
X54107739Y-85507155D01*
X54107736Y-85507157D01*
X53930790Y-85640012D01*
X53926655Y-85643117D01*
X53914852Y-85655468D01*
X53909170Y-85661414D01*
X53847646Y-85696844D01*
X53776733Y-85693387D01*
X53718947Y-85652141D01*
X53700094Y-85618592D01*
X53678768Y-85561705D01*
X53678767Y-85561704D01*
X53675615Y-85553295D01*
X53588261Y-85436739D01*
X53471705Y-85349385D01*
X53335316Y-85298255D01*
X53273134Y-85291500D01*
X51376866Y-85291500D01*
X51314684Y-85298255D01*
X51178295Y-85349385D01*
X51061739Y-85436739D01*
X51051710Y-85450121D01*
X51050752Y-85451399D01*
X50993892Y-85493913D01*
X50923073Y-85498937D01*
X50860832Y-85464927D01*
X50147122Y-84751217D01*
X50113096Y-84688905D01*
X50110907Y-84675292D01*
X50107468Y-84642566D01*
X50102152Y-84591995D01*
X50094232Y-84516635D01*
X50094232Y-84516633D01*
X50093542Y-84510072D01*
X50034527Y-84328444D01*
X50019849Y-84303020D01*
X49980217Y-84234376D01*
X49939040Y-84163056D01*
X49917692Y-84139346D01*
X49815675Y-84026045D01*
X49815674Y-84026044D01*
X49811253Y-84021134D01*
X49656752Y-83908882D01*
X49650724Y-83906198D01*
X49650722Y-83906197D01*
X49488319Y-83833891D01*
X49488318Y-83833891D01*
X49482288Y-83831206D01*
X49388888Y-83811353D01*
X49301944Y-83792872D01*
X49301939Y-83792872D01*
X49295487Y-83791500D01*
X49104513Y-83791500D01*
X49098061Y-83792872D01*
X49098056Y-83792872D01*
X49011112Y-83811353D01*
X48917712Y-83831206D01*
X48911682Y-83833891D01*
X48911681Y-83833891D01*
X48749278Y-83906197D01*
X48749276Y-83906198D01*
X48743248Y-83908882D01*
X48588747Y-84021134D01*
X48584326Y-84026044D01*
X48584325Y-84026045D01*
X48482309Y-84139346D01*
X48460960Y-84163056D01*
X48419783Y-84234376D01*
X48380152Y-84303020D01*
X48365473Y-84328444D01*
X48306458Y-84510072D01*
X48305768Y-84516633D01*
X48305768Y-84516635D01*
X48291502Y-84652367D01*
X48286496Y-84700000D01*
X43408500Y-84700000D01*
X43408500Y-80484735D01*
X52391500Y-80484735D01*
X52391749Y-80487522D01*
X52391749Y-80487528D01*
X52394144Y-80514362D01*
X52405792Y-80644872D01*
X52431158Y-80737595D01*
X52455824Y-80827758D01*
X52462716Y-80852952D01*
X52555589Y-81047663D01*
X52643725Y-81170318D01*
X52677753Y-81217672D01*
X52681474Y-81222851D01*
X52712143Y-81252571D01*
X52830243Y-81367018D01*
X52836392Y-81372977D01*
X53015447Y-81493297D01*
X53020593Y-81495556D01*
X53020595Y-81495557D01*
X53090696Y-81526329D01*
X53212980Y-81580008D01*
X53422745Y-81630368D01*
X53498500Y-81634736D01*
X53632506Y-81642463D01*
X53632509Y-81642463D01*
X53638113Y-81642786D01*
X53655467Y-81640686D01*
X53846708Y-81617544D01*
X53846709Y-81617544D01*
X53852277Y-81616870D01*
X53857631Y-81615223D01*
X53857635Y-81615222D01*
X54053109Y-81555085D01*
X54053108Y-81555085D01*
X54058466Y-81553437D01*
X54234527Y-81462566D01*
X54245183Y-81457066D01*
X54245184Y-81457065D01*
X54250164Y-81454495D01*
X54346337Y-81380699D01*
X54416860Y-81326585D01*
X54416864Y-81326581D01*
X54421311Y-81323169D01*
X54485550Y-81252571D01*
X54562724Y-81167758D01*
X54562726Y-81167755D01*
X54566497Y-81163611D01*
X54584770Y-81134481D01*
X54678149Y-80985624D01*
X54678150Y-80985621D01*
X54681134Y-80980865D01*
X54681173Y-80980889D01*
X54728595Y-80930680D01*
X54792111Y-80913500D01*
X59155406Y-80913500D01*
X59223527Y-80933502D01*
X59244501Y-80950405D01*
X60472557Y-82178461D01*
X60506583Y-82240773D01*
X60507548Y-82289437D01*
X60506738Y-82294029D01*
X60505314Y-82299345D01*
X60486884Y-82510000D01*
X60505314Y-82720655D01*
X60506738Y-82725968D01*
X60506738Y-82725970D01*
X60554152Y-82902919D01*
X60560044Y-82924910D01*
X60562366Y-82929891D01*
X60562367Y-82929892D01*
X60646535Y-83110390D01*
X60649411Y-83116558D01*
X60770699Y-83289776D01*
X60920224Y-83439301D01*
X61093442Y-83560589D01*
X61098420Y-83562910D01*
X61098423Y-83562912D01*
X61189035Y-83605165D01*
X61285090Y-83649956D01*
X61290398Y-83651378D01*
X61290400Y-83651379D01*
X61484030Y-83703262D01*
X61484032Y-83703262D01*
X61489345Y-83704686D01*
X61700000Y-83723116D01*
X61910655Y-83704686D01*
X61915968Y-83703262D01*
X61915970Y-83703262D01*
X62109600Y-83651379D01*
X62109602Y-83651378D01*
X62114910Y-83649956D01*
X62210965Y-83605165D01*
X62301577Y-83562912D01*
X62301580Y-83562910D01*
X62306558Y-83560589D01*
X62479776Y-83439301D01*
X62629301Y-83289776D01*
X62694102Y-83197230D01*
X62749559Y-83152901D01*
X62797315Y-83143500D01*
X63811233Y-83143500D01*
X63822416Y-83144027D01*
X63829909Y-83145702D01*
X63837835Y-83145453D01*
X63837836Y-83145453D01*
X63897986Y-83143562D01*
X63901945Y-83143500D01*
X63929856Y-83143500D01*
X63933791Y-83143003D01*
X63933856Y-83142995D01*
X63945693Y-83142062D01*
X63977951Y-83141048D01*
X63981970Y-83140922D01*
X63989889Y-83140673D01*
X64009343Y-83135021D01*
X64028700Y-83131013D01*
X64040930Y-83129468D01*
X64040931Y-83129468D01*
X64048797Y-83128474D01*
X64056168Y-83125555D01*
X64056170Y-83125555D01*
X64089912Y-83112196D01*
X64101142Y-83108351D01*
X64135983Y-83098229D01*
X64135984Y-83098229D01*
X64143593Y-83096018D01*
X64150412Y-83091985D01*
X64150417Y-83091983D01*
X64161028Y-83085707D01*
X64178776Y-83077012D01*
X64197617Y-83069552D01*
X64220536Y-83052901D01*
X64233387Y-83043564D01*
X64243307Y-83037048D01*
X64274535Y-83018580D01*
X64274538Y-83018578D01*
X64281362Y-83014542D01*
X64295683Y-83000221D01*
X64310717Y-82987380D01*
X64313020Y-82985707D01*
X64327107Y-82975472D01*
X64355298Y-82941395D01*
X64363288Y-82932616D01*
X64985904Y-82310000D01*
X67486884Y-82310000D01*
X67505314Y-82520655D01*
X67506738Y-82525968D01*
X67506738Y-82525970D01*
X67557436Y-82715175D01*
X67560044Y-82724910D01*
X67562366Y-82729891D01*
X67562367Y-82729892D01*
X67643679Y-82904265D01*
X67649411Y-82916558D01*
X67770699Y-83089776D01*
X67920224Y-83239301D01*
X68093442Y-83360589D01*
X68098420Y-83362910D01*
X68098423Y-83362912D01*
X68280108Y-83447633D01*
X68285090Y-83449956D01*
X68290398Y-83451378D01*
X68290400Y-83451379D01*
X68484030Y-83503262D01*
X68484032Y-83503262D01*
X68489345Y-83504686D01*
X68700000Y-83523116D01*
X68910655Y-83504686D01*
X68915971Y-83503262D01*
X68920563Y-83502452D01*
X68991123Y-83510321D01*
X69031539Y-83537443D01*
X70435501Y-84941405D01*
X70469527Y-85003717D01*
X70464462Y-85074532D01*
X70421915Y-85131368D01*
X70355395Y-85156179D01*
X70346406Y-85156500D01*
X69897315Y-85156500D01*
X69829194Y-85136498D01*
X69794102Y-85102770D01*
X69784056Y-85088423D01*
X69729301Y-85010224D01*
X69579776Y-84860699D01*
X69406558Y-84739411D01*
X69401580Y-84737090D01*
X69401577Y-84737088D01*
X69219892Y-84652367D01*
X69219891Y-84652366D01*
X69214910Y-84650044D01*
X69209602Y-84648622D01*
X69209600Y-84648621D01*
X69015970Y-84596738D01*
X69015968Y-84596738D01*
X69010655Y-84595314D01*
X68800000Y-84576884D01*
X68589345Y-84595314D01*
X68584032Y-84596738D01*
X68584030Y-84596738D01*
X68390400Y-84648621D01*
X68390398Y-84648622D01*
X68385090Y-84650044D01*
X68380109Y-84652366D01*
X68380108Y-84652367D01*
X68198423Y-84737088D01*
X68198420Y-84737090D01*
X68193442Y-84739411D01*
X68020224Y-84860699D01*
X67870699Y-85010224D01*
X67749411Y-85183442D01*
X67747090Y-85188420D01*
X67747088Y-85188423D01*
X67666966Y-85360246D01*
X67660044Y-85375090D01*
X67658622Y-85380398D01*
X67658621Y-85380400D01*
X67607386Y-85571613D01*
X67605314Y-85579345D01*
X67586884Y-85790000D01*
X67605314Y-86000655D01*
X67606738Y-86005968D01*
X67606738Y-86005970D01*
X67658125Y-86197747D01*
X67660044Y-86204910D01*
X67662366Y-86209891D01*
X67662367Y-86209892D01*
X67743940Y-86384825D01*
X67749411Y-86396558D01*
X67870699Y-86569776D01*
X68020224Y-86719301D01*
X68193442Y-86840589D01*
X68198420Y-86842910D01*
X68198423Y-86842912D01*
X68380108Y-86927633D01*
X68385090Y-86929956D01*
X68390398Y-86931378D01*
X68390400Y-86931379D01*
X68584030Y-86983262D01*
X68584032Y-86983262D01*
X68589345Y-86984686D01*
X68800000Y-87003116D01*
X69010655Y-86984686D01*
X69015968Y-86983262D01*
X69015970Y-86983262D01*
X69209600Y-86931379D01*
X69209602Y-86931378D01*
X69214910Y-86929956D01*
X69219892Y-86927633D01*
X69401577Y-86842912D01*
X69401580Y-86842910D01*
X69406558Y-86840589D01*
X69579776Y-86719301D01*
X69729301Y-86569776D01*
X69794102Y-86477230D01*
X69849559Y-86432901D01*
X69897315Y-86423500D01*
X70940406Y-86423500D01*
X71008527Y-86443502D01*
X71029501Y-86460405D01*
X75445500Y-90876405D01*
X75479526Y-90938717D01*
X75474461Y-91009532D01*
X75431914Y-91066368D01*
X75365394Y-91091179D01*
X75356405Y-91091500D01*
X74476866Y-91091500D01*
X74414684Y-91098255D01*
X74278295Y-91149385D01*
X74161739Y-91236739D01*
X74074385Y-91353295D01*
X74023255Y-91489684D01*
X74016500Y-91551866D01*
X74016500Y-92135406D01*
X73996498Y-92203527D01*
X73979595Y-92224501D01*
X72149500Y-94054595D01*
X72087188Y-94088621D01*
X72060405Y-94091500D01*
X72004513Y-94091500D01*
X71998061Y-94092872D01*
X71998056Y-94092872D01*
X71911113Y-94111353D01*
X71817712Y-94131206D01*
X71811682Y-94133891D01*
X71811681Y-94133891D01*
X71649278Y-94206197D01*
X71649276Y-94206198D01*
X71643248Y-94208882D01*
X71637907Y-94212762D01*
X71637906Y-94212763D01*
X71624075Y-94222812D01*
X71488747Y-94321134D01*
X71484326Y-94326044D01*
X71484325Y-94326045D01*
X71407713Y-94411132D01*
X71360960Y-94463056D01*
X71343208Y-94493803D01*
X71269116Y-94622135D01*
X71265473Y-94628444D01*
X71206458Y-94810072D01*
X71205768Y-94816633D01*
X71205768Y-94816635D01*
X71202218Y-94850410D01*
X71186496Y-95000000D01*
X71187186Y-95006565D01*
X71192763Y-95059623D01*
X71206458Y-95189928D01*
X71265473Y-95371556D01*
X71360960Y-95536944D01*
X71365378Y-95541851D01*
X71365379Y-95541852D01*
X71437666Y-95622135D01*
X71488747Y-95678866D01*
X71643248Y-95791118D01*
X71649276Y-95793802D01*
X71649278Y-95793803D01*
X71811681Y-95866109D01*
X71817712Y-95868794D01*
X71911113Y-95888647D01*
X71998056Y-95907128D01*
X71998061Y-95907128D01*
X72004513Y-95908500D01*
X72195487Y-95908500D01*
X72201939Y-95907128D01*
X72201944Y-95907128D01*
X72288887Y-95888647D01*
X72382288Y-95868794D01*
X72388319Y-95866109D01*
X72550722Y-95793803D01*
X72550724Y-95793802D01*
X72556752Y-95791118D01*
X72711253Y-95678866D01*
X72762334Y-95622135D01*
X72834621Y-95541852D01*
X72834622Y-95541851D01*
X72839040Y-95536944D01*
X72904098Y-95424261D01*
X105250294Y-95424261D01*
X105259590Y-95436276D01*
X105289189Y-95457001D01*
X105298677Y-95462479D01*
X105480277Y-95547159D01*
X105490571Y-95550907D01*
X105684122Y-95602769D01*
X105694909Y-95604671D01*
X105894525Y-95622135D01*
X105905475Y-95622135D01*
X106105091Y-95604671D01*
X106115878Y-95602769D01*
X106309429Y-95550907D01*
X106319723Y-95547159D01*
X106501323Y-95462479D01*
X106510811Y-95457001D01*
X106541248Y-95435689D01*
X106549623Y-95425212D01*
X106542554Y-95411764D01*
X106355051Y-95224261D01*
X111150294Y-95224261D01*
X111159590Y-95236276D01*
X111189189Y-95257001D01*
X111198677Y-95262479D01*
X111380277Y-95347159D01*
X111390571Y-95350907D01*
X111584122Y-95402769D01*
X111594909Y-95404671D01*
X111794525Y-95422135D01*
X111805475Y-95422135D01*
X112005091Y-95404671D01*
X112015878Y-95402769D01*
X112209429Y-95350907D01*
X112219723Y-95347159D01*
X112401323Y-95262479D01*
X112410811Y-95257001D01*
X112441248Y-95235689D01*
X112449623Y-95225212D01*
X112442554Y-95211764D01*
X111812812Y-94582022D01*
X111798868Y-94574408D01*
X111797035Y-94574539D01*
X111790420Y-94578790D01*
X111156724Y-95212486D01*
X111150294Y-95224261D01*
X106355051Y-95224261D01*
X105912812Y-94782022D01*
X105898868Y-94774408D01*
X105897035Y-94774539D01*
X105890420Y-94778790D01*
X105256724Y-95412486D01*
X105250294Y-95424261D01*
X72904098Y-95424261D01*
X72934527Y-95371556D01*
X72993542Y-95189928D01*
X73010907Y-95024706D01*
X73037920Y-94959050D01*
X73047122Y-94948782D01*
X74126509Y-93869395D01*
X74188821Y-93835369D01*
X74259636Y-93840434D01*
X74272655Y-93846388D01*
X74278295Y-93850615D01*
X74414684Y-93901745D01*
X74476866Y-93908500D01*
X76373134Y-93908500D01*
X76435316Y-93901745D01*
X76571705Y-93850615D01*
X76688261Y-93763261D01*
X76775615Y-93646705D01*
X76800180Y-93581178D01*
X76842822Y-93524414D01*
X76909383Y-93499714D01*
X76978732Y-93514921D01*
X76998647Y-93528464D01*
X77063724Y-93582492D01*
X77154349Y-93657730D01*
X77354322Y-93774584D01*
X77359147Y-93776426D01*
X77359148Y-93776427D01*
X77404214Y-93793636D01*
X77570694Y-93857209D01*
X77575760Y-93858240D01*
X77575761Y-93858240D01*
X77628846Y-93869040D01*
X77797656Y-93903385D01*
X77927089Y-93908131D01*
X78023949Y-93911683D01*
X78023953Y-93911683D01*
X78029113Y-93911872D01*
X78034233Y-93911216D01*
X78034235Y-93911216D01*
X78108166Y-93901745D01*
X78258847Y-93882442D01*
X78263795Y-93880957D01*
X78263802Y-93880956D01*
X78475747Y-93817369D01*
X78480690Y-93815886D01*
X78485324Y-93813616D01*
X78684049Y-93716262D01*
X78684052Y-93716260D01*
X78688684Y-93713991D01*
X78708299Y-93700000D01*
X93886496Y-93700000D01*
X93887186Y-93706565D01*
X93901338Y-93841210D01*
X93906458Y-93889928D01*
X93965473Y-94071556D01*
X93968776Y-94077278D01*
X93968777Y-94077279D01*
X93986803Y-94108500D01*
X94060960Y-94236944D01*
X94188747Y-94378866D01*
X94343248Y-94491118D01*
X94349276Y-94493802D01*
X94349278Y-94493803D01*
X94477537Y-94550907D01*
X94517712Y-94568794D01*
X94611112Y-94588647D01*
X94698056Y-94607128D01*
X94698061Y-94607128D01*
X94704513Y-94608500D01*
X94895487Y-94608500D01*
X94901939Y-94607128D01*
X94901944Y-94607128D01*
X94988887Y-94588647D01*
X95082288Y-94568794D01*
X95122463Y-94550907D01*
X95250722Y-94493803D01*
X95250724Y-94493802D01*
X95256752Y-94491118D01*
X95360865Y-94415475D01*
X104687865Y-94415475D01*
X104705329Y-94615091D01*
X104707231Y-94625878D01*
X104759093Y-94819429D01*
X104762841Y-94829723D01*
X104847521Y-95011323D01*
X104852999Y-95020811D01*
X104874311Y-95051248D01*
X104884788Y-95059623D01*
X104898236Y-95052554D01*
X105527978Y-94422812D01*
X105534356Y-94411132D01*
X106264408Y-94411132D01*
X106264539Y-94412965D01*
X106268790Y-94419580D01*
X106902486Y-95053276D01*
X106914261Y-95059706D01*
X106926276Y-95050410D01*
X106947001Y-95020811D01*
X106952479Y-95011323D01*
X107037159Y-94829723D01*
X107040907Y-94819429D01*
X107092769Y-94625878D01*
X107094671Y-94615091D01*
X107112135Y-94415475D01*
X107112135Y-94404525D01*
X107095595Y-94215475D01*
X110587865Y-94215475D01*
X110605329Y-94415091D01*
X110607231Y-94425878D01*
X110659093Y-94619429D01*
X110662841Y-94629723D01*
X110747521Y-94811323D01*
X110752999Y-94820811D01*
X110774311Y-94851248D01*
X110784788Y-94859623D01*
X110798236Y-94852554D01*
X111427978Y-94222812D01*
X111434356Y-94211132D01*
X112164408Y-94211132D01*
X112164539Y-94212965D01*
X112168790Y-94219580D01*
X112802486Y-94853276D01*
X112814261Y-94859706D01*
X112826276Y-94850410D01*
X112847001Y-94820811D01*
X112852479Y-94811323D01*
X112937159Y-94629723D01*
X112940907Y-94619429D01*
X112992769Y-94425878D01*
X112994671Y-94415091D01*
X113012135Y-94215475D01*
X113012135Y-94204525D01*
X112994671Y-94004909D01*
X112992769Y-93994122D01*
X112940907Y-93800571D01*
X112937159Y-93790277D01*
X112852479Y-93608677D01*
X112847001Y-93599189D01*
X112825689Y-93568752D01*
X112815212Y-93560377D01*
X112801764Y-93567446D01*
X112172022Y-94197188D01*
X112164408Y-94211132D01*
X111434356Y-94211132D01*
X111435592Y-94208868D01*
X111435461Y-94207035D01*
X111431210Y-94200420D01*
X110797514Y-93566724D01*
X110785739Y-93560294D01*
X110773724Y-93569590D01*
X110752999Y-93599189D01*
X110747521Y-93608677D01*
X110662841Y-93790277D01*
X110659093Y-93800571D01*
X110607231Y-93994122D01*
X110605329Y-94004909D01*
X110587865Y-94204525D01*
X110587865Y-94215475D01*
X107095595Y-94215475D01*
X107094671Y-94204909D01*
X107092769Y-94194122D01*
X107040907Y-94000571D01*
X107037159Y-93990277D01*
X106952479Y-93808677D01*
X106947001Y-93799189D01*
X106925689Y-93768752D01*
X106915212Y-93760377D01*
X106901764Y-93767446D01*
X106272022Y-94397188D01*
X106264408Y-94411132D01*
X105534356Y-94411132D01*
X105535592Y-94408868D01*
X105535461Y-94407035D01*
X105531210Y-94400420D01*
X104897514Y-93766724D01*
X104885739Y-93760294D01*
X104873724Y-93769590D01*
X104852999Y-93799189D01*
X104847521Y-93808677D01*
X104762841Y-93990277D01*
X104759093Y-94000571D01*
X104707231Y-94194122D01*
X104705329Y-94204909D01*
X104687865Y-94404525D01*
X104687865Y-94415475D01*
X95360865Y-94415475D01*
X95411253Y-94378866D01*
X95539040Y-94236944D01*
X95613197Y-94108500D01*
X95631223Y-94077279D01*
X95631224Y-94077278D01*
X95634527Y-94071556D01*
X95693542Y-93889928D01*
X95698663Y-93841210D01*
X95706278Y-93768752D01*
X95710907Y-93724706D01*
X95737920Y-93659050D01*
X95747122Y-93648782D01*
X96001116Y-93394788D01*
X105250377Y-93394788D01*
X105257446Y-93408236D01*
X105887188Y-94037978D01*
X105901132Y-94045592D01*
X105902965Y-94045461D01*
X105909580Y-94041210D01*
X106543276Y-93407514D01*
X106549706Y-93395739D01*
X106540410Y-93383724D01*
X106510811Y-93362999D01*
X106501323Y-93357521D01*
X106319723Y-93272841D01*
X106309429Y-93269093D01*
X106115878Y-93217231D01*
X106105091Y-93215329D01*
X105905475Y-93197865D01*
X105894525Y-93197865D01*
X105694909Y-93215329D01*
X105684122Y-93217231D01*
X105490571Y-93269093D01*
X105480277Y-93272841D01*
X105298677Y-93357521D01*
X105289189Y-93362999D01*
X105258752Y-93384311D01*
X105250377Y-93394788D01*
X96001116Y-93394788D01*
X96201116Y-93194788D01*
X111150377Y-93194788D01*
X111157446Y-93208236D01*
X111787188Y-93837978D01*
X111801132Y-93845592D01*
X111802965Y-93845461D01*
X111809580Y-93841210D01*
X112443276Y-93207514D01*
X112449706Y-93195739D01*
X112440410Y-93183724D01*
X112410811Y-93162999D01*
X112401323Y-93157521D01*
X112219723Y-93072841D01*
X112209429Y-93069093D01*
X112015878Y-93017231D01*
X112005091Y-93015329D01*
X111805475Y-92997865D01*
X111794525Y-92997865D01*
X111594909Y-93015329D01*
X111584122Y-93017231D01*
X111390571Y-93069093D01*
X111380277Y-93072841D01*
X111198677Y-93157521D01*
X111189189Y-93162999D01*
X111158752Y-93184311D01*
X111150377Y-93194788D01*
X96201116Y-93194788D01*
X96550499Y-92845405D01*
X96612811Y-92811379D01*
X96639594Y-92808500D01*
X97973134Y-92808500D01*
X98035316Y-92801745D01*
X98171705Y-92750615D01*
X98288261Y-92663261D01*
X98375615Y-92546705D01*
X98400180Y-92481178D01*
X98442822Y-92424414D01*
X98509383Y-92399714D01*
X98578732Y-92414921D01*
X98598647Y-92428464D01*
X98663724Y-92482492D01*
X98754349Y-92557730D01*
X98954322Y-92674584D01*
X99170694Y-92757209D01*
X99175760Y-92758240D01*
X99175761Y-92758240D01*
X99185857Y-92760294D01*
X99397656Y-92803385D01*
X99527089Y-92808131D01*
X99623949Y-92811683D01*
X99623953Y-92811683D01*
X99629113Y-92811872D01*
X99634233Y-92811216D01*
X99634235Y-92811216D01*
X99728118Y-92799189D01*
X99858847Y-92782442D01*
X99863795Y-92780957D01*
X99863802Y-92780956D01*
X100075747Y-92717369D01*
X100080690Y-92715886D01*
X100085324Y-92713616D01*
X100284049Y-92616262D01*
X100284052Y-92616260D01*
X100288684Y-92613991D01*
X100477243Y-92479494D01*
X100641303Y-92316005D01*
X100647405Y-92307514D01*
X100672319Y-92272841D01*
X100776458Y-92127917D01*
X100788440Y-92103672D01*
X100836553Y-92051466D01*
X100901397Y-92033500D01*
X101211233Y-92033500D01*
X101222416Y-92034027D01*
X101229909Y-92035702D01*
X101237835Y-92035453D01*
X101237836Y-92035453D01*
X101297986Y-92033562D01*
X101301945Y-92033500D01*
X101329856Y-92033500D01*
X101333791Y-92033003D01*
X101333856Y-92032995D01*
X101345693Y-92032062D01*
X101377951Y-92031048D01*
X101381970Y-92030922D01*
X101389889Y-92030673D01*
X101409343Y-92025021D01*
X101428700Y-92021013D01*
X101440930Y-92019468D01*
X101440931Y-92019468D01*
X101448797Y-92018474D01*
X101456168Y-92015555D01*
X101456170Y-92015555D01*
X101489912Y-92002196D01*
X101501142Y-91998351D01*
X101535983Y-91988229D01*
X101535984Y-91988229D01*
X101543593Y-91986018D01*
X101550412Y-91981985D01*
X101550417Y-91981983D01*
X101561028Y-91975707D01*
X101578776Y-91967012D01*
X101597617Y-91959552D01*
X101633387Y-91933564D01*
X101643307Y-91927048D01*
X101674535Y-91908580D01*
X101674538Y-91908578D01*
X101681362Y-91904542D01*
X101695683Y-91890221D01*
X101710717Y-91877380D01*
X101720694Y-91870131D01*
X101727107Y-91865472D01*
X101755298Y-91831395D01*
X101763288Y-91822616D01*
X105568461Y-88017443D01*
X105630773Y-87983417D01*
X105679437Y-87982452D01*
X105684029Y-87983262D01*
X105689345Y-87984686D01*
X105900000Y-88003116D01*
X106110655Y-87984686D01*
X106115968Y-87983262D01*
X106115970Y-87983262D01*
X106309600Y-87931379D01*
X106309602Y-87931378D01*
X106314910Y-87929956D01*
X106349147Y-87913991D01*
X106501577Y-87842912D01*
X106501580Y-87842910D01*
X106506558Y-87840589D01*
X106679776Y-87719301D01*
X106829301Y-87569776D01*
X106950589Y-87396558D01*
X106958306Y-87380010D01*
X107037633Y-87209892D01*
X107037634Y-87209891D01*
X107039956Y-87204910D01*
X107046027Y-87182255D01*
X107093262Y-87005970D01*
X107093262Y-87005968D01*
X107094686Y-87000655D01*
X107113116Y-86790000D01*
X107095618Y-86590000D01*
X110586884Y-86590000D01*
X110605314Y-86800655D01*
X110606738Y-86805968D01*
X110606738Y-86805970D01*
X110657436Y-86995175D01*
X110660044Y-87004910D01*
X110662366Y-87009891D01*
X110662367Y-87009892D01*
X110741041Y-87178608D01*
X110749411Y-87196558D01*
X110870699Y-87369776D01*
X111020224Y-87519301D01*
X111193442Y-87640589D01*
X111198420Y-87642910D01*
X111198423Y-87642912D01*
X111369853Y-87722851D01*
X111385090Y-87729956D01*
X111390398Y-87731378D01*
X111390400Y-87731379D01*
X111584030Y-87783262D01*
X111584032Y-87783262D01*
X111589345Y-87784686D01*
X111800000Y-87803116D01*
X112010655Y-87784686D01*
X112015968Y-87783262D01*
X112015970Y-87783262D01*
X112209600Y-87731379D01*
X112209602Y-87731378D01*
X112214910Y-87729956D01*
X112230147Y-87722851D01*
X112401577Y-87642912D01*
X112401580Y-87642910D01*
X112406558Y-87640589D01*
X112579776Y-87519301D01*
X112729301Y-87369776D01*
X112794102Y-87277230D01*
X112849559Y-87232901D01*
X112897315Y-87223500D01*
X116590500Y-87223500D01*
X116658621Y-87243502D01*
X116705114Y-87297158D01*
X116716500Y-87349500D01*
X116716500Y-88948134D01*
X116723255Y-89010316D01*
X116774385Y-89146705D01*
X116861739Y-89263261D01*
X116978295Y-89350615D01*
X117114684Y-89401745D01*
X117176866Y-89408500D01*
X117365500Y-89408500D01*
X117433621Y-89428502D01*
X117480114Y-89482158D01*
X117491500Y-89534500D01*
X117491500Y-92581256D01*
X117471498Y-92649377D01*
X117467436Y-92655317D01*
X117465379Y-92658148D01*
X117460960Y-92663056D01*
X117457659Y-92668774D01*
X117457658Y-92668775D01*
X117375326Y-92811379D01*
X117365473Y-92828444D01*
X117306458Y-93010072D01*
X117305768Y-93016633D01*
X117305768Y-93016635D01*
X117302725Y-93045592D01*
X117286496Y-93200000D01*
X117287186Y-93206565D01*
X117303628Y-93362999D01*
X117306458Y-93389928D01*
X117365473Y-93571556D01*
X117460960Y-93736944D01*
X117465378Y-93741851D01*
X117465379Y-93741852D01*
X117533375Y-93817369D01*
X117588747Y-93878866D01*
X117743248Y-93991118D01*
X117749276Y-93993802D01*
X117749278Y-93993803D01*
X117885820Y-94054595D01*
X117917712Y-94068794D01*
X118010990Y-94088621D01*
X118098056Y-94107128D01*
X118098061Y-94107128D01*
X118104513Y-94108500D01*
X118295487Y-94108500D01*
X118301939Y-94107128D01*
X118301944Y-94107128D01*
X118389010Y-94088621D01*
X118482288Y-94068794D01*
X118514180Y-94054595D01*
X118650722Y-93993803D01*
X118650724Y-93993802D01*
X118656752Y-93991118D01*
X118811253Y-93878866D01*
X118866625Y-93817369D01*
X118934621Y-93741852D01*
X118934622Y-93741851D01*
X118939040Y-93736944D01*
X119034527Y-93571556D01*
X119093542Y-93389928D01*
X119096373Y-93362999D01*
X119112814Y-93206565D01*
X119113504Y-93200000D01*
X119097275Y-93045592D01*
X119094232Y-93016635D01*
X119094232Y-93016633D01*
X119093542Y-93010072D01*
X119034527Y-92828444D01*
X119024675Y-92811379D01*
X118959901Y-92699189D01*
X118939040Y-92663056D01*
X118926724Y-92649377D01*
X118815675Y-92526045D01*
X118815674Y-92526044D01*
X118811253Y-92521134D01*
X118805909Y-92517251D01*
X118801002Y-92512833D01*
X118802888Y-92510738D01*
X118767100Y-92464359D01*
X118758500Y-92418607D01*
X118758500Y-89534500D01*
X118778502Y-89466379D01*
X118832158Y-89419886D01*
X118884500Y-89408500D01*
X119073134Y-89408500D01*
X119135316Y-89401745D01*
X119271705Y-89350615D01*
X119388261Y-89263261D01*
X119475615Y-89146705D01*
X119500180Y-89081178D01*
X119542822Y-89024414D01*
X119609383Y-88999714D01*
X119678732Y-89014921D01*
X119698647Y-89028464D01*
X119822879Y-89131603D01*
X119854349Y-89157730D01*
X120054322Y-89274584D01*
X120270694Y-89357209D01*
X120275760Y-89358240D01*
X120275761Y-89358240D01*
X120284825Y-89360084D01*
X120497656Y-89403385D01*
X120627089Y-89408131D01*
X120723949Y-89411683D01*
X120723953Y-89411683D01*
X120729113Y-89411872D01*
X120734233Y-89411216D01*
X120734235Y-89411216D01*
X120808166Y-89401745D01*
X120958847Y-89382442D01*
X120963795Y-89380957D01*
X120963802Y-89380956D01*
X121175747Y-89317369D01*
X121180690Y-89315886D01*
X121220313Y-89296475D01*
X121384049Y-89216262D01*
X121384052Y-89216260D01*
X121388684Y-89213991D01*
X121577243Y-89079494D01*
X121741303Y-88916005D01*
X121876458Y-88727917D01*
X121921028Y-88637737D01*
X121976784Y-88524922D01*
X121976785Y-88524920D01*
X121979078Y-88520280D01*
X122046408Y-88298671D01*
X122076640Y-88069041D01*
X122077939Y-88015886D01*
X122078245Y-88003365D01*
X122078245Y-88003361D01*
X122078327Y-88000000D01*
X122065412Y-87842912D01*
X122059773Y-87774318D01*
X122059772Y-87774312D01*
X122059349Y-87769167D01*
X122021794Y-87619653D01*
X122004184Y-87549544D01*
X122004183Y-87549540D01*
X122002925Y-87544533D01*
X122000866Y-87539797D01*
X121912630Y-87336868D01*
X121912628Y-87336865D01*
X121910570Y-87332131D01*
X121784764Y-87137665D01*
X121771071Y-87122616D01*
X121733313Y-87081121D01*
X121628887Y-86966358D01*
X121624836Y-86963159D01*
X121624832Y-86963155D01*
X121451177Y-86826011D01*
X121451172Y-86826008D01*
X121447123Y-86822810D01*
X121442607Y-86820317D01*
X121442604Y-86820315D01*
X121248879Y-86713373D01*
X121248875Y-86713371D01*
X121244355Y-86710876D01*
X121239486Y-86709152D01*
X121239482Y-86709150D01*
X121030903Y-86635288D01*
X121030899Y-86635287D01*
X121026028Y-86633562D01*
X121020935Y-86632655D01*
X121020932Y-86632654D01*
X120803095Y-86593851D01*
X120803089Y-86593850D01*
X120798006Y-86592945D01*
X120725096Y-86592054D01*
X120571581Y-86590179D01*
X120571579Y-86590179D01*
X120566411Y-86590116D01*
X120337464Y-86625150D01*
X120296885Y-86638413D01*
X120225922Y-86640563D01*
X120168647Y-86607742D01*
X119758652Y-86197747D01*
X119751112Y-86189461D01*
X119747000Y-86182982D01*
X119733291Y-86170108D01*
X119697349Y-86136357D01*
X119694507Y-86133602D01*
X119674770Y-86113865D01*
X119671573Y-86111385D01*
X119662551Y-86103680D01*
X119658206Y-86099600D01*
X119630321Y-86073414D01*
X119623375Y-86069595D01*
X119623372Y-86069593D01*
X119612566Y-86063652D01*
X119596047Y-86052801D01*
X119595583Y-86052441D01*
X119580041Y-86040386D01*
X119572772Y-86037241D01*
X119572768Y-86037238D01*
X119539463Y-86022826D01*
X119528813Y-86017609D01*
X119490060Y-85996305D01*
X119470437Y-85991267D01*
X119451734Y-85984863D01*
X119440420Y-85979967D01*
X119440419Y-85979967D01*
X119433145Y-85976819D01*
X119425322Y-85975580D01*
X119425312Y-85975577D01*
X119389476Y-85969901D01*
X119377856Y-85967495D01*
X119342711Y-85958472D01*
X119342710Y-85958472D01*
X119335030Y-85956500D01*
X119314776Y-85956500D01*
X119295065Y-85954949D01*
X119282886Y-85953020D01*
X119275057Y-85951780D01*
X119267165Y-85952526D01*
X119231039Y-85955941D01*
X119219181Y-85956500D01*
X112897315Y-85956500D01*
X112829194Y-85936498D01*
X112794102Y-85902770D01*
X112762432Y-85857540D01*
X112729301Y-85810224D01*
X112579776Y-85660699D01*
X112406558Y-85539411D01*
X112401580Y-85537090D01*
X112401577Y-85537088D01*
X112219892Y-85452367D01*
X112219891Y-85452366D01*
X112214910Y-85450044D01*
X112209602Y-85448622D01*
X112209600Y-85448621D01*
X112015970Y-85396738D01*
X112015968Y-85396738D01*
X112010655Y-85395314D01*
X111800000Y-85376884D01*
X111589345Y-85395314D01*
X111584032Y-85396738D01*
X111584030Y-85396738D01*
X111390400Y-85448621D01*
X111390398Y-85448622D01*
X111385090Y-85450044D01*
X111380109Y-85452366D01*
X111380108Y-85452367D01*
X111198423Y-85537088D01*
X111198420Y-85537090D01*
X111193442Y-85539411D01*
X111020224Y-85660699D01*
X110870699Y-85810224D01*
X110749411Y-85983442D01*
X110747090Y-85988420D01*
X110747088Y-85988423D01*
X110674718Y-86143621D01*
X110660044Y-86175090D01*
X110658622Y-86180398D01*
X110658621Y-86180400D01*
X110613396Y-86349181D01*
X110605314Y-86379345D01*
X110586884Y-86590000D01*
X107095618Y-86590000D01*
X107094686Y-86579345D01*
X107090345Y-86563145D01*
X107041379Y-86380400D01*
X107041378Y-86380398D01*
X107039956Y-86375090D01*
X107028865Y-86351306D01*
X106952912Y-86188423D01*
X106952910Y-86188420D01*
X106950589Y-86183442D01*
X106829301Y-86010224D01*
X106679776Y-85860699D01*
X106506558Y-85739411D01*
X106501580Y-85737090D01*
X106501577Y-85737088D01*
X106319892Y-85652367D01*
X106319891Y-85652366D01*
X106314910Y-85650044D01*
X106309602Y-85648622D01*
X106309600Y-85648621D01*
X106115970Y-85596738D01*
X106115968Y-85596738D01*
X106110655Y-85595314D01*
X105900000Y-85576884D01*
X105689345Y-85595314D01*
X105684032Y-85596738D01*
X105684030Y-85596738D01*
X105490400Y-85648621D01*
X105490398Y-85648622D01*
X105485090Y-85650044D01*
X105480109Y-85652366D01*
X105480108Y-85652367D01*
X105298423Y-85737088D01*
X105298420Y-85737090D01*
X105293442Y-85739411D01*
X105120224Y-85860699D01*
X104970699Y-86010224D01*
X104849411Y-86183442D01*
X104847090Y-86188420D01*
X104847088Y-86188423D01*
X104771135Y-86351306D01*
X104760044Y-86375090D01*
X104758622Y-86380398D01*
X104758621Y-86380400D01*
X104709655Y-86563145D01*
X104705314Y-86579345D01*
X104686884Y-86790000D01*
X104687363Y-86795475D01*
X104704835Y-86995175D01*
X104705314Y-87000655D01*
X104706736Y-87005961D01*
X104707547Y-87010561D01*
X104699679Y-87081121D01*
X104672557Y-87121538D01*
X101064500Y-90729595D01*
X101002188Y-90763621D01*
X100975405Y-90766500D01*
X100901359Y-90766500D01*
X100833238Y-90746498D01*
X100795567Y-90708940D01*
X100698659Y-90559144D01*
X100684764Y-90537665D01*
X100528887Y-90366358D01*
X100524836Y-90363159D01*
X100524832Y-90363155D01*
X100351177Y-90226011D01*
X100351172Y-90226008D01*
X100347123Y-90222810D01*
X100342607Y-90220317D01*
X100342604Y-90220315D01*
X100148879Y-90113373D01*
X100148875Y-90113371D01*
X100144355Y-90110876D01*
X100139486Y-90109152D01*
X100139482Y-90109150D01*
X99930903Y-90035288D01*
X99930899Y-90035287D01*
X99926028Y-90033562D01*
X99920935Y-90032655D01*
X99920932Y-90032654D01*
X99703095Y-89993851D01*
X99703089Y-89993850D01*
X99698006Y-89992945D01*
X99625096Y-89992054D01*
X99471581Y-89990179D01*
X99471579Y-89990179D01*
X99466411Y-89990116D01*
X99237464Y-90025150D01*
X99017314Y-90097106D01*
X99012726Y-90099494D01*
X99012722Y-90099496D01*
X98907166Y-90154445D01*
X98811872Y-90204052D01*
X98807739Y-90207155D01*
X98807736Y-90207157D01*
X98735088Y-90261703D01*
X98626655Y-90343117D01*
X98613576Y-90356803D01*
X98609170Y-90361414D01*
X98547646Y-90396844D01*
X98476733Y-90393387D01*
X98418947Y-90352141D01*
X98400094Y-90318592D01*
X98378768Y-90261705D01*
X98378767Y-90261703D01*
X98375615Y-90253295D01*
X98288261Y-90136739D01*
X98171705Y-90049385D01*
X98035316Y-89998255D01*
X97973134Y-89991500D01*
X96076866Y-89991500D01*
X96014684Y-89998255D01*
X95878295Y-90049385D01*
X95761739Y-90136739D01*
X95674385Y-90253295D01*
X95623255Y-90389684D01*
X95616500Y-90451866D01*
X95616500Y-91935405D01*
X95596498Y-92003526D01*
X95579595Y-92024500D01*
X94849500Y-92754595D01*
X94787188Y-92788621D01*
X94760405Y-92791500D01*
X94704513Y-92791500D01*
X94698061Y-92792872D01*
X94698056Y-92792872D01*
X94623702Y-92808677D01*
X94517712Y-92831206D01*
X94511682Y-92833891D01*
X94511681Y-92833891D01*
X94349278Y-92906197D01*
X94349276Y-92906198D01*
X94343248Y-92908882D01*
X94337907Y-92912762D01*
X94337906Y-92912763D01*
X94292902Y-92945461D01*
X94188747Y-93021134D01*
X94184326Y-93026044D01*
X94184325Y-93026045D01*
X94145565Y-93069093D01*
X94060960Y-93163056D01*
X94021088Y-93232116D01*
X93970591Y-93319580D01*
X93965473Y-93328444D01*
X93906458Y-93510072D01*
X93905768Y-93516633D01*
X93905768Y-93516635D01*
X93896094Y-93608677D01*
X93886496Y-93700000D01*
X78708299Y-93700000D01*
X78877243Y-93579494D01*
X79041303Y-93416005D01*
X79046432Y-93408868D01*
X79113541Y-93315475D01*
X79176458Y-93227917D01*
X79181740Y-93217231D01*
X79276784Y-93024922D01*
X79276785Y-93024920D01*
X79279078Y-93020280D01*
X79346408Y-92798671D01*
X79376640Y-92569041D01*
X79376853Y-92560340D01*
X79378245Y-92503365D01*
X79378245Y-92503361D01*
X79378327Y-92500000D01*
X79368767Y-92383724D01*
X79359773Y-92274318D01*
X79359772Y-92274312D01*
X79359349Y-92269167D01*
X79323870Y-92127917D01*
X79304184Y-92049544D01*
X79304183Y-92049540D01*
X79302925Y-92044533D01*
X79297584Y-92032249D01*
X79212630Y-91836868D01*
X79212628Y-91836865D01*
X79210570Y-91832131D01*
X79084764Y-91637665D01*
X78928887Y-91466358D01*
X78924836Y-91463159D01*
X78924832Y-91463155D01*
X78751177Y-91326011D01*
X78751172Y-91326008D01*
X78747123Y-91322810D01*
X78742607Y-91320317D01*
X78742604Y-91320315D01*
X78548879Y-91213373D01*
X78548875Y-91213371D01*
X78544355Y-91210876D01*
X78539486Y-91209152D01*
X78539482Y-91209150D01*
X78330903Y-91135288D01*
X78330899Y-91135287D01*
X78326028Y-91133562D01*
X78320935Y-91132655D01*
X78320932Y-91132654D01*
X78103095Y-91093851D01*
X78103089Y-91093850D01*
X78098006Y-91092945D01*
X78025096Y-91092054D01*
X77871581Y-91090179D01*
X77871579Y-91090179D01*
X77866411Y-91090116D01*
X77751219Y-91107743D01*
X77642573Y-91124368D01*
X77642571Y-91124369D01*
X77637464Y-91125150D01*
X77632549Y-91126757D01*
X77632547Y-91126757D01*
X77596889Y-91138412D01*
X77525925Y-91140565D01*
X77468647Y-91107743D01*
X72149500Y-85788595D01*
X72115474Y-85726283D01*
X72120539Y-85655468D01*
X72163086Y-85598632D01*
X72229606Y-85573821D01*
X72238595Y-85573500D01*
X75512096Y-85573500D01*
X75580217Y-85593502D01*
X75625822Y-85645256D01*
X75653173Y-85702599D01*
X75653176Y-85702604D01*
X75655589Y-85707663D01*
X75781474Y-85882851D01*
X75812184Y-85912611D01*
X75924588Y-86021538D01*
X75936392Y-86032977D01*
X76115447Y-86153297D01*
X76312980Y-86240008D01*
X76522745Y-86290368D01*
X76605788Y-86295156D01*
X76732506Y-86302463D01*
X76732509Y-86302463D01*
X76738113Y-86302786D01*
X76830742Y-86291577D01*
X76946708Y-86277544D01*
X76946709Y-86277544D01*
X76952277Y-86276870D01*
X76957631Y-86275223D01*
X76957635Y-86275222D01*
X77153109Y-86215085D01*
X77153108Y-86215085D01*
X77158466Y-86213437D01*
X77313145Y-86133602D01*
X77345183Y-86117066D01*
X77345184Y-86117065D01*
X77350164Y-86114495D01*
X77440416Y-86045242D01*
X77516860Y-85986585D01*
X77516864Y-85986581D01*
X77521311Y-85983169D01*
X77612593Y-85882851D01*
X77662724Y-85827758D01*
X77662726Y-85827755D01*
X77666497Y-85823611D01*
X77727551Y-85726283D01*
X77778149Y-85645624D01*
X77778150Y-85645621D01*
X77781134Y-85640865D01*
X77781173Y-85640889D01*
X77828595Y-85590680D01*
X77892111Y-85573500D01*
X82270405Y-85573500D01*
X82338526Y-85593502D01*
X82359501Y-85610405D01*
X82557801Y-85808706D01*
X82591826Y-85871018D01*
X82593832Y-85912609D01*
X82582172Y-86011121D01*
X82595376Y-86212579D01*
X82596799Y-86218181D01*
X82643245Y-86401063D01*
X82645072Y-86408258D01*
X82729596Y-86591603D01*
X82846116Y-86756475D01*
X82906862Y-86815651D01*
X82975389Y-86882407D01*
X82990730Y-86897352D01*
X82995526Y-86900557D01*
X82995529Y-86900559D01*
X83094005Y-86966358D01*
X83158596Y-87009516D01*
X83163899Y-87011794D01*
X83163902Y-87011796D01*
X83299744Y-87070158D01*
X83344091Y-87089211D01*
X83422786Y-87107018D01*
X83535367Y-87132493D01*
X83535370Y-87132493D01*
X83541003Y-87133768D01*
X83546774Y-87133995D01*
X83546776Y-87133995D01*
X83608601Y-87136424D01*
X83742737Y-87141694D01*
X83865087Y-87123954D01*
X83934196Y-87113934D01*
X84004482Y-87123954D01*
X84058193Y-87170383D01*
X84078276Y-87238480D01*
X84058355Y-87306625D01*
X84041379Y-87327716D01*
X83919620Y-87449475D01*
X83857310Y-87483499D01*
X83811799Y-87483904D01*
X83811729Y-87484568D01*
X83805980Y-87483964D01*
X83800316Y-87482837D01*
X83794542Y-87482761D01*
X83794538Y-87482761D01*
X83692358Y-87481424D01*
X83598443Y-87480195D01*
X83592746Y-87481174D01*
X83592745Y-87481174D01*
X83500085Y-87497096D01*
X83399469Y-87514385D01*
X83210058Y-87584262D01*
X83205097Y-87587214D01*
X83205096Y-87587214D01*
X83084673Y-87658859D01*
X83036552Y-87687488D01*
X82884763Y-87820603D01*
X82759774Y-87979151D01*
X82757085Y-87984262D01*
X82757083Y-87984265D01*
X82719823Y-88055085D01*
X82665771Y-88157821D01*
X82605902Y-88350631D01*
X82582172Y-88551121D01*
X82595376Y-88752579D01*
X82645072Y-88948258D01*
X82729596Y-89131603D01*
X82846116Y-89296475D01*
X82990730Y-89437352D01*
X82995529Y-89440559D01*
X83000021Y-89444196D01*
X82999302Y-89445084D01*
X83041033Y-89495025D01*
X83051500Y-89545306D01*
X83051500Y-90157289D01*
X83031498Y-90225410D01*
X83008580Y-90252019D01*
X82884763Y-90360603D01*
X82759774Y-90519151D01*
X82757085Y-90524262D01*
X82757083Y-90524265D01*
X82709589Y-90614537D01*
X82665771Y-90697821D01*
X82605902Y-90890631D01*
X82582172Y-91091121D01*
X82595376Y-91292579D01*
X82596799Y-91298181D01*
X82638697Y-91463155D01*
X82645072Y-91488258D01*
X82729596Y-91671603D01*
X82846116Y-91836475D01*
X82850250Y-91840502D01*
X82980110Y-91967006D01*
X82990730Y-91977352D01*
X82995526Y-91980557D01*
X82995529Y-91980559D01*
X83078057Y-92035702D01*
X83158596Y-92089516D01*
X83163899Y-92091794D01*
X83163902Y-92091796D01*
X83338784Y-92166931D01*
X83344091Y-92169211D01*
X83439800Y-92190868D01*
X83535367Y-92212493D01*
X83535370Y-92212493D01*
X83541003Y-92213768D01*
X83546774Y-92213995D01*
X83546776Y-92213995D01*
X83608601Y-92216424D01*
X83742737Y-92221694D01*
X83842638Y-92207209D01*
X83936824Y-92193553D01*
X83936829Y-92193552D01*
X83942538Y-92192724D01*
X83948002Y-92190869D01*
X83948007Y-92190868D01*
X84128246Y-92129685D01*
X84133714Y-92127829D01*
X84302151Y-92033500D01*
X84304826Y-92032002D01*
X84304827Y-92032001D01*
X84309863Y-92029181D01*
X84359864Y-91987595D01*
X84460651Y-91903771D01*
X84465084Y-91900084D01*
X84517988Y-91836475D01*
X84590490Y-91749301D01*
X84590490Y-91749300D01*
X84594181Y-91744863D01*
X84692829Y-91568714D01*
X84722042Y-91482656D01*
X84755868Y-91383007D01*
X84755869Y-91383002D01*
X84757724Y-91377538D01*
X84758552Y-91371829D01*
X84758553Y-91371824D01*
X84786161Y-91181411D01*
X84786694Y-91177737D01*
X84788206Y-91120000D01*
X84769733Y-90918957D01*
X84714932Y-90724646D01*
X84625638Y-90543576D01*
X84516588Y-90397540D01*
X84508295Y-90386435D01*
X84508294Y-90386434D01*
X84504842Y-90381811D01*
X84477789Y-90356803D01*
X84374909Y-90261703D01*
X84358971Y-90246970D01*
X84322526Y-90186042D01*
X84318500Y-90154445D01*
X84318500Y-89541088D01*
X84338502Y-89472967D01*
X84363930Y-89444214D01*
X84460651Y-89363771D01*
X84465084Y-89360084D01*
X84517988Y-89296475D01*
X84590490Y-89209301D01*
X84590490Y-89209300D01*
X84594181Y-89204863D01*
X84692829Y-89028714D01*
X84732513Y-88911808D01*
X84755868Y-88843007D01*
X84755869Y-88843002D01*
X84757724Y-88837538D01*
X84758552Y-88831829D01*
X84758553Y-88831824D01*
X84786161Y-88641411D01*
X84786694Y-88637737D01*
X84788206Y-88580000D01*
X84776168Y-88448984D01*
X84789853Y-88379318D01*
X84812544Y-88348360D01*
X85541252Y-87619653D01*
X86272253Y-86888652D01*
X86280539Y-86881112D01*
X86287018Y-86877000D01*
X86297289Y-86866063D01*
X86333643Y-86827349D01*
X86336398Y-86824507D01*
X86356135Y-86804770D01*
X86358615Y-86801573D01*
X86366320Y-86792551D01*
X86391159Y-86766100D01*
X86396586Y-86760321D01*
X86400405Y-86753375D01*
X86400407Y-86753372D01*
X86406348Y-86742566D01*
X86417199Y-86726047D01*
X86424758Y-86716301D01*
X86429614Y-86710041D01*
X86432759Y-86702772D01*
X86432762Y-86702768D01*
X86447174Y-86669463D01*
X86452391Y-86658813D01*
X86473695Y-86620060D01*
X86478733Y-86600437D01*
X86485137Y-86581734D01*
X86490033Y-86570420D01*
X86490033Y-86570419D01*
X86493181Y-86563145D01*
X86494420Y-86555322D01*
X86494423Y-86555312D01*
X86500099Y-86519476D01*
X86502505Y-86507856D01*
X86511528Y-86472711D01*
X86511528Y-86472710D01*
X86513500Y-86465030D01*
X86513500Y-86444776D01*
X86515051Y-86425065D01*
X86516980Y-86412886D01*
X86518220Y-86405057D01*
X86514059Y-86361038D01*
X86513500Y-86349181D01*
X86513500Y-65820427D01*
X86533502Y-65752306D01*
X86574618Y-65712550D01*
X86577994Y-65710896D01*
X86759860Y-65581173D01*
X86918096Y-65423489D01*
X86977594Y-65340689D01*
X87048453Y-65242077D01*
X87049776Y-65243028D01*
X87096645Y-65199857D01*
X87166580Y-65187625D01*
X87232026Y-65215144D01*
X87259875Y-65246994D01*
X87319987Y-65345088D01*
X87466250Y-65513938D01*
X87638126Y-65656632D01*
X87642593Y-65659242D01*
X87724070Y-65706853D01*
X87772794Y-65758491D01*
X87786500Y-65815641D01*
X87786500Y-84981233D01*
X87785973Y-84992416D01*
X87784298Y-84999909D01*
X87784547Y-85007835D01*
X87784547Y-85007836D01*
X87786438Y-85067986D01*
X87786500Y-85071945D01*
X87786500Y-85099856D01*
X87786997Y-85103790D01*
X87786997Y-85103791D01*
X87787005Y-85103856D01*
X87787938Y-85115693D01*
X87789327Y-85159889D01*
X87794861Y-85178937D01*
X87794978Y-85179339D01*
X87798987Y-85198700D01*
X87801526Y-85218797D01*
X87804445Y-85226168D01*
X87804445Y-85226170D01*
X87817804Y-85259912D01*
X87821649Y-85271142D01*
X87829278Y-85297402D01*
X87833982Y-85313593D01*
X87838015Y-85320412D01*
X87838017Y-85320417D01*
X87844293Y-85331028D01*
X87852988Y-85348776D01*
X87860448Y-85367617D01*
X87865110Y-85374033D01*
X87865110Y-85374034D01*
X87886436Y-85403387D01*
X87892952Y-85413307D01*
X87911302Y-85444334D01*
X87915458Y-85451362D01*
X87929779Y-85465683D01*
X87942619Y-85480716D01*
X87954528Y-85497107D01*
X87982582Y-85520315D01*
X87988605Y-85525298D01*
X87997384Y-85533288D01*
X90812800Y-88348705D01*
X90846826Y-88411017D01*
X90848832Y-88452608D01*
X90837172Y-88551121D01*
X90850376Y-88752579D01*
X90900072Y-88948258D01*
X90984596Y-89131603D01*
X91101116Y-89296475D01*
X91245730Y-89437352D01*
X91250529Y-89440559D01*
X91255021Y-89444196D01*
X91254302Y-89445084D01*
X91296033Y-89495025D01*
X91306500Y-89545306D01*
X91306500Y-90157289D01*
X91286498Y-90225410D01*
X91263580Y-90252019D01*
X91139763Y-90360603D01*
X91014774Y-90519151D01*
X91012085Y-90524262D01*
X91012083Y-90524265D01*
X90964589Y-90614537D01*
X90920771Y-90697821D01*
X90860902Y-90890631D01*
X90837172Y-91091121D01*
X90850376Y-91292579D01*
X90851799Y-91298181D01*
X90893697Y-91463155D01*
X90900072Y-91488258D01*
X90984596Y-91671603D01*
X91101116Y-91836475D01*
X91105250Y-91840502D01*
X91235110Y-91967006D01*
X91245730Y-91977352D01*
X91250526Y-91980557D01*
X91250529Y-91980559D01*
X91333057Y-92035702D01*
X91413596Y-92089516D01*
X91418899Y-92091794D01*
X91418902Y-92091796D01*
X91593784Y-92166931D01*
X91599091Y-92169211D01*
X91694800Y-92190868D01*
X91790367Y-92212493D01*
X91790370Y-92212493D01*
X91796003Y-92213768D01*
X91801774Y-92213995D01*
X91801776Y-92213995D01*
X91863601Y-92216424D01*
X91997737Y-92221694D01*
X92097638Y-92207209D01*
X92191824Y-92193553D01*
X92191829Y-92193552D01*
X92197538Y-92192724D01*
X92203002Y-92190869D01*
X92203007Y-92190868D01*
X92383246Y-92129685D01*
X92388714Y-92127829D01*
X92557151Y-92033500D01*
X92559826Y-92032002D01*
X92559827Y-92032001D01*
X92564863Y-92029181D01*
X92614864Y-91987595D01*
X92715651Y-91903771D01*
X92720084Y-91900084D01*
X92772988Y-91836475D01*
X92845490Y-91749301D01*
X92845490Y-91749300D01*
X92849181Y-91744863D01*
X92947829Y-91568714D01*
X92977042Y-91482656D01*
X93010868Y-91383007D01*
X93010869Y-91383002D01*
X93012724Y-91377538D01*
X93013552Y-91371829D01*
X93013553Y-91371824D01*
X93041161Y-91181411D01*
X93041694Y-91177737D01*
X93043206Y-91120000D01*
X93024733Y-90918957D01*
X92969932Y-90724646D01*
X92880638Y-90543576D01*
X92771588Y-90397540D01*
X92763295Y-90386435D01*
X92763294Y-90386434D01*
X92759842Y-90381811D01*
X92732789Y-90356803D01*
X92629909Y-90261703D01*
X92613971Y-90246970D01*
X92577526Y-90186042D01*
X92573500Y-90154445D01*
X92573500Y-89541088D01*
X92593502Y-89472967D01*
X92618930Y-89444214D01*
X92715651Y-89363771D01*
X92720084Y-89360084D01*
X92772988Y-89296475D01*
X92845490Y-89209301D01*
X92845490Y-89209300D01*
X92849181Y-89204863D01*
X92947829Y-89028714D01*
X92987513Y-88911808D01*
X93010868Y-88843007D01*
X93010869Y-88843002D01*
X93012724Y-88837538D01*
X93013552Y-88831829D01*
X93013553Y-88831824D01*
X93041161Y-88641411D01*
X93041694Y-88637737D01*
X93043206Y-88580000D01*
X93024733Y-88378957D01*
X92969932Y-88184646D01*
X92880638Y-88003576D01*
X92854552Y-87968642D01*
X92763295Y-87846435D01*
X92763294Y-87846434D01*
X92759842Y-87841811D01*
X92739675Y-87823169D01*
X92615830Y-87708688D01*
X92615828Y-87708686D01*
X92611589Y-87704768D01*
X92603579Y-87699714D01*
X92445725Y-87600115D01*
X92445724Y-87600115D01*
X92440845Y-87597036D01*
X92253327Y-87522224D01*
X92247667Y-87521098D01*
X92247663Y-87521097D01*
X92060983Y-87483964D01*
X92060980Y-87483964D01*
X92055316Y-87482837D01*
X92049541Y-87482761D01*
X92049537Y-87482761D01*
X91949014Y-87481446D01*
X91853443Y-87480195D01*
X91847746Y-87481174D01*
X91847745Y-87481174D01*
X91817605Y-87486353D01*
X91747081Y-87478176D01*
X91707172Y-87451268D01*
X91579012Y-87323108D01*
X91544986Y-87260796D01*
X91550051Y-87189981D01*
X91592598Y-87133145D01*
X91659118Y-87108334D01*
X91695914Y-87111120D01*
X91734614Y-87119877D01*
X91790367Y-87132493D01*
X91790370Y-87132493D01*
X91796003Y-87133768D01*
X91801774Y-87133995D01*
X91801776Y-87133995D01*
X91863601Y-87136424D01*
X91997737Y-87141694D01*
X92120087Y-87123954D01*
X92191824Y-87113553D01*
X92191829Y-87113552D01*
X92197538Y-87112724D01*
X92203002Y-87110869D01*
X92203007Y-87110868D01*
X92383246Y-87049685D01*
X92388714Y-87047829D01*
X92564863Y-86949181D01*
X92587978Y-86929956D01*
X92715651Y-86823771D01*
X92720084Y-86820084D01*
X92745105Y-86790000D01*
X92804214Y-86718930D01*
X92863152Y-86679346D01*
X92901088Y-86673500D01*
X97365500Y-86673500D01*
X97433621Y-86693502D01*
X97480114Y-86747158D01*
X97491500Y-86799500D01*
X97491500Y-86984735D01*
X97491749Y-86987522D01*
X97491749Y-86987528D01*
X97493745Y-87009892D01*
X97505792Y-87144872D01*
X97535889Y-87254890D01*
X97557412Y-87333562D01*
X97562716Y-87352952D01*
X97655589Y-87547663D01*
X97781474Y-87722851D01*
X97829268Y-87769167D01*
X97923352Y-87860340D01*
X97936392Y-87872977D01*
X98115447Y-87993297D01*
X98120593Y-87995556D01*
X98120595Y-87995557D01*
X98138863Y-88003576D01*
X98312980Y-88080008D01*
X98522745Y-88130368D01*
X98605788Y-88135156D01*
X98732506Y-88142463D01*
X98732509Y-88142463D01*
X98738113Y-88142786D01*
X98755467Y-88140686D01*
X98946708Y-88117544D01*
X98946709Y-88117544D01*
X98952277Y-88116870D01*
X98957631Y-88115223D01*
X98957635Y-88115222D01*
X99153109Y-88055085D01*
X99153108Y-88055085D01*
X99158466Y-88053437D01*
X99316293Y-87971977D01*
X99345183Y-87957066D01*
X99345184Y-87957065D01*
X99350164Y-87954495D01*
X99472869Y-87860340D01*
X99516860Y-87826585D01*
X99516864Y-87826581D01*
X99521311Y-87823169D01*
X99615823Y-87719301D01*
X99662724Y-87667758D01*
X99662726Y-87667755D01*
X99666497Y-87663611D01*
X99708260Y-87597036D01*
X99778149Y-87485624D01*
X99778150Y-87485621D01*
X99781134Y-87480865D01*
X99781173Y-87480889D01*
X99828595Y-87430680D01*
X99892111Y-87413500D01*
X101251233Y-87413500D01*
X101262416Y-87414027D01*
X101269909Y-87415702D01*
X101277835Y-87415453D01*
X101277836Y-87415453D01*
X101337986Y-87413562D01*
X101341945Y-87413500D01*
X101369856Y-87413500D01*
X101373791Y-87413003D01*
X101373856Y-87412995D01*
X101385693Y-87412062D01*
X101417951Y-87411048D01*
X101421970Y-87410922D01*
X101429889Y-87410673D01*
X101449343Y-87405021D01*
X101468700Y-87401013D01*
X101480930Y-87399468D01*
X101480931Y-87399468D01*
X101488797Y-87398474D01*
X101496168Y-87395555D01*
X101496170Y-87395555D01*
X101529912Y-87382196D01*
X101541142Y-87378351D01*
X101575983Y-87368229D01*
X101575984Y-87368229D01*
X101583593Y-87366018D01*
X101590412Y-87361985D01*
X101590417Y-87361983D01*
X101601028Y-87355707D01*
X101618776Y-87347012D01*
X101637617Y-87339552D01*
X101649496Y-87330922D01*
X101673387Y-87313564D01*
X101683307Y-87307048D01*
X101714535Y-87288580D01*
X101714538Y-87288578D01*
X101721362Y-87284542D01*
X101735683Y-87270221D01*
X101750717Y-87257380D01*
X101760694Y-87250131D01*
X101767107Y-87245472D01*
X101795298Y-87211395D01*
X101803288Y-87202616D01*
X105468461Y-83537443D01*
X105530773Y-83503417D01*
X105579437Y-83502452D01*
X105584029Y-83503262D01*
X105589345Y-83504686D01*
X105800000Y-83523116D01*
X106010655Y-83504686D01*
X106015968Y-83503262D01*
X106015970Y-83503262D01*
X106209600Y-83451379D01*
X106209602Y-83451378D01*
X106214910Y-83449956D01*
X106219892Y-83447633D01*
X106401577Y-83362912D01*
X106401580Y-83362910D01*
X106406558Y-83360589D01*
X106579776Y-83239301D01*
X106729301Y-83089776D01*
X106850589Y-82916558D01*
X106856322Y-82904265D01*
X106937633Y-82729892D01*
X106937634Y-82729891D01*
X106939956Y-82724910D01*
X106942565Y-82715175D01*
X106993262Y-82525970D01*
X106993262Y-82525968D01*
X106994686Y-82520655D01*
X107013116Y-82310000D01*
X106994686Y-82099345D01*
X106989090Y-82078461D01*
X106941379Y-81900400D01*
X106941378Y-81900398D01*
X106939956Y-81895090D01*
X106929190Y-81872002D01*
X106852912Y-81708423D01*
X106852910Y-81708420D01*
X106850589Y-81703442D01*
X106729301Y-81530224D01*
X106579776Y-81380699D01*
X106406558Y-81259411D01*
X106401580Y-81257090D01*
X106401577Y-81257088D01*
X106372855Y-81243695D01*
X106319570Y-81196778D01*
X106300109Y-81128500D01*
X106320651Y-81060540D01*
X106374674Y-81014475D01*
X106426105Y-81003500D01*
X109345406Y-81003500D01*
X109413527Y-81023502D01*
X109434501Y-81040405D01*
X110472557Y-82078461D01*
X110506583Y-82140773D01*
X110507548Y-82189437D01*
X110506738Y-82194029D01*
X110505314Y-82199345D01*
X110486884Y-82410000D01*
X110505314Y-82620655D01*
X110506738Y-82625968D01*
X110506738Y-82625970D01*
X110547879Y-82779508D01*
X110560044Y-82824910D01*
X110562366Y-82829891D01*
X110562367Y-82829892D01*
X110646358Y-83010010D01*
X110649411Y-83016558D01*
X110770699Y-83189776D01*
X110920224Y-83339301D01*
X111093442Y-83460589D01*
X111098420Y-83462910D01*
X111098423Y-83462912D01*
X111280108Y-83547633D01*
X111285090Y-83549956D01*
X111290398Y-83551378D01*
X111290400Y-83551379D01*
X111484030Y-83603262D01*
X111484032Y-83603262D01*
X111489345Y-83604686D01*
X111700000Y-83623116D01*
X111910655Y-83604686D01*
X111915968Y-83603262D01*
X111915970Y-83603262D01*
X112109600Y-83551379D01*
X112109602Y-83551378D01*
X112114910Y-83549956D01*
X112119892Y-83547633D01*
X112301577Y-83462912D01*
X112301580Y-83462910D01*
X112306558Y-83460589D01*
X112479776Y-83339301D01*
X112629301Y-83189776D01*
X112694102Y-83097230D01*
X112749559Y-83052901D01*
X112797315Y-83043500D01*
X117151233Y-83043500D01*
X117162416Y-83044027D01*
X117169909Y-83045702D01*
X117177835Y-83045453D01*
X117177836Y-83045453D01*
X117237986Y-83043562D01*
X117241945Y-83043500D01*
X117269856Y-83043500D01*
X117273791Y-83043003D01*
X117273856Y-83042995D01*
X117285693Y-83042062D01*
X117317951Y-83041048D01*
X117321970Y-83040922D01*
X117329889Y-83040673D01*
X117349343Y-83035021D01*
X117368700Y-83031013D01*
X117380930Y-83029468D01*
X117380931Y-83029468D01*
X117388797Y-83028474D01*
X117396168Y-83025555D01*
X117396170Y-83025555D01*
X117429912Y-83012196D01*
X117441142Y-83008351D01*
X117475983Y-82998229D01*
X117475984Y-82998229D01*
X117483593Y-82996018D01*
X117490412Y-82991985D01*
X117490417Y-82991983D01*
X117501028Y-82985707D01*
X117518776Y-82977012D01*
X117537617Y-82969552D01*
X117573387Y-82943564D01*
X117583307Y-82937048D01*
X117614535Y-82918580D01*
X117614538Y-82918578D01*
X117621362Y-82914542D01*
X117635683Y-82900221D01*
X117650717Y-82887380D01*
X117660694Y-82880131D01*
X117667107Y-82875472D01*
X117695298Y-82841395D01*
X117703288Y-82832616D01*
X119249307Y-81286597D01*
X119311619Y-81252571D01*
X119367816Y-81253173D01*
X119507038Y-81286597D01*
X119522745Y-81290368D01*
X119605788Y-81295156D01*
X119732506Y-81302463D01*
X119732509Y-81302463D01*
X119738113Y-81302786D01*
X119755467Y-81300686D01*
X119946708Y-81277544D01*
X119946709Y-81277544D01*
X119952277Y-81276870D01*
X119957631Y-81275223D01*
X119957635Y-81275222D01*
X120147736Y-81216738D01*
X120158466Y-81213437D01*
X120350164Y-81114495D01*
X120430213Y-81053071D01*
X120516860Y-80986585D01*
X120516864Y-80986581D01*
X120521311Y-80983169D01*
X120666497Y-80823611D01*
X120696340Y-80776037D01*
X120778151Y-80645621D01*
X120778153Y-80645617D01*
X120781134Y-80640865D01*
X120861597Y-80440707D01*
X120905344Y-80229463D01*
X120908500Y-80174725D01*
X120908500Y-79735265D01*
X120906498Y-79712826D01*
X120900223Y-79642526D01*
X120894208Y-79575128D01*
X120855622Y-79434079D01*
X120838766Y-79372464D01*
X120838765Y-79372460D01*
X120837284Y-79367048D01*
X120744411Y-79172337D01*
X120618526Y-78997149D01*
X120536373Y-78917537D01*
X120467636Y-78850926D01*
X120467633Y-78850924D01*
X120463608Y-78847023D01*
X120284553Y-78726703D01*
X120087020Y-78639992D01*
X119912864Y-78598181D01*
X119882712Y-78590942D01*
X119882711Y-78590942D01*
X119877255Y-78589632D01*
X119794212Y-78584844D01*
X119667494Y-78577537D01*
X119667491Y-78577537D01*
X119661887Y-78577214D01*
X119656309Y-78577889D01*
X119453292Y-78602456D01*
X119453291Y-78602456D01*
X119447723Y-78603130D01*
X119442369Y-78604777D01*
X119442365Y-78604778D01*
X119272355Y-78657081D01*
X119241534Y-78666563D01*
X119049836Y-78765505D01*
X119013346Y-78793505D01*
X118883140Y-78893415D01*
X118883136Y-78893419D01*
X118878689Y-78896831D01*
X118847651Y-78930942D01*
X118739953Y-79049301D01*
X118733503Y-79056389D01*
X118730522Y-79061141D01*
X118639879Y-79205638D01*
X118618866Y-79239135D01*
X118538403Y-79439293D01*
X118494656Y-79650537D01*
X118491500Y-79705275D01*
X118491500Y-80144735D01*
X118494340Y-80176548D01*
X118495103Y-80185101D01*
X118481236Y-80254731D01*
X118458697Y-80285398D01*
X117004500Y-81739595D01*
X116942188Y-81773621D01*
X116915405Y-81776500D01*
X112797315Y-81776500D01*
X112729194Y-81756498D01*
X112694102Y-81722770D01*
X112684056Y-81708423D01*
X112629301Y-81630224D01*
X112479776Y-81480699D01*
X112306558Y-81359411D01*
X112301580Y-81357090D01*
X112301577Y-81357088D01*
X112119892Y-81272367D01*
X112119891Y-81272366D01*
X112114910Y-81270044D01*
X112109602Y-81268622D01*
X112109600Y-81268621D01*
X111915970Y-81216738D01*
X111915968Y-81216738D01*
X111910655Y-81215314D01*
X111700000Y-81196884D01*
X111694525Y-81197363D01*
X111494816Y-81214835D01*
X111494812Y-81214836D01*
X111489345Y-81215314D01*
X111484039Y-81216736D01*
X111479439Y-81217547D01*
X111408879Y-81209679D01*
X111368462Y-81182557D01*
X110163652Y-79977747D01*
X110156112Y-79969461D01*
X110152000Y-79962982D01*
X110102348Y-79916356D01*
X110099507Y-79913602D01*
X110079770Y-79893865D01*
X110076573Y-79891385D01*
X110067551Y-79883680D01*
X110049256Y-79866500D01*
X110035321Y-79853414D01*
X110028375Y-79849595D01*
X110028372Y-79849593D01*
X110017566Y-79843652D01*
X110001047Y-79832801D01*
X109992739Y-79826357D01*
X109985041Y-79820386D01*
X109977772Y-79817241D01*
X109977768Y-79817238D01*
X109944463Y-79802826D01*
X109933813Y-79797609D01*
X109895060Y-79776305D01*
X109886391Y-79774079D01*
X109875438Y-79771267D01*
X109856734Y-79764863D01*
X109845420Y-79759967D01*
X109845419Y-79759967D01*
X109838145Y-79756819D01*
X109830322Y-79755580D01*
X109830312Y-79755577D01*
X109794476Y-79749901D01*
X109782856Y-79747495D01*
X109747711Y-79738472D01*
X109747710Y-79738472D01*
X109740030Y-79736500D01*
X109719776Y-79736500D01*
X109700065Y-79734949D01*
X109687886Y-79733020D01*
X109680057Y-79731780D01*
X109650786Y-79734547D01*
X109636039Y-79735941D01*
X109624181Y-79736500D01*
X92608767Y-79736500D01*
X92597584Y-79735973D01*
X92590091Y-79734298D01*
X92582165Y-79734547D01*
X92582164Y-79734547D01*
X92522014Y-79736438D01*
X92518055Y-79736500D01*
X92490144Y-79736500D01*
X92486210Y-79736997D01*
X92486209Y-79736997D01*
X92486144Y-79737005D01*
X92474307Y-79737938D01*
X92442049Y-79738952D01*
X92438030Y-79739078D01*
X92430111Y-79739327D01*
X92410657Y-79744979D01*
X92391300Y-79748987D01*
X92379070Y-79750532D01*
X92379069Y-79750532D01*
X92371203Y-79751526D01*
X92363832Y-79754445D01*
X92363830Y-79754445D01*
X92330088Y-79767804D01*
X92318858Y-79771649D01*
X92284017Y-79781771D01*
X92284016Y-79781771D01*
X92276407Y-79783982D01*
X92269588Y-79788015D01*
X92269583Y-79788017D01*
X92258972Y-79794293D01*
X92241224Y-79802988D01*
X92222383Y-79810448D01*
X92215967Y-79815110D01*
X92215966Y-79815110D01*
X92186613Y-79836436D01*
X92176697Y-79842950D01*
X92162453Y-79851373D01*
X92093639Y-79868834D01*
X92073731Y-79866500D01*
X92060982Y-79863964D01*
X92060981Y-79863964D01*
X92055316Y-79862837D01*
X92049542Y-79862761D01*
X92049538Y-79862761D01*
X91947358Y-79861424D01*
X91853443Y-79860195D01*
X91847746Y-79861174D01*
X91847745Y-79861174D01*
X91671887Y-79891392D01*
X91654469Y-79894385D01*
X91465058Y-79964262D01*
X91460097Y-79967214D01*
X91460096Y-79967214D01*
X91325823Y-80047099D01*
X91291552Y-80067488D01*
X91139763Y-80200603D01*
X91014774Y-80359151D01*
X91012085Y-80364262D01*
X91012083Y-80364265D01*
X90974759Y-80435206D01*
X90920771Y-80537821D01*
X90860902Y-80730631D01*
X90837172Y-80931121D01*
X90850376Y-81132579D01*
X90871646Y-81216329D01*
X90897352Y-81317547D01*
X90900072Y-81328258D01*
X90984596Y-81511603D01*
X91101116Y-81676475D01*
X91245730Y-81817352D01*
X91250526Y-81820557D01*
X91250529Y-81820559D01*
X91362074Y-81895090D01*
X91413596Y-81929516D01*
X91418899Y-81931794D01*
X91418902Y-81931796D01*
X91593784Y-82006931D01*
X91599091Y-82009211D01*
X91694800Y-82030868D01*
X91790367Y-82052493D01*
X91790370Y-82052493D01*
X91796003Y-82053768D01*
X91801774Y-82053995D01*
X91801776Y-82053995D01*
X91863601Y-82056424D01*
X91997737Y-82061694D01*
X92097637Y-82047209D01*
X92191824Y-82033553D01*
X92191829Y-82033552D01*
X92197538Y-82032724D01*
X92203002Y-82030869D01*
X92203007Y-82030868D01*
X92345670Y-81982440D01*
X92388714Y-81967829D01*
X92564863Y-81869181D01*
X92676299Y-81776500D01*
X92715651Y-81743771D01*
X92720084Y-81740084D01*
X92772988Y-81676475D01*
X92845490Y-81589301D01*
X92845490Y-81589300D01*
X92849181Y-81584863D01*
X92862434Y-81561199D01*
X92894658Y-81503657D01*
X92947829Y-81408714D01*
X92976232Y-81325041D01*
X93010868Y-81223007D01*
X93010869Y-81223002D01*
X93012724Y-81217538D01*
X93025489Y-81129500D01*
X93028111Y-81111419D01*
X93057681Y-81046874D01*
X93117453Y-81008562D01*
X93152807Y-81003500D01*
X97366000Y-81003500D01*
X97434121Y-81023502D01*
X97480614Y-81077158D01*
X97492000Y-81129500D01*
X97492000Y-81427885D01*
X97496475Y-81443124D01*
X97497865Y-81444329D01*
X97505548Y-81446000D01*
X99889885Y-81446000D01*
X99905124Y-81441525D01*
X99906329Y-81440135D01*
X99908000Y-81432452D01*
X99908000Y-81129500D01*
X99928002Y-81061379D01*
X99981658Y-81014886D01*
X100034000Y-81003500D01*
X105173895Y-81003500D01*
X105242016Y-81023502D01*
X105288509Y-81077158D01*
X105298613Y-81147432D01*
X105269119Y-81212012D01*
X105227145Y-81243695D01*
X105198423Y-81257088D01*
X105198420Y-81257090D01*
X105193442Y-81259411D01*
X105020224Y-81380699D01*
X104870699Y-81530224D01*
X104749411Y-81703442D01*
X104747090Y-81708420D01*
X104747088Y-81708423D01*
X104670810Y-81872002D01*
X104660044Y-81895090D01*
X104658622Y-81900398D01*
X104658621Y-81900400D01*
X104610910Y-82078461D01*
X104605314Y-82099345D01*
X104586884Y-82310000D01*
X104587363Y-82315475D01*
X104604835Y-82515175D01*
X104605314Y-82520655D01*
X104606736Y-82525961D01*
X104607547Y-82530561D01*
X104599679Y-82601121D01*
X104572557Y-82641538D01*
X101104500Y-86109595D01*
X101042188Y-86143621D01*
X101015405Y-86146500D01*
X99887904Y-86146500D01*
X99819783Y-86126498D01*
X99774178Y-86074744D01*
X99746827Y-86017401D01*
X99746824Y-86017396D01*
X99744411Y-86012337D01*
X99618526Y-85837149D01*
X99484907Y-85707663D01*
X99467636Y-85690926D01*
X99467633Y-85690924D01*
X99463608Y-85687023D01*
X99291860Y-85571613D01*
X99289214Y-85569835D01*
X99289213Y-85569835D01*
X99284553Y-85566703D01*
X99273168Y-85561705D01*
X99178878Y-85520315D01*
X99087020Y-85479992D01*
X98898007Y-85434614D01*
X98882712Y-85430942D01*
X98882711Y-85430942D01*
X98877255Y-85429632D01*
X98794212Y-85424844D01*
X98667494Y-85417537D01*
X98667491Y-85417537D01*
X98661887Y-85417214D01*
X98447723Y-85443130D01*
X98333240Y-85478350D01*
X98262251Y-85479263D01*
X98246145Y-85473554D01*
X98244456Y-85472823D01*
X98233813Y-85467609D01*
X98195060Y-85446305D01*
X98185768Y-85443919D01*
X98175438Y-85441267D01*
X98156734Y-85434863D01*
X98145420Y-85429967D01*
X98145419Y-85429967D01*
X98138145Y-85426819D01*
X98130322Y-85425580D01*
X98130312Y-85425577D01*
X98094476Y-85419901D01*
X98082856Y-85417495D01*
X98047711Y-85408472D01*
X98047710Y-85408472D01*
X98040030Y-85406500D01*
X98019776Y-85406500D01*
X98000065Y-85404949D01*
X97987886Y-85403020D01*
X97980057Y-85401780D01*
X97972165Y-85402526D01*
X97936039Y-85405941D01*
X97924181Y-85406500D01*
X92901182Y-85406500D01*
X92833061Y-85386498D01*
X92800224Y-85355889D01*
X92763295Y-85306435D01*
X92763294Y-85306434D01*
X92759842Y-85301811D01*
X92755606Y-85297895D01*
X92615830Y-85168688D01*
X92615828Y-85168686D01*
X92611589Y-85164768D01*
X92591306Y-85151970D01*
X92445725Y-85060115D01*
X92445724Y-85060115D01*
X92440845Y-85057036D01*
X92253327Y-84982224D01*
X92247667Y-84981098D01*
X92247663Y-84981097D01*
X92060983Y-84943964D01*
X92060980Y-84943964D01*
X92055316Y-84942837D01*
X92049541Y-84942761D01*
X92049537Y-84942761D01*
X91949014Y-84941446D01*
X91853443Y-84940195D01*
X91847746Y-84941174D01*
X91847745Y-84941174D01*
X91753304Y-84957402D01*
X91654469Y-84974385D01*
X91465058Y-85044262D01*
X91460097Y-85047214D01*
X91460096Y-85047214D01*
X91354967Y-85109760D01*
X91291552Y-85147488D01*
X91139763Y-85280603D01*
X91014774Y-85439151D01*
X91012085Y-85444262D01*
X91012083Y-85444265D01*
X90987818Y-85490386D01*
X90920771Y-85617821D01*
X90860902Y-85810631D01*
X90837172Y-86011121D01*
X90850376Y-86212579D01*
X90851799Y-86218181D01*
X90851799Y-86218182D01*
X90867589Y-86280357D01*
X90864970Y-86351306D01*
X90824410Y-86409575D01*
X90758785Y-86436666D01*
X90688932Y-86423977D01*
X90656371Y-86400467D01*
X90402405Y-86146500D01*
X89090405Y-84834500D01*
X89056379Y-84772188D01*
X89053500Y-84745405D01*
X89053500Y-83471121D01*
X90837172Y-83471121D01*
X90850376Y-83672579D01*
X90858530Y-83704686D01*
X90890314Y-83829834D01*
X90900072Y-83868258D01*
X90984596Y-84051603D01*
X91101116Y-84216475D01*
X91245730Y-84357352D01*
X91250526Y-84360557D01*
X91250529Y-84360559D01*
X91322846Y-84408879D01*
X91413596Y-84469516D01*
X91418899Y-84471794D01*
X91418902Y-84471796D01*
X91523268Y-84516635D01*
X91599091Y-84549211D01*
X91694800Y-84570868D01*
X91790367Y-84592493D01*
X91790370Y-84592493D01*
X91796003Y-84593768D01*
X91801774Y-84593995D01*
X91801776Y-84593995D01*
X91863601Y-84596424D01*
X91997737Y-84601694D01*
X92097637Y-84587209D01*
X92191824Y-84573553D01*
X92191829Y-84573552D01*
X92197538Y-84572724D01*
X92203002Y-84570869D01*
X92203007Y-84570868D01*
X92383246Y-84509685D01*
X92388714Y-84507829D01*
X92519699Y-84434474D01*
X92559826Y-84412002D01*
X92559827Y-84412001D01*
X92564863Y-84409181D01*
X92668819Y-84322721D01*
X92715651Y-84283771D01*
X92720084Y-84280084D01*
X92758099Y-84234376D01*
X92804214Y-84178930D01*
X92863152Y-84139346D01*
X92901088Y-84133500D01*
X93091800Y-84133500D01*
X93159921Y-84153502D01*
X93179147Y-84169843D01*
X93179420Y-84169540D01*
X93184332Y-84173963D01*
X93188747Y-84178866D01*
X93210329Y-84194546D01*
X93333136Y-84283771D01*
X93343248Y-84291118D01*
X93349276Y-84293802D01*
X93349278Y-84293803D01*
X93511681Y-84366109D01*
X93517712Y-84368794D01*
X93611113Y-84388647D01*
X93698056Y-84407128D01*
X93698061Y-84407128D01*
X93704513Y-84408500D01*
X93895487Y-84408500D01*
X93901939Y-84407128D01*
X93901944Y-84407128D01*
X93988887Y-84388647D01*
X94082288Y-84368794D01*
X94088319Y-84366109D01*
X94250722Y-84293803D01*
X94250724Y-84293802D01*
X94256752Y-84291118D01*
X94278041Y-84275651D01*
X94365978Y-84211760D01*
X94411253Y-84178866D01*
X94539040Y-84036944D01*
X94617539Y-83900980D01*
X94631223Y-83877279D01*
X94631224Y-83877278D01*
X94634527Y-83871556D01*
X94693542Y-83689928D01*
X94695366Y-83672579D01*
X94712814Y-83506565D01*
X94713504Y-83500000D01*
X94699096Y-83362912D01*
X94694232Y-83316635D01*
X94694232Y-83316633D01*
X94693542Y-83310072D01*
X94634527Y-83128444D01*
X94624104Y-83110390D01*
X94585484Y-83043500D01*
X94539040Y-82963056D01*
X94521490Y-82943564D01*
X94415675Y-82826045D01*
X94415674Y-82826044D01*
X94411253Y-82821134D01*
X94256752Y-82708882D01*
X94250724Y-82706198D01*
X94250722Y-82706197D01*
X94088319Y-82633891D01*
X94088318Y-82633891D01*
X94082288Y-82631206D01*
X93988629Y-82611298D01*
X93901944Y-82592872D01*
X93901939Y-82592872D01*
X93895487Y-82591500D01*
X93704513Y-82591500D01*
X93698061Y-82592872D01*
X93698056Y-82592872D01*
X93611371Y-82611298D01*
X93517712Y-82631206D01*
X93511682Y-82633891D01*
X93511681Y-82633891D01*
X93349278Y-82706197D01*
X93349276Y-82706198D01*
X93343248Y-82708882D01*
X93188747Y-82821134D01*
X93184332Y-82826037D01*
X93179420Y-82830460D01*
X93178295Y-82829211D01*
X93124986Y-82862051D01*
X93091800Y-82866500D01*
X92901182Y-82866500D01*
X92833061Y-82846498D01*
X92800224Y-82815889D01*
X92763295Y-82766435D01*
X92763294Y-82766434D01*
X92759842Y-82761811D01*
X92741800Y-82745133D01*
X92615830Y-82628688D01*
X92615828Y-82628686D01*
X92611589Y-82624768D01*
X92596385Y-82615175D01*
X92445725Y-82520115D01*
X92445724Y-82520115D01*
X92440845Y-82517036D01*
X92253327Y-82442224D01*
X92247667Y-82441098D01*
X92247663Y-82441097D01*
X92060983Y-82403964D01*
X92060980Y-82403964D01*
X92055316Y-82402837D01*
X92049541Y-82402761D01*
X92049537Y-82402761D01*
X91949014Y-82401446D01*
X91853443Y-82400195D01*
X91847746Y-82401174D01*
X91847745Y-82401174D01*
X91660166Y-82433406D01*
X91654469Y-82434385D01*
X91465058Y-82504262D01*
X91460097Y-82507214D01*
X91460096Y-82507214D01*
X91362329Y-82565380D01*
X91291552Y-82607488D01*
X91139763Y-82740603D01*
X91014774Y-82899151D01*
X91012085Y-82904262D01*
X91012083Y-82904265D01*
X90973812Y-82977006D01*
X90920771Y-83077821D01*
X90860902Y-83270631D01*
X90837172Y-83471121D01*
X89053500Y-83471121D01*
X89053500Y-82347846D01*
X97492000Y-82347846D01*
X97492337Y-82354362D01*
X97502244Y-82449841D01*
X97505137Y-82463238D01*
X97556517Y-82617243D01*
X97562691Y-82630422D01*
X97647893Y-82768107D01*
X97656929Y-82779508D01*
X97771528Y-82893907D01*
X97782939Y-82902919D01*
X97920785Y-82987888D01*
X97933963Y-82994032D01*
X98088077Y-83045150D01*
X98101443Y-83048016D01*
X98195690Y-83057672D01*
X98202105Y-83058000D01*
X98427885Y-83058000D01*
X98443124Y-83053525D01*
X98444329Y-83052135D01*
X98446000Y-83044452D01*
X98446000Y-83039885D01*
X98954000Y-83039885D01*
X98958475Y-83055124D01*
X98959865Y-83056329D01*
X98967548Y-83058000D01*
X99197846Y-83058000D01*
X99204362Y-83057663D01*
X99299841Y-83047756D01*
X99313238Y-83044863D01*
X99467243Y-82993483D01*
X99480422Y-82987309D01*
X99618107Y-82902107D01*
X99629508Y-82893071D01*
X99743907Y-82778472D01*
X99752919Y-82767061D01*
X99837888Y-82629215D01*
X99844032Y-82616037D01*
X99895150Y-82461923D01*
X99898016Y-82448557D01*
X99907672Y-82354310D01*
X99908000Y-82347895D01*
X99908000Y-81972115D01*
X99903525Y-81956876D01*
X99902135Y-81955671D01*
X99894452Y-81954000D01*
X98972115Y-81954000D01*
X98956876Y-81958475D01*
X98955671Y-81959865D01*
X98954000Y-81967548D01*
X98954000Y-83039885D01*
X98446000Y-83039885D01*
X98446000Y-81972115D01*
X98441525Y-81956876D01*
X98440135Y-81955671D01*
X98432452Y-81954000D01*
X97510115Y-81954000D01*
X97494876Y-81958475D01*
X97493671Y-81959865D01*
X97492000Y-81967548D01*
X97492000Y-82347846D01*
X89053500Y-82347846D01*
X89053500Y-65820427D01*
X89073502Y-65752306D01*
X89114618Y-65712550D01*
X89117994Y-65710896D01*
X89299860Y-65581173D01*
X89458096Y-65423489D01*
X89517594Y-65340689D01*
X89588453Y-65242077D01*
X89589776Y-65243028D01*
X89636645Y-65199857D01*
X89706580Y-65187625D01*
X89772026Y-65215144D01*
X89799875Y-65246994D01*
X89859987Y-65345088D01*
X90006250Y-65513938D01*
X90178126Y-65656632D01*
X90182593Y-65659242D01*
X90264070Y-65706853D01*
X90312794Y-65758491D01*
X90326500Y-65815641D01*
X90326500Y-74821233D01*
X90325973Y-74832416D01*
X90324298Y-74839909D01*
X90324547Y-74847835D01*
X90324547Y-74847836D01*
X90326438Y-74907986D01*
X90326500Y-74911945D01*
X90326500Y-74939856D01*
X90326997Y-74943790D01*
X90326997Y-74943791D01*
X90327005Y-74943856D01*
X90327938Y-74955693D01*
X90329327Y-74999889D01*
X90334978Y-75019339D01*
X90338987Y-75038700D01*
X90339568Y-75043295D01*
X90341526Y-75058797D01*
X90344445Y-75066168D01*
X90344445Y-75066170D01*
X90357804Y-75099912D01*
X90361649Y-75111142D01*
X90364183Y-75119865D01*
X90373982Y-75153593D01*
X90378015Y-75160412D01*
X90378017Y-75160417D01*
X90384293Y-75171028D01*
X90392988Y-75188776D01*
X90400448Y-75207617D01*
X90405110Y-75214033D01*
X90405110Y-75214034D01*
X90426436Y-75243387D01*
X90432952Y-75253307D01*
X90455458Y-75291362D01*
X90469779Y-75305683D01*
X90482619Y-75320716D01*
X90494528Y-75337107D01*
X90528473Y-75365189D01*
X90528605Y-75365298D01*
X90537384Y-75373288D01*
X90812800Y-75648704D01*
X90846826Y-75711016D01*
X90848832Y-75752608D01*
X90837172Y-75851121D01*
X90850376Y-76052579D01*
X90900072Y-76248258D01*
X90984596Y-76431603D01*
X91101116Y-76596475D01*
X91245730Y-76737352D01*
X91250529Y-76740559D01*
X91255021Y-76744196D01*
X91254302Y-76745084D01*
X91296033Y-76795025D01*
X91306500Y-76845306D01*
X91306500Y-77457289D01*
X91286498Y-77525410D01*
X91263580Y-77552019D01*
X91139763Y-77660603D01*
X91014774Y-77819151D01*
X91012085Y-77824262D01*
X91012083Y-77824265D01*
X90964589Y-77914537D01*
X90920771Y-77997821D01*
X90860902Y-78190631D01*
X90837172Y-78391121D01*
X90850376Y-78592579D01*
X90870502Y-78671824D01*
X90898100Y-78780492D01*
X90900072Y-78788258D01*
X90984596Y-78971603D01*
X91101116Y-79136475D01*
X91105250Y-79140502D01*
X91178803Y-79212154D01*
X91245730Y-79277352D01*
X91250526Y-79280557D01*
X91250529Y-79280559D01*
X91335223Y-79337149D01*
X91413596Y-79389516D01*
X91418899Y-79391794D01*
X91418902Y-79391796D01*
X91517319Y-79434079D01*
X91599091Y-79469211D01*
X91694800Y-79490868D01*
X91790367Y-79512493D01*
X91790370Y-79512493D01*
X91796003Y-79513768D01*
X91801774Y-79513995D01*
X91801776Y-79513995D01*
X91863601Y-79516424D01*
X91997737Y-79521694D01*
X92097637Y-79507209D01*
X92191824Y-79493553D01*
X92191829Y-79493552D01*
X92197538Y-79492724D01*
X92203002Y-79490869D01*
X92203007Y-79490868D01*
X92383246Y-79429685D01*
X92388714Y-79427829D01*
X92506291Y-79361983D01*
X92559826Y-79332002D01*
X92559827Y-79332001D01*
X92564863Y-79329181D01*
X92705572Y-79212154D01*
X92715651Y-79203771D01*
X92720084Y-79200084D01*
X92772988Y-79136475D01*
X92845490Y-79049301D01*
X92845490Y-79049300D01*
X92849181Y-79044863D01*
X92947829Y-78868714D01*
X92977042Y-78782656D01*
X93010868Y-78683007D01*
X93010869Y-78683002D01*
X93012724Y-78677538D01*
X93013552Y-78671829D01*
X93013553Y-78671824D01*
X93035549Y-78520115D01*
X93041694Y-78477737D01*
X93043206Y-78420000D01*
X93024733Y-78218957D01*
X92969932Y-78024646D01*
X92880638Y-77843576D01*
X92759842Y-77681811D01*
X92732789Y-77656803D01*
X92613971Y-77546970D01*
X92577526Y-77486042D01*
X92573500Y-77454445D01*
X92573500Y-76841088D01*
X92593502Y-76772967D01*
X92618930Y-76744214D01*
X92715651Y-76663771D01*
X92720084Y-76660084D01*
X92772988Y-76596475D01*
X92845490Y-76509301D01*
X92845490Y-76509300D01*
X92849181Y-76504863D01*
X92858688Y-76487888D01*
X92945009Y-76333749D01*
X92947829Y-76328714D01*
X92985411Y-76218000D01*
X93010868Y-76143007D01*
X93010869Y-76143002D01*
X93012724Y-76137538D01*
X93013552Y-76131829D01*
X93013553Y-76131824D01*
X93035093Y-75983262D01*
X93041694Y-75937737D01*
X93043206Y-75880000D01*
X93024733Y-75678957D01*
X92969932Y-75484646D01*
X92880638Y-75303576D01*
X92875398Y-75296558D01*
X92763295Y-75146435D01*
X92763294Y-75146434D01*
X92759842Y-75141811D01*
X92749353Y-75132115D01*
X92615830Y-75008688D01*
X92615828Y-75008686D01*
X92611589Y-75004768D01*
X92518448Y-74946000D01*
X92445725Y-74900115D01*
X92445724Y-74900115D01*
X92440845Y-74897036D01*
X92253327Y-74822224D01*
X92247667Y-74821098D01*
X92247663Y-74821097D01*
X92060983Y-74783964D01*
X92060980Y-74783964D01*
X92055316Y-74782837D01*
X92049541Y-74782761D01*
X92049537Y-74782761D01*
X91949014Y-74781446D01*
X91853443Y-74780195D01*
X91817607Y-74786353D01*
X91747083Y-74778176D01*
X91707173Y-74751268D01*
X91645905Y-74690000D01*
X104586884Y-74690000D01*
X104605314Y-74900655D01*
X104606738Y-74905968D01*
X104606738Y-74905970D01*
X104657436Y-75095175D01*
X104660044Y-75104910D01*
X104662366Y-75109891D01*
X104662367Y-75109892D01*
X104743805Y-75284535D01*
X104749411Y-75296558D01*
X104870699Y-75469776D01*
X105020224Y-75619301D01*
X105193442Y-75740589D01*
X105198420Y-75742910D01*
X105198423Y-75742912D01*
X105380108Y-75827633D01*
X105385090Y-75829956D01*
X105390398Y-75831378D01*
X105390400Y-75831379D01*
X105584030Y-75883262D01*
X105584032Y-75883262D01*
X105589345Y-75884686D01*
X105800000Y-75903116D01*
X106010655Y-75884686D01*
X106015968Y-75883262D01*
X106015970Y-75883262D01*
X106209600Y-75831379D01*
X106209602Y-75831378D01*
X106214910Y-75829956D01*
X106219892Y-75827633D01*
X106401577Y-75742912D01*
X106401580Y-75742910D01*
X106406558Y-75740589D01*
X106579776Y-75619301D01*
X106729301Y-75469776D01*
X106850589Y-75296558D01*
X106856196Y-75284535D01*
X106937633Y-75109892D01*
X106937634Y-75109891D01*
X106939956Y-75104910D01*
X106942565Y-75095175D01*
X106993262Y-74905970D01*
X106993262Y-74905968D01*
X106994686Y-74900655D01*
X107004367Y-74790000D01*
X110486884Y-74790000D01*
X110505314Y-75000655D01*
X110506738Y-75005968D01*
X110506738Y-75005970D01*
X110546294Y-75153593D01*
X110560044Y-75204910D01*
X110562366Y-75209891D01*
X110562367Y-75209892D01*
X110642972Y-75382749D01*
X110649411Y-75396558D01*
X110770699Y-75569776D01*
X110920224Y-75719301D01*
X111093442Y-75840589D01*
X111098420Y-75842910D01*
X111098423Y-75842912D01*
X111280108Y-75927633D01*
X111285090Y-75929956D01*
X111290398Y-75931378D01*
X111290400Y-75931379D01*
X111484030Y-75983262D01*
X111484032Y-75983262D01*
X111489345Y-75984686D01*
X111700000Y-76003116D01*
X111910655Y-75984686D01*
X111915968Y-75983262D01*
X111915970Y-75983262D01*
X112109600Y-75931379D01*
X112109602Y-75931378D01*
X112114910Y-75929956D01*
X112119892Y-75927633D01*
X112301577Y-75842912D01*
X112301580Y-75842910D01*
X112306558Y-75840589D01*
X112479776Y-75719301D01*
X112629301Y-75569776D01*
X112672665Y-75507846D01*
X118492000Y-75507846D01*
X118492337Y-75514362D01*
X118502244Y-75609841D01*
X118505137Y-75623238D01*
X118556517Y-75777243D01*
X118562691Y-75790422D01*
X118647893Y-75928107D01*
X118656929Y-75939508D01*
X118771528Y-76053907D01*
X118782939Y-76062919D01*
X118920785Y-76147888D01*
X118933963Y-76154032D01*
X119088077Y-76205150D01*
X119101443Y-76208016D01*
X119195690Y-76217672D01*
X119202105Y-76218000D01*
X119427885Y-76218000D01*
X119443124Y-76213525D01*
X119444329Y-76212135D01*
X119446000Y-76204452D01*
X119446000Y-76199885D01*
X119954000Y-76199885D01*
X119958475Y-76215124D01*
X119959865Y-76216329D01*
X119967548Y-76218000D01*
X120197846Y-76218000D01*
X120204362Y-76217663D01*
X120299841Y-76207756D01*
X120313238Y-76204863D01*
X120467243Y-76153483D01*
X120480422Y-76147309D01*
X120618107Y-76062107D01*
X120629508Y-76053071D01*
X120743907Y-75938472D01*
X120752919Y-75927061D01*
X120837888Y-75789215D01*
X120844032Y-75776037D01*
X120895150Y-75621923D01*
X120898016Y-75608557D01*
X120907672Y-75514310D01*
X120908000Y-75507895D01*
X120908000Y-75132115D01*
X120903525Y-75116876D01*
X120902135Y-75115671D01*
X120894452Y-75114000D01*
X119972115Y-75114000D01*
X119956876Y-75118475D01*
X119955671Y-75119865D01*
X119954000Y-75127548D01*
X119954000Y-76199885D01*
X119446000Y-76199885D01*
X119446000Y-75132115D01*
X119441525Y-75116876D01*
X119440135Y-75115671D01*
X119432452Y-75114000D01*
X118510115Y-75114000D01*
X118494876Y-75118475D01*
X118493671Y-75119865D01*
X118492000Y-75127548D01*
X118492000Y-75507846D01*
X112672665Y-75507846D01*
X112750589Y-75396558D01*
X112757029Y-75382749D01*
X112837633Y-75209892D01*
X112837634Y-75209891D01*
X112839956Y-75204910D01*
X112853707Y-75153593D01*
X112893262Y-75005970D01*
X112893262Y-75005968D01*
X112894686Y-75000655D01*
X112913116Y-74790000D01*
X112895433Y-74587885D01*
X118492000Y-74587885D01*
X118496475Y-74603124D01*
X118497865Y-74604329D01*
X118505548Y-74606000D01*
X119427885Y-74606000D01*
X119443124Y-74601525D01*
X119444329Y-74600135D01*
X119446000Y-74592452D01*
X119446000Y-74587885D01*
X119954000Y-74587885D01*
X119958475Y-74603124D01*
X119959865Y-74604329D01*
X119967548Y-74606000D01*
X120889885Y-74606000D01*
X120905124Y-74601525D01*
X120906329Y-74600135D01*
X120908000Y-74592452D01*
X120908000Y-74212154D01*
X120907663Y-74205638D01*
X120897756Y-74110159D01*
X120894863Y-74096762D01*
X120843483Y-73942757D01*
X120837309Y-73929578D01*
X120752107Y-73791893D01*
X120743071Y-73780492D01*
X120628472Y-73666093D01*
X120617061Y-73657081D01*
X120479215Y-73572112D01*
X120466037Y-73565968D01*
X120311923Y-73514850D01*
X120298557Y-73511984D01*
X120204310Y-73502328D01*
X120197895Y-73502000D01*
X119972115Y-73502000D01*
X119956876Y-73506475D01*
X119955671Y-73507865D01*
X119954000Y-73515548D01*
X119954000Y-74587885D01*
X119446000Y-74587885D01*
X119446000Y-73520115D01*
X119441525Y-73504876D01*
X119440135Y-73503671D01*
X119432452Y-73502000D01*
X119202154Y-73502000D01*
X119195638Y-73502337D01*
X119100159Y-73512244D01*
X119086762Y-73515137D01*
X118932757Y-73566517D01*
X118919578Y-73572691D01*
X118781893Y-73657893D01*
X118770492Y-73666929D01*
X118656093Y-73781528D01*
X118647081Y-73792939D01*
X118562112Y-73930785D01*
X118555968Y-73943963D01*
X118504850Y-74098077D01*
X118501984Y-74111443D01*
X118492328Y-74205690D01*
X118492000Y-74212105D01*
X118492000Y-74587885D01*
X112895433Y-74587885D01*
X112894686Y-74579345D01*
X112877883Y-74516635D01*
X112841379Y-74380400D01*
X112841378Y-74380398D01*
X112839956Y-74375090D01*
X112833902Y-74362107D01*
X112752912Y-74188423D01*
X112752910Y-74188420D01*
X112750589Y-74183442D01*
X112629301Y-74010224D01*
X112479776Y-73860699D01*
X112387230Y-73795898D01*
X112342901Y-73740441D01*
X112333500Y-73692685D01*
X112333500Y-73302524D01*
X112353502Y-73234403D01*
X112365858Y-73218221D01*
X112439040Y-73136944D01*
X112534527Y-72971556D01*
X112593542Y-72789928D01*
X112603393Y-72696206D01*
X112612814Y-72606565D01*
X112613504Y-72600000D01*
X112597961Y-72452119D01*
X112594232Y-72416635D01*
X112594232Y-72416633D01*
X112593542Y-72410072D01*
X112534527Y-72228444D01*
X112439040Y-72063056D01*
X112408996Y-72029688D01*
X112315675Y-71926045D01*
X112315674Y-71926044D01*
X112311253Y-71921134D01*
X112180375Y-71826045D01*
X112162094Y-71812763D01*
X112162093Y-71812762D01*
X112156752Y-71808882D01*
X112150724Y-71806198D01*
X112150722Y-71806197D01*
X111988319Y-71733891D01*
X111988318Y-71733891D01*
X111982288Y-71731206D01*
X111888888Y-71711353D01*
X111801944Y-71692872D01*
X111801939Y-71692872D01*
X111795487Y-71691500D01*
X111604513Y-71691500D01*
X111598061Y-71692872D01*
X111598056Y-71692872D01*
X111511112Y-71711353D01*
X111417712Y-71731206D01*
X111411682Y-71733891D01*
X111411681Y-71733891D01*
X111249278Y-71806197D01*
X111249276Y-71806198D01*
X111243248Y-71808882D01*
X111237907Y-71812762D01*
X111237906Y-71812763D01*
X111219625Y-71826045D01*
X111088747Y-71921134D01*
X111084326Y-71926044D01*
X111084325Y-71926045D01*
X110991005Y-72029688D01*
X110960960Y-72063056D01*
X110865473Y-72228444D01*
X110806458Y-72410072D01*
X110805768Y-72416633D01*
X110805768Y-72416635D01*
X110802039Y-72452119D01*
X110786496Y-72600000D01*
X110787186Y-72606565D01*
X110796608Y-72696206D01*
X110806458Y-72789928D01*
X110865473Y-72971556D01*
X110960960Y-73136944D01*
X111034137Y-73218215D01*
X111064853Y-73282221D01*
X111066500Y-73302524D01*
X111066500Y-73692685D01*
X111046498Y-73760806D01*
X111012770Y-73795898D01*
X110920224Y-73860699D01*
X110770699Y-74010224D01*
X110649411Y-74183442D01*
X110647090Y-74188420D01*
X110647088Y-74188423D01*
X110566098Y-74362107D01*
X110560044Y-74375090D01*
X110558622Y-74380398D01*
X110558621Y-74380400D01*
X110522117Y-74516635D01*
X110505314Y-74579345D01*
X110486884Y-74790000D01*
X107004367Y-74790000D01*
X107013116Y-74690000D01*
X106994686Y-74479345D01*
X106972967Y-74398288D01*
X106941379Y-74280400D01*
X106941378Y-74280398D01*
X106939956Y-74275090D01*
X106923143Y-74239034D01*
X106852912Y-74088423D01*
X106852910Y-74088420D01*
X106850589Y-74083442D01*
X106729301Y-73910224D01*
X106579776Y-73760699D01*
X106487230Y-73695898D01*
X106442901Y-73640441D01*
X106433500Y-73592685D01*
X106433500Y-73080301D01*
X106450381Y-73017301D01*
X106531223Y-72877279D01*
X106531224Y-72877278D01*
X106534527Y-72871556D01*
X106593542Y-72689928D01*
X106610122Y-72532183D01*
X106612814Y-72506565D01*
X106613504Y-72500000D01*
X106610996Y-72476138D01*
X106594232Y-72316635D01*
X106594232Y-72316633D01*
X106593542Y-72310072D01*
X106534527Y-72128444D01*
X106439040Y-71963056D01*
X106416056Y-71937529D01*
X106315675Y-71826045D01*
X106315674Y-71826044D01*
X106311253Y-71821134D01*
X106156752Y-71708882D01*
X106150724Y-71706198D01*
X106150722Y-71706197D01*
X105988319Y-71633891D01*
X105988318Y-71633891D01*
X105982288Y-71631206D01*
X105888888Y-71611353D01*
X105801944Y-71592872D01*
X105801939Y-71592872D01*
X105795487Y-71591500D01*
X105604513Y-71591500D01*
X105598061Y-71592872D01*
X105598056Y-71592872D01*
X105511112Y-71611353D01*
X105417712Y-71631206D01*
X105411682Y-71633891D01*
X105411681Y-71633891D01*
X105249278Y-71706197D01*
X105249276Y-71706198D01*
X105243248Y-71708882D01*
X105088747Y-71821134D01*
X105084326Y-71826044D01*
X105084325Y-71826045D01*
X104983945Y-71937529D01*
X104960960Y-71963056D01*
X104865473Y-72128444D01*
X104806458Y-72310072D01*
X104805768Y-72316633D01*
X104805768Y-72316635D01*
X104789004Y-72476138D01*
X104786496Y-72500000D01*
X104787186Y-72506565D01*
X104789879Y-72532183D01*
X104806458Y-72689928D01*
X104865473Y-72871556D01*
X104960960Y-73036944D01*
X105088747Y-73178866D01*
X105094089Y-73182747D01*
X105094091Y-73182749D01*
X105114561Y-73197621D01*
X105157915Y-73253843D01*
X105166500Y-73299557D01*
X105166500Y-73592685D01*
X105146498Y-73660806D01*
X105112770Y-73695898D01*
X105020224Y-73760699D01*
X104870699Y-73910224D01*
X104749411Y-74083442D01*
X104747090Y-74088420D01*
X104747088Y-74088423D01*
X104676857Y-74239034D01*
X104660044Y-74275090D01*
X104658622Y-74280398D01*
X104658621Y-74280400D01*
X104627033Y-74398288D01*
X104605314Y-74479345D01*
X104586884Y-74690000D01*
X91645905Y-74690000D01*
X91630405Y-74674500D01*
X91596379Y-74612188D01*
X91593500Y-74585405D01*
X91593500Y-65820427D01*
X91613502Y-65752306D01*
X91654618Y-65712550D01*
X91657994Y-65710896D01*
X91839860Y-65581173D01*
X91998096Y-65423489D01*
X92057594Y-65340689D01*
X92128453Y-65242077D01*
X92129776Y-65243028D01*
X92176645Y-65199857D01*
X92246580Y-65187625D01*
X92312026Y-65215144D01*
X92339875Y-65246994D01*
X92399987Y-65345088D01*
X92546250Y-65513938D01*
X92718126Y-65656632D01*
X92911000Y-65769338D01*
X93119692Y-65849030D01*
X93124760Y-65850061D01*
X93124763Y-65850062D01*
X93232017Y-65871883D01*
X93338597Y-65893567D01*
X93343772Y-65893757D01*
X93343774Y-65893757D01*
X93556673Y-65901564D01*
X93556677Y-65901564D01*
X93561837Y-65901753D01*
X93566957Y-65901097D01*
X93566959Y-65901097D01*
X93778288Y-65874025D01*
X93778289Y-65874025D01*
X93783416Y-65873368D01*
X93788366Y-65871883D01*
X93992429Y-65810661D01*
X93992434Y-65810659D01*
X93997384Y-65809174D01*
X94197994Y-65710896D01*
X94379860Y-65581173D01*
X94538096Y-65423489D01*
X94597594Y-65340689D01*
X94665435Y-65246277D01*
X94668453Y-65242077D01*
X94689320Y-65199857D01*
X94765136Y-65046453D01*
X94765137Y-65046451D01*
X94767430Y-65041811D01*
X94832370Y-64828069D01*
X94861529Y-64606590D01*
X94863156Y-64540000D01*
X94844852Y-64317361D01*
X94790431Y-64100702D01*
X94701354Y-63895840D01*
X94580014Y-63708277D01*
X94429670Y-63543051D01*
X94387006Y-63509357D01*
X94345944Y-63451441D01*
X94342712Y-63380518D01*
X94378337Y-63319107D01*
X94411647Y-63296376D01*
X94417007Y-63293865D01*
X94423946Y-63291550D01*
X94574348Y-63198478D01*
X94699305Y-63073303D01*
X94721357Y-63037529D01*
X94788275Y-62928968D01*
X94788276Y-62928966D01*
X94792115Y-62922738D01*
X94847797Y-62754861D01*
X94858500Y-62650400D01*
X94858500Y-61349600D01*
X94858163Y-61346350D01*
X94848238Y-61250692D01*
X94848237Y-61250688D01*
X94847526Y-61243834D01*
X94813598Y-61142138D01*
X94793868Y-61083002D01*
X94791550Y-61076054D01*
X94698478Y-60925652D01*
X94573303Y-60800695D01*
X94567072Y-60796854D01*
X94428968Y-60711725D01*
X94428966Y-60711724D01*
X94422738Y-60707885D01*
X94262254Y-60654655D01*
X94261389Y-60654368D01*
X94261387Y-60654368D01*
X94254861Y-60652203D01*
X94248025Y-60651503D01*
X94248022Y-60651502D01*
X94204969Y-60647091D01*
X94150400Y-60641500D01*
X92849600Y-60641500D01*
X92846354Y-60641837D01*
X92846350Y-60641837D01*
X92750692Y-60651762D01*
X92750688Y-60651763D01*
X92743834Y-60652474D01*
X92737298Y-60654655D01*
X92737296Y-60654655D01*
X92674631Y-60675562D01*
X92576054Y-60708450D01*
X92425652Y-60801522D01*
X92420479Y-60806704D01*
X92364762Y-60862518D01*
X92300695Y-60926697D01*
X92296855Y-60932927D01*
X92296854Y-60932928D01*
X92251275Y-61006870D01*
X92207885Y-61077262D01*
X92205579Y-61084213D01*
X92203561Y-61088542D01*
X92156644Y-61141828D01*
X92088367Y-61161290D01*
X92020407Y-61140749D01*
X91996172Y-61120094D01*
X91893152Y-61006876D01*
X91893142Y-61006867D01*
X91889670Y-61003051D01*
X91885619Y-60999852D01*
X91885615Y-60999848D01*
X91718414Y-60867800D01*
X91718410Y-60867798D01*
X91714359Y-60864598D01*
X91518789Y-60756638D01*
X91513920Y-60754914D01*
X91513916Y-60754912D01*
X91313087Y-60683795D01*
X91313083Y-60683794D01*
X91308212Y-60682069D01*
X91303119Y-60681162D01*
X91303116Y-60681161D01*
X91093373Y-60643800D01*
X91093367Y-60643799D01*
X91088284Y-60642894D01*
X91014452Y-60641992D01*
X90870081Y-60640228D01*
X90870079Y-60640228D01*
X90864911Y-60640165D01*
X90644091Y-60673955D01*
X90431756Y-60743357D01*
X90353455Y-60784118D01*
X90311678Y-60805866D01*
X90233607Y-60846507D01*
X90229474Y-60849610D01*
X90229471Y-60849612D01*
X90059100Y-60977530D01*
X90054965Y-60980635D01*
X89900629Y-61142138D01*
X89793201Y-61299621D01*
X89738293Y-61344621D01*
X89667768Y-61352792D01*
X89604021Y-61321538D01*
X89583324Y-61297054D01*
X89502822Y-61172617D01*
X89502820Y-61172614D01*
X89500014Y-61168277D01*
X89349670Y-61003051D01*
X89345619Y-60999852D01*
X89345615Y-60999848D01*
X89178414Y-60867800D01*
X89178410Y-60867798D01*
X89174359Y-60864598D01*
X88978789Y-60756638D01*
X88973920Y-60754914D01*
X88973916Y-60754912D01*
X88773087Y-60683795D01*
X88773083Y-60683794D01*
X88768212Y-60682069D01*
X88763119Y-60681162D01*
X88763116Y-60681161D01*
X88553373Y-60643800D01*
X88553367Y-60643799D01*
X88548284Y-60642894D01*
X88474452Y-60641992D01*
X88330081Y-60640228D01*
X88330079Y-60640228D01*
X88324911Y-60640165D01*
X88104091Y-60673955D01*
X87891756Y-60743357D01*
X87813455Y-60784118D01*
X87771678Y-60805866D01*
X87693607Y-60846507D01*
X87689474Y-60849610D01*
X87689471Y-60849612D01*
X87519100Y-60977530D01*
X87514965Y-60980635D01*
X87360629Y-61142138D01*
X87253204Y-61299618D01*
X87252898Y-61300066D01*
X87197987Y-61345069D01*
X87127462Y-61353240D01*
X87063715Y-61321986D01*
X87043017Y-61297501D01*
X87013062Y-61251197D01*
X87002377Y-61241995D01*
X86992812Y-61246398D01*
X86252022Y-61987188D01*
X86244408Y-62001132D01*
X86244539Y-62002965D01*
X86248790Y-62009580D01*
X86990474Y-62751264D01*
X87002484Y-62757823D01*
X87014223Y-62748855D01*
X87048022Y-62701819D01*
X87049277Y-62702721D01*
X87096391Y-62659355D01*
X87166330Y-62647148D01*
X87231767Y-62674691D01*
X87259580Y-62706513D01*
X87317287Y-62800683D01*
X87317291Y-62800688D01*
X87319987Y-62805088D01*
X87466250Y-62973938D01*
X87638126Y-63116632D01*
X87649063Y-63123023D01*
X87711445Y-63159476D01*
X87760169Y-63211114D01*
X87773240Y-63280897D01*
X87746509Y-63346669D01*
X87706055Y-63380027D01*
X87693607Y-63386507D01*
X87689474Y-63389610D01*
X87689471Y-63389612D01*
X87519100Y-63517530D01*
X87514965Y-63520635D01*
X87360629Y-63682138D01*
X87253201Y-63839621D01*
X87198293Y-63884621D01*
X87127768Y-63892792D01*
X87064021Y-63861538D01*
X87043324Y-63837054D01*
X86962822Y-63712617D01*
X86962820Y-63712614D01*
X86960014Y-63708277D01*
X86809670Y-63543051D01*
X86805616Y-63539849D01*
X86805615Y-63539848D01*
X86638414Y-63407800D01*
X86638410Y-63407798D01*
X86634359Y-63404598D01*
X86592569Y-63381529D01*
X86542598Y-63331097D01*
X86527826Y-63261654D01*
X86552942Y-63195248D01*
X86580293Y-63168642D01*
X86629247Y-63133723D01*
X86637648Y-63123023D01*
X86630660Y-63109870D01*
X85892812Y-62372022D01*
X85878868Y-62364408D01*
X85877035Y-62364539D01*
X85870420Y-62368790D01*
X85126737Y-63112473D01*
X85119977Y-63124853D01*
X85125258Y-63131907D01*
X85171969Y-63159203D01*
X85220693Y-63210841D01*
X85233764Y-63280624D01*
X85207033Y-63346396D01*
X85166584Y-63379752D01*
X85153607Y-63386507D01*
X85149474Y-63389610D01*
X85149471Y-63389612D01*
X84979100Y-63517530D01*
X84974965Y-63520635D01*
X84820629Y-63682138D01*
X84713201Y-63839621D01*
X84658293Y-63884621D01*
X84587768Y-63892792D01*
X84524021Y-63861538D01*
X84503324Y-63837054D01*
X84422822Y-63712617D01*
X84422820Y-63712614D01*
X84420014Y-63708277D01*
X84269670Y-63543051D01*
X84265616Y-63539849D01*
X84265615Y-63539848D01*
X84098414Y-63407800D01*
X84098410Y-63407798D01*
X84094359Y-63404598D01*
X84053053Y-63381796D01*
X84003084Y-63331364D01*
X83988312Y-63261921D01*
X84013428Y-63195516D01*
X84040780Y-63168909D01*
X84105110Y-63123023D01*
X84219860Y-63041173D01*
X84378096Y-62883489D01*
X84437594Y-62800689D01*
X84508453Y-62702077D01*
X84509640Y-62702930D01*
X84556960Y-62659362D01*
X84626897Y-62647145D01*
X84692338Y-62674678D01*
X84720166Y-62706512D01*
X84746459Y-62749419D01*
X84756916Y-62758880D01*
X84765694Y-62755096D01*
X85507978Y-62012812D01*
X85515592Y-61998868D01*
X85515461Y-61997035D01*
X85511210Y-61990420D01*
X84769849Y-61249059D01*
X84758313Y-61242759D01*
X84746031Y-61252382D01*
X84713499Y-61300072D01*
X84658587Y-61345075D01*
X84588063Y-61353246D01*
X84524316Y-61321992D01*
X84503618Y-61297508D01*
X84422822Y-61172617D01*
X84422820Y-61172614D01*
X84420014Y-61168277D01*
X84269670Y-61003051D01*
X84265619Y-60999852D01*
X84265615Y-60999848D01*
X84109338Y-60876427D01*
X85121223Y-60876427D01*
X85127968Y-60888758D01*
X85867188Y-61627978D01*
X85881132Y-61635592D01*
X85882965Y-61635461D01*
X85889580Y-61631210D01*
X86633389Y-60887401D01*
X86640410Y-60874544D01*
X86633611Y-60865213D01*
X86629554Y-60862518D01*
X86443117Y-60759599D01*
X86433705Y-60755369D01*
X86232959Y-60684280D01*
X86222989Y-60681646D01*
X86013327Y-60644301D01*
X86003073Y-60643331D01*
X85790116Y-60640728D01*
X85779832Y-60641448D01*
X85569321Y-60673661D01*
X85559293Y-60676050D01*
X85356868Y-60742212D01*
X85347359Y-60746209D01*
X85158466Y-60844540D01*
X85149734Y-60850039D01*
X85129677Y-60865099D01*
X85121223Y-60876427D01*
X84109338Y-60876427D01*
X84098414Y-60867800D01*
X84098410Y-60867798D01*
X84094359Y-60864598D01*
X83898789Y-60756638D01*
X83893920Y-60754914D01*
X83893916Y-60754912D01*
X83693087Y-60683795D01*
X83693083Y-60683794D01*
X83688212Y-60682069D01*
X83683119Y-60681162D01*
X83683116Y-60681161D01*
X83473373Y-60643800D01*
X83473367Y-60643799D01*
X83468284Y-60642894D01*
X83394452Y-60641992D01*
X83250081Y-60640228D01*
X83250079Y-60640228D01*
X83244911Y-60640165D01*
X83024091Y-60673955D01*
X82811756Y-60743357D01*
X82733455Y-60784118D01*
X82691678Y-60805866D01*
X82613607Y-60846507D01*
X82609474Y-60849610D01*
X82609471Y-60849612D01*
X82439100Y-60977530D01*
X82434965Y-60980635D01*
X82280629Y-61142138D01*
X82154743Y-61326680D01*
X82060688Y-61529305D01*
X82000989Y-61744570D01*
X81977251Y-61966695D01*
X81977548Y-61971848D01*
X81977548Y-61971851D01*
X81979910Y-62012812D01*
X81990110Y-62189715D01*
X81991247Y-62194761D01*
X81991248Y-62194767D01*
X82012275Y-62288069D01*
X82039222Y-62407639D01*
X82123266Y-62614616D01*
X82174942Y-62698944D01*
X82237291Y-62800688D01*
X82239987Y-62805088D01*
X82386250Y-62973938D01*
X82558126Y-63116632D01*
X82569063Y-63123023D01*
X82631445Y-63159476D01*
X82680169Y-63211114D01*
X82693240Y-63280897D01*
X82666509Y-63346669D01*
X82626055Y-63380027D01*
X82613607Y-63386507D01*
X82609474Y-63389610D01*
X82609471Y-63389612D01*
X82439100Y-63517530D01*
X82434965Y-63520635D01*
X82280629Y-63682138D01*
X82154743Y-63866680D01*
X82060688Y-64069305D01*
X82000989Y-64284570D01*
X81977251Y-64506695D01*
X81977548Y-64511848D01*
X81977548Y-64511851D01*
X81983011Y-64606590D01*
X81990110Y-64729715D01*
X81991247Y-64734761D01*
X81991248Y-64734767D01*
X82011119Y-64822939D01*
X82039222Y-64947639D01*
X82123266Y-65154616D01*
X82174019Y-65237438D01*
X82237291Y-65340688D01*
X82239987Y-65345088D01*
X82386250Y-65513938D01*
X82558126Y-65656632D01*
X82562593Y-65659242D01*
X82644070Y-65706853D01*
X82692794Y-65758491D01*
X82706500Y-65815641D01*
X82706500Y-74918440D01*
X82686498Y-74986561D01*
X82681329Y-74994000D01*
X82644385Y-75043295D01*
X82593255Y-75179684D01*
X82586500Y-75241866D01*
X82586500Y-76518134D01*
X82593255Y-76580316D01*
X82644385Y-76716705D01*
X82731739Y-76833261D01*
X82848295Y-76920615D01*
X82856703Y-76923767D01*
X82969730Y-76966139D01*
X83026494Y-77008781D01*
X83051194Y-77075342D01*
X83051500Y-77084121D01*
X83051500Y-77457289D01*
X83031498Y-77525410D01*
X83008580Y-77552019D01*
X82884763Y-77660603D01*
X82759774Y-77819151D01*
X82757085Y-77824262D01*
X82757083Y-77824265D01*
X82709589Y-77914537D01*
X82665771Y-77997821D01*
X82605902Y-78190631D01*
X82582172Y-78391121D01*
X82595376Y-78592579D01*
X82615502Y-78671824D01*
X82643100Y-78780492D01*
X82645072Y-78788258D01*
X82729596Y-78971603D01*
X82846116Y-79136475D01*
X82850250Y-79140502D01*
X82923803Y-79212154D01*
X82990730Y-79277352D01*
X82995526Y-79280557D01*
X82995529Y-79280559D01*
X83080223Y-79337149D01*
X83158596Y-79389516D01*
X83163899Y-79391794D01*
X83163902Y-79391796D01*
X83262319Y-79434079D01*
X83344091Y-79469211D01*
X83439800Y-79490868D01*
X83535367Y-79512493D01*
X83535370Y-79512493D01*
X83541003Y-79513768D01*
X83546774Y-79513995D01*
X83546776Y-79513995D01*
X83608601Y-79516424D01*
X83742737Y-79521694D01*
X83842637Y-79507209D01*
X83936824Y-79493553D01*
X83936829Y-79493552D01*
X83942538Y-79492724D01*
X83948002Y-79490869D01*
X83948007Y-79490868D01*
X84128246Y-79429685D01*
X84133714Y-79427829D01*
X84251291Y-79361983D01*
X84304826Y-79332002D01*
X84304827Y-79332001D01*
X84309863Y-79329181D01*
X84450572Y-79212154D01*
X84460651Y-79203771D01*
X84465084Y-79200084D01*
X84517988Y-79136475D01*
X84590490Y-79049301D01*
X84590490Y-79049300D01*
X84594181Y-79044863D01*
X84692829Y-78868714D01*
X84722042Y-78782656D01*
X84755868Y-78683007D01*
X84755869Y-78683002D01*
X84757724Y-78677538D01*
X84758552Y-78671829D01*
X84758553Y-78671824D01*
X84780549Y-78520115D01*
X84786694Y-78477737D01*
X84788206Y-78420000D01*
X84769733Y-78218957D01*
X84714932Y-78024646D01*
X84625638Y-77843576D01*
X84504842Y-77681811D01*
X84477789Y-77656803D01*
X84358971Y-77546970D01*
X84322526Y-77486042D01*
X84318500Y-77454445D01*
X84318500Y-77084121D01*
X84338502Y-77016000D01*
X84392158Y-76969507D01*
X84400270Y-76966139D01*
X84513297Y-76923767D01*
X84521705Y-76920615D01*
X84638261Y-76833261D01*
X84725615Y-76716705D01*
X84776745Y-76580316D01*
X84783500Y-76518134D01*
X84783500Y-75241866D01*
X84776745Y-75179684D01*
X84725615Y-75043295D01*
X84638261Y-74926739D01*
X84521705Y-74839385D01*
X84385316Y-74788255D01*
X84323134Y-74781500D01*
X84099500Y-74781500D01*
X84031379Y-74761498D01*
X83984886Y-74707842D01*
X83973500Y-74655500D01*
X83973500Y-65820427D01*
X83993502Y-65752306D01*
X84034618Y-65712550D01*
X84037994Y-65710896D01*
X84219860Y-65581173D01*
X84378096Y-65423489D01*
X84437594Y-65340689D01*
X84508453Y-65242077D01*
X84509776Y-65243028D01*
X84556645Y-65199857D01*
X84626580Y-65187625D01*
X84692026Y-65215144D01*
X84719875Y-65246994D01*
X84779987Y-65345088D01*
X84926250Y-65513938D01*
X85098126Y-65656632D01*
X85102593Y-65659242D01*
X85184070Y-65706853D01*
X85232794Y-65758491D01*
X85246500Y-65815641D01*
X85246500Y-86070406D01*
X85226498Y-86138527D01*
X85209599Y-86159497D01*
X84972724Y-86396372D01*
X84910412Y-86430397D01*
X84839596Y-86425332D01*
X84782761Y-86382785D01*
X84757950Y-86316264D01*
X84758933Y-86289201D01*
X84783090Y-86122596D01*
X84786162Y-86101408D01*
X84786162Y-86101403D01*
X84786694Y-86097737D01*
X84788206Y-86040000D01*
X84769733Y-85838957D01*
X84761726Y-85810564D01*
X84733989Y-85712216D01*
X84714932Y-85644646D01*
X84625638Y-85463576D01*
X84611420Y-85444535D01*
X84508295Y-85306435D01*
X84508294Y-85306434D01*
X84504842Y-85301811D01*
X84500606Y-85297895D01*
X84360830Y-85168688D01*
X84360828Y-85168686D01*
X84356589Y-85164768D01*
X84336306Y-85151970D01*
X84190725Y-85060115D01*
X84190724Y-85060115D01*
X84185845Y-85057036D01*
X83998327Y-84982224D01*
X83992667Y-84981098D01*
X83992663Y-84981097D01*
X83805983Y-84943964D01*
X83805980Y-84943964D01*
X83800316Y-84942837D01*
X83794541Y-84942761D01*
X83794537Y-84942761D01*
X83694014Y-84941446D01*
X83598443Y-84940195D01*
X83592746Y-84941174D01*
X83592745Y-84941174D01*
X83562606Y-84946353D01*
X83492082Y-84938176D01*
X83452172Y-84911268D01*
X83323351Y-84782446D01*
X83289326Y-84720134D01*
X83294392Y-84649318D01*
X83336938Y-84592483D01*
X83403459Y-84567672D01*
X83440255Y-84570458D01*
X83535432Y-84591995D01*
X83546841Y-84593497D01*
X83736943Y-84600966D01*
X83748425Y-84600364D01*
X83936707Y-84573065D01*
X83947890Y-84570380D01*
X84128042Y-84509226D01*
X84138545Y-84504550D01*
X84245684Y-84444550D01*
X84255546Y-84434474D01*
X84252591Y-84426802D01*
X83326922Y-83501132D01*
X84049408Y-83501132D01*
X84049539Y-83502966D01*
X84053790Y-83509580D01*
X84607891Y-84063680D01*
X84620266Y-84070437D01*
X84626846Y-84065511D01*
X84689550Y-83953545D01*
X84694226Y-83943042D01*
X84755380Y-83762890D01*
X84758065Y-83751707D01*
X84785660Y-83561385D01*
X84786290Y-83554002D01*
X84787607Y-83503704D01*
X84787364Y-83496305D01*
X84769768Y-83304805D01*
X84767670Y-83293484D01*
X84716032Y-83110390D01*
X84711907Y-83099643D01*
X84629253Y-82932038D01*
X84622723Y-82927136D01*
X84610303Y-82933908D01*
X84057021Y-83487189D01*
X84049408Y-83501132D01*
X83326922Y-83501132D01*
X83325790Y-83500000D01*
X82760946Y-82935157D01*
X82748567Y-82928398D01*
X82742601Y-82932864D01*
X82668926Y-83072897D01*
X82664521Y-83083531D01*
X82608106Y-83265218D01*
X82605714Y-83276472D01*
X82583353Y-83465400D01*
X82583052Y-83476901D01*
X82595494Y-83666733D01*
X82597295Y-83678103D01*
X82644123Y-83862490D01*
X82647964Y-83873337D01*
X82727612Y-84046107D01*
X82733360Y-84056063D01*
X82770104Y-84108054D01*
X82793085Y-84175229D01*
X82776101Y-84244164D01*
X82724544Y-84292973D01*
X82665030Y-84303397D01*
X82665030Y-84306500D01*
X82644776Y-84306500D01*
X82625065Y-84304949D01*
X82612886Y-84303020D01*
X82605057Y-84301780D01*
X82597165Y-84302526D01*
X82561039Y-84305941D01*
X82549181Y-84306500D01*
X77887904Y-84306500D01*
X77819783Y-84286498D01*
X77774178Y-84234744D01*
X77746827Y-84177401D01*
X77746824Y-84177396D01*
X77744411Y-84172337D01*
X77618526Y-83997149D01*
X77554346Y-83934954D01*
X77467636Y-83850926D01*
X77467633Y-83850924D01*
X77463608Y-83847023D01*
X77284553Y-83726703D01*
X77275291Y-83722637D01*
X77148115Y-83666811D01*
X77087020Y-83639992D01*
X76877255Y-83589632D01*
X76794212Y-83584844D01*
X76667494Y-83577537D01*
X76667491Y-83577537D01*
X76661887Y-83577214D01*
X76656309Y-83577889D01*
X76453292Y-83602456D01*
X76453291Y-83602456D01*
X76447723Y-83603130D01*
X76442369Y-83604777D01*
X76442365Y-83604778D01*
X76272244Y-83657115D01*
X76241534Y-83666563D01*
X76145685Y-83716034D01*
X76054903Y-83762890D01*
X76049836Y-83765505D01*
X76015959Y-83791500D01*
X75883140Y-83893415D01*
X75883136Y-83893419D01*
X75878689Y-83896831D01*
X75864192Y-83912763D01*
X75737858Y-84051603D01*
X75733503Y-84056389D01*
X75730522Y-84061141D01*
X75630555Y-84220502D01*
X75618866Y-84239135D01*
X75618827Y-84239111D01*
X75571405Y-84289320D01*
X75507889Y-84306500D01*
X71644594Y-84306500D01*
X71576473Y-84286498D01*
X71555499Y-84269595D01*
X69927443Y-82641538D01*
X69893417Y-82579226D01*
X69893154Y-82565971D01*
X83115084Y-82565971D01*
X83118570Y-82574359D01*
X83672189Y-83127979D01*
X83686132Y-83135592D01*
X83687966Y-83135461D01*
X83694580Y-83131210D01*
X84248034Y-82577755D01*
X84254791Y-82565380D01*
X84248761Y-82557324D01*
X84190501Y-82520565D01*
X84180253Y-82515344D01*
X84003548Y-82444846D01*
X83992521Y-82441579D01*
X83805932Y-82404464D01*
X83794485Y-82403261D01*
X83604265Y-82400771D01*
X83592785Y-82401674D01*
X83405296Y-82433891D01*
X83394176Y-82436871D01*
X83215690Y-82502718D01*
X83205312Y-82507668D01*
X83124682Y-82555638D01*
X83115084Y-82565971D01*
X69893154Y-82565971D01*
X69892453Y-82530561D01*
X69893264Y-82525961D01*
X69894686Y-82520655D01*
X69895166Y-82515175D01*
X69912637Y-82315475D01*
X69913116Y-82310000D01*
X69894686Y-82099345D01*
X69889090Y-82078461D01*
X69841379Y-81900400D01*
X69841378Y-81900398D01*
X69839956Y-81895090D01*
X69829190Y-81872002D01*
X69752912Y-81708423D01*
X69752910Y-81708420D01*
X69750589Y-81703442D01*
X69629301Y-81530224D01*
X69479776Y-81380699D01*
X69306558Y-81259411D01*
X69301580Y-81257090D01*
X69301577Y-81257088D01*
X69119892Y-81172367D01*
X69119891Y-81172366D01*
X69114910Y-81170044D01*
X69109602Y-81168622D01*
X69109600Y-81168621D01*
X68915970Y-81116738D01*
X68915968Y-81116738D01*
X68910655Y-81115314D01*
X68700000Y-81096884D01*
X68489345Y-81115314D01*
X68484032Y-81116738D01*
X68484030Y-81116738D01*
X68290400Y-81168621D01*
X68290398Y-81168622D01*
X68285090Y-81170044D01*
X68280109Y-81172366D01*
X68280108Y-81172367D01*
X68098423Y-81257088D01*
X68098420Y-81257090D01*
X68093442Y-81259411D01*
X67920224Y-81380699D01*
X67770699Y-81530224D01*
X67649411Y-81703442D01*
X67647090Y-81708420D01*
X67647088Y-81708423D01*
X67570810Y-81872002D01*
X67560044Y-81895090D01*
X67558622Y-81900398D01*
X67558621Y-81900400D01*
X67510910Y-82078461D01*
X67505314Y-82099345D01*
X67486884Y-82310000D01*
X64985904Y-82310000D01*
X65792247Y-81503657D01*
X65800537Y-81496113D01*
X65807018Y-81492000D01*
X65853659Y-81442332D01*
X65856413Y-81439491D01*
X65876134Y-81419770D01*
X65878612Y-81416575D01*
X65886318Y-81407553D01*
X65911158Y-81381101D01*
X65916586Y-81375321D01*
X65924445Y-81361026D01*
X65926346Y-81357568D01*
X65937199Y-81341045D01*
X65938356Y-81339553D01*
X65949613Y-81325041D01*
X65967176Y-81284457D01*
X65972383Y-81273827D01*
X65993695Y-81235060D01*
X65995666Y-81227383D01*
X65995668Y-81227378D01*
X65998732Y-81215442D01*
X66005138Y-81196730D01*
X66010034Y-81185417D01*
X66013181Y-81178145D01*
X66014690Y-81168621D01*
X66020097Y-81134481D01*
X66022504Y-81122860D01*
X66031528Y-81087711D01*
X66031528Y-81087710D01*
X66033500Y-81080030D01*
X66033500Y-81059769D01*
X66035051Y-81040058D01*
X66036979Y-81027885D01*
X66038219Y-81020057D01*
X66034059Y-80976046D01*
X66033500Y-80964189D01*
X66033500Y-80507846D01*
X75492000Y-80507846D01*
X75492337Y-80514362D01*
X75502244Y-80609841D01*
X75505137Y-80623238D01*
X75556517Y-80777243D01*
X75562691Y-80790422D01*
X75647893Y-80928107D01*
X75656929Y-80939508D01*
X75771528Y-81053907D01*
X75782939Y-81062919D01*
X75920785Y-81147888D01*
X75933963Y-81154032D01*
X76088077Y-81205150D01*
X76101443Y-81208016D01*
X76195690Y-81217672D01*
X76202105Y-81218000D01*
X76427885Y-81218000D01*
X76443124Y-81213525D01*
X76444329Y-81212135D01*
X76446000Y-81204452D01*
X76446000Y-81199885D01*
X76954000Y-81199885D01*
X76958475Y-81215124D01*
X76959865Y-81216329D01*
X76967548Y-81218000D01*
X77197846Y-81218000D01*
X77204362Y-81217663D01*
X77299841Y-81207756D01*
X77313238Y-81204863D01*
X77467243Y-81153483D01*
X77480422Y-81147309D01*
X77618107Y-81062107D01*
X77629508Y-81053071D01*
X77743907Y-80938472D01*
X77752919Y-80927061D01*
X77837888Y-80789215D01*
X77844032Y-80776037D01*
X77895150Y-80621923D01*
X77898016Y-80608557D01*
X77907672Y-80514310D01*
X77908000Y-80507895D01*
X77908000Y-80132115D01*
X77903525Y-80116876D01*
X77902135Y-80115671D01*
X77894452Y-80114000D01*
X76972115Y-80114000D01*
X76956876Y-80118475D01*
X76955671Y-80119865D01*
X76954000Y-80127548D01*
X76954000Y-81199885D01*
X76446000Y-81199885D01*
X76446000Y-80132115D01*
X76441525Y-80116876D01*
X76440135Y-80115671D01*
X76432452Y-80114000D01*
X75510115Y-80114000D01*
X75494876Y-80118475D01*
X75493671Y-80119865D01*
X75492000Y-80127548D01*
X75492000Y-80507846D01*
X66033500Y-80507846D01*
X66033500Y-79587885D01*
X75492000Y-79587885D01*
X75496475Y-79603124D01*
X75497865Y-79604329D01*
X75505548Y-79606000D01*
X76427885Y-79606000D01*
X76443124Y-79601525D01*
X76444329Y-79600135D01*
X76446000Y-79592452D01*
X76446000Y-79587885D01*
X76954000Y-79587885D01*
X76958475Y-79603124D01*
X76959865Y-79604329D01*
X76967548Y-79606000D01*
X77889885Y-79606000D01*
X77905124Y-79601525D01*
X77906329Y-79600135D01*
X77908000Y-79592452D01*
X77908000Y-79212154D01*
X77907663Y-79205638D01*
X77897756Y-79110159D01*
X77894863Y-79096762D01*
X77843483Y-78942757D01*
X77837309Y-78929578D01*
X77752107Y-78791893D01*
X77743071Y-78780492D01*
X77628472Y-78666093D01*
X77617061Y-78657081D01*
X77479215Y-78572112D01*
X77466037Y-78565968D01*
X77311923Y-78514850D01*
X77298557Y-78511984D01*
X77204310Y-78502328D01*
X77197895Y-78502000D01*
X76972115Y-78502000D01*
X76956876Y-78506475D01*
X76955671Y-78507865D01*
X76954000Y-78515548D01*
X76954000Y-79587885D01*
X76446000Y-79587885D01*
X76446000Y-78520115D01*
X76441525Y-78504876D01*
X76440135Y-78503671D01*
X76432452Y-78502000D01*
X76202154Y-78502000D01*
X76195638Y-78502337D01*
X76100159Y-78512244D01*
X76086762Y-78515137D01*
X75932757Y-78566517D01*
X75919578Y-78572691D01*
X75781893Y-78657893D01*
X75770492Y-78666929D01*
X75656093Y-78781528D01*
X75647081Y-78792939D01*
X75562112Y-78930785D01*
X75555968Y-78943963D01*
X75504850Y-79098077D01*
X75501984Y-79111443D01*
X75492328Y-79205690D01*
X75492000Y-79212105D01*
X75492000Y-79587885D01*
X66033500Y-79587885D01*
X66033500Y-74690000D01*
X67486884Y-74690000D01*
X67505314Y-74900655D01*
X67506738Y-74905968D01*
X67506738Y-74905970D01*
X67557436Y-75095175D01*
X67560044Y-75104910D01*
X67562366Y-75109891D01*
X67562367Y-75109892D01*
X67643805Y-75284535D01*
X67649411Y-75296558D01*
X67770699Y-75469776D01*
X67920224Y-75619301D01*
X68093442Y-75740589D01*
X68098420Y-75742910D01*
X68098423Y-75742912D01*
X68280108Y-75827633D01*
X68285090Y-75829956D01*
X68290398Y-75831378D01*
X68290400Y-75831379D01*
X68484030Y-75883262D01*
X68484032Y-75883262D01*
X68489345Y-75884686D01*
X68700000Y-75903116D01*
X68910655Y-75884686D01*
X68915968Y-75883262D01*
X68915970Y-75883262D01*
X69109600Y-75831379D01*
X69109602Y-75831378D01*
X69114910Y-75829956D01*
X69119892Y-75827633D01*
X69301577Y-75742912D01*
X69301580Y-75742910D01*
X69306558Y-75740589D01*
X69479776Y-75619301D01*
X69629301Y-75469776D01*
X69694102Y-75377230D01*
X69749559Y-75332901D01*
X69797315Y-75323500D01*
X70582796Y-75323500D01*
X70650917Y-75343502D01*
X70676432Y-75365189D01*
X70683725Y-75373288D01*
X70688747Y-75378866D01*
X70706242Y-75391577D01*
X70817093Y-75472115D01*
X70843248Y-75491118D01*
X70849276Y-75493802D01*
X70849278Y-75493803D01*
X70895338Y-75514310D01*
X71017712Y-75568794D01*
X71111112Y-75588647D01*
X71198056Y-75607128D01*
X71198061Y-75607128D01*
X71204513Y-75608500D01*
X71395487Y-75608500D01*
X71401939Y-75607128D01*
X71401944Y-75607128D01*
X71488888Y-75588647D01*
X71582288Y-75568794D01*
X71704662Y-75514310D01*
X71750722Y-75493803D01*
X71750724Y-75493802D01*
X71756752Y-75491118D01*
X71911253Y-75378866D01*
X71915675Y-75373955D01*
X72034621Y-75241852D01*
X72034622Y-75241851D01*
X72039040Y-75236944D01*
X72134527Y-75071556D01*
X72193542Y-74889928D01*
X72205288Y-74778176D01*
X72212814Y-74706565D01*
X72213504Y-74700000D01*
X72203008Y-74600135D01*
X72194232Y-74516635D01*
X72194232Y-74516633D01*
X72193542Y-74510072D01*
X72134527Y-74328444D01*
X72127552Y-74316362D01*
X72074945Y-74225246D01*
X72039040Y-74163056D01*
X72009665Y-74130431D01*
X71915675Y-74026045D01*
X71915674Y-74026044D01*
X71911253Y-74021134D01*
X71795377Y-73936945D01*
X71762094Y-73912763D01*
X71762093Y-73912762D01*
X71756752Y-73908882D01*
X71750724Y-73906198D01*
X71750722Y-73906197D01*
X71588319Y-73833891D01*
X71588318Y-73833891D01*
X71582288Y-73831206D01*
X71488887Y-73811353D01*
X71401944Y-73792872D01*
X71401939Y-73792872D01*
X71395487Y-73791500D01*
X71204513Y-73791500D01*
X71198061Y-73792872D01*
X71198056Y-73792872D01*
X71111113Y-73811353D01*
X71017712Y-73831206D01*
X71011682Y-73833891D01*
X71011681Y-73833891D01*
X70849278Y-73906197D01*
X70849276Y-73906198D01*
X70843248Y-73908882D01*
X70837907Y-73912762D01*
X70837906Y-73912763D01*
X70804623Y-73936945D01*
X70688747Y-74021134D01*
X70685739Y-74024475D01*
X70622438Y-74054853D01*
X70602134Y-74056500D01*
X69797315Y-74056500D01*
X69729194Y-74036498D01*
X69694102Y-74002770D01*
X69670310Y-73968791D01*
X69629301Y-73910224D01*
X69479776Y-73760699D01*
X69306558Y-73639411D01*
X69301580Y-73637090D01*
X69301577Y-73637088D01*
X69119892Y-73552367D01*
X69119891Y-73552366D01*
X69114910Y-73550044D01*
X69109602Y-73548622D01*
X69109600Y-73548621D01*
X68915970Y-73496738D01*
X68915968Y-73496738D01*
X68910655Y-73495314D01*
X68700000Y-73476884D01*
X68489345Y-73495314D01*
X68484032Y-73496738D01*
X68484030Y-73496738D01*
X68290400Y-73548621D01*
X68290398Y-73548622D01*
X68285090Y-73550044D01*
X68280109Y-73552366D01*
X68280108Y-73552367D01*
X68098423Y-73637088D01*
X68098420Y-73637090D01*
X68093442Y-73639411D01*
X67920224Y-73760699D01*
X67770699Y-73910224D01*
X67649411Y-74083442D01*
X67647090Y-74088420D01*
X67647088Y-74088423D01*
X67576857Y-74239034D01*
X67560044Y-74275090D01*
X67558622Y-74280398D01*
X67558621Y-74280400D01*
X67527033Y-74398288D01*
X67505314Y-74479345D01*
X67486884Y-74690000D01*
X66033500Y-74690000D01*
X66033500Y-73259500D01*
X66053502Y-73191379D01*
X66107158Y-73144886D01*
X66159500Y-73133500D01*
X74465500Y-73133500D01*
X74533621Y-73153502D01*
X74580114Y-73207158D01*
X74591500Y-73259500D01*
X74591500Y-73846233D01*
X74590973Y-73857416D01*
X74589298Y-73864909D01*
X74589547Y-73872835D01*
X74589547Y-73872836D01*
X74591438Y-73932986D01*
X74591500Y-73936945D01*
X74591500Y-73964856D01*
X74591997Y-73968790D01*
X74591997Y-73968791D01*
X74592005Y-73968856D01*
X74592938Y-73980693D01*
X74594327Y-74024889D01*
X74597700Y-74036498D01*
X74599978Y-74044339D01*
X74603987Y-74063700D01*
X74606526Y-74083797D01*
X74609445Y-74091168D01*
X74609445Y-74091170D01*
X74622804Y-74124912D01*
X74626649Y-74136142D01*
X74638982Y-74178593D01*
X74643015Y-74185412D01*
X74643017Y-74185417D01*
X74649293Y-74196028D01*
X74657988Y-74213776D01*
X74665448Y-74232617D01*
X74670110Y-74239033D01*
X74670110Y-74239034D01*
X74691436Y-74268387D01*
X74697952Y-74278307D01*
X74720458Y-74316362D01*
X74734779Y-74330683D01*
X74747619Y-74345716D01*
X74759528Y-74362107D01*
X74793605Y-74390298D01*
X74802384Y-74398288D01*
X81756343Y-81352247D01*
X81763887Y-81360537D01*
X81768000Y-81367018D01*
X81773777Y-81372443D01*
X81817667Y-81413658D01*
X81820509Y-81416413D01*
X81840230Y-81436134D01*
X81843425Y-81438612D01*
X81852447Y-81446318D01*
X81884679Y-81476586D01*
X81891628Y-81480406D01*
X81902432Y-81486346D01*
X81918956Y-81497199D01*
X81934959Y-81509613D01*
X81975543Y-81527176D01*
X81986173Y-81532383D01*
X82024940Y-81553695D01*
X82032617Y-81555666D01*
X82032622Y-81555668D01*
X82044558Y-81558732D01*
X82063266Y-81565137D01*
X82081855Y-81573181D01*
X82089680Y-81574420D01*
X82089682Y-81574421D01*
X82125519Y-81580097D01*
X82137140Y-81582504D01*
X82172289Y-81591528D01*
X82179970Y-81593500D01*
X82200231Y-81593500D01*
X82219940Y-81595051D01*
X82239943Y-81598219D01*
X82247835Y-81597473D01*
X82253062Y-81596979D01*
X82283954Y-81594059D01*
X82295811Y-81593500D01*
X82722233Y-81593500D01*
X82790354Y-81613502D01*
X82825130Y-81646781D01*
X82842780Y-81671756D01*
X82842785Y-81671762D01*
X82846116Y-81676475D01*
X82990730Y-81817352D01*
X82995526Y-81820557D01*
X82995529Y-81820559D01*
X83107074Y-81895090D01*
X83158596Y-81929516D01*
X83163899Y-81931794D01*
X83163902Y-81931796D01*
X83338784Y-82006931D01*
X83344091Y-82009211D01*
X83439800Y-82030868D01*
X83535367Y-82052493D01*
X83535370Y-82052493D01*
X83541003Y-82053768D01*
X83546774Y-82053995D01*
X83546776Y-82053995D01*
X83608601Y-82056424D01*
X83742737Y-82061694D01*
X83842637Y-82047209D01*
X83936824Y-82033553D01*
X83936829Y-82033552D01*
X83942538Y-82032724D01*
X83948002Y-82030869D01*
X83948007Y-82030868D01*
X84090670Y-81982440D01*
X84133714Y-81967829D01*
X84309863Y-81869181D01*
X84421299Y-81776500D01*
X84460651Y-81743771D01*
X84465084Y-81740084D01*
X84517988Y-81676475D01*
X84590490Y-81589301D01*
X84590490Y-81589300D01*
X84594181Y-81584863D01*
X84607434Y-81561199D01*
X84639658Y-81503657D01*
X84692829Y-81408714D01*
X84721232Y-81325041D01*
X84755868Y-81223007D01*
X84755869Y-81223002D01*
X84757724Y-81217538D01*
X84758552Y-81211829D01*
X84758553Y-81211824D01*
X84778078Y-81077158D01*
X84786694Y-81017737D01*
X84788206Y-80960000D01*
X84769733Y-80758957D01*
X84714932Y-80564646D01*
X84625638Y-80383576D01*
X84504842Y-80221811D01*
X84486800Y-80205133D01*
X84360830Y-80088688D01*
X84360828Y-80088686D01*
X84356589Y-80084768D01*
X84351706Y-80081687D01*
X84190725Y-79980115D01*
X84190724Y-79980115D01*
X84185845Y-79977036D01*
X83998327Y-79902224D01*
X83992667Y-79901098D01*
X83992663Y-79901097D01*
X83805983Y-79863964D01*
X83805980Y-79863964D01*
X83800316Y-79862837D01*
X83794541Y-79862761D01*
X83794537Y-79862761D01*
X83694014Y-79861446D01*
X83598443Y-79860195D01*
X83592746Y-79861174D01*
X83592745Y-79861174D01*
X83416887Y-79891392D01*
X83399469Y-79894385D01*
X83210058Y-79964262D01*
X83205097Y-79967214D01*
X83205096Y-79967214D01*
X83070823Y-80047099D01*
X83036552Y-80067488D01*
X82884763Y-80200603D01*
X82881192Y-80205133D01*
X82881191Y-80205134D01*
X82823349Y-80278506D01*
X82765468Y-80319619D01*
X82724399Y-80326500D01*
X82574595Y-80326500D01*
X82506474Y-80306498D01*
X82485500Y-80289595D01*
X75895405Y-73699500D01*
X75861379Y-73637188D01*
X75858500Y-73610405D01*
X75858500Y-72571793D01*
X75860732Y-72548184D01*
X75860790Y-72547881D01*
X75860790Y-72547877D01*
X75862275Y-72540094D01*
X75858749Y-72484049D01*
X75858500Y-72476138D01*
X75858500Y-72460144D01*
X75856494Y-72444270D01*
X75855751Y-72436402D01*
X75854718Y-72419970D01*
X75852225Y-72380350D01*
X75849679Y-72372513D01*
X75844506Y-72349369D01*
X75844468Y-72349065D01*
X75844467Y-72349060D01*
X75843474Y-72341203D01*
X75840558Y-72333838D01*
X75840557Y-72333834D01*
X75822801Y-72288989D01*
X75820129Y-72281570D01*
X75802764Y-72228125D01*
X75798514Y-72221428D01*
X75798350Y-72221169D01*
X75787585Y-72200042D01*
X75787471Y-72199754D01*
X75787468Y-72199749D01*
X75784552Y-72192383D01*
X75779896Y-72185975D01*
X75779893Y-72185969D01*
X75751542Y-72146948D01*
X75747092Y-72140401D01*
X75717000Y-72092982D01*
X75710993Y-72087341D01*
X75695312Y-72069554D01*
X75695134Y-72069309D01*
X75695132Y-72069307D01*
X75690472Y-72062893D01*
X75684362Y-72057838D01*
X75647204Y-72027097D01*
X75641270Y-72021866D01*
X75606102Y-71988842D01*
X75606099Y-71988840D01*
X75600321Y-71983414D01*
X75593097Y-71979442D01*
X75573494Y-71966119D01*
X75573254Y-71965920D01*
X75573247Y-71965916D01*
X75567144Y-71960867D01*
X75516324Y-71936953D01*
X75509292Y-71933371D01*
X75460060Y-71906305D01*
X75452385Y-71904335D01*
X75452379Y-71904332D01*
X75452081Y-71904256D01*
X75429772Y-71896224D01*
X75429497Y-71896094D01*
X75429489Y-71896091D01*
X75422318Y-71892717D01*
X75367151Y-71882194D01*
X75359442Y-71880471D01*
X75325449Y-71871743D01*
X75312707Y-71868471D01*
X75312706Y-71868471D01*
X75305030Y-71866500D01*
X75296793Y-71866500D01*
X75273184Y-71864268D01*
X75272881Y-71864210D01*
X75272877Y-71864210D01*
X75265094Y-71862725D01*
X75209049Y-71866251D01*
X75201138Y-71866500D01*
X65471793Y-71866500D01*
X65448184Y-71864268D01*
X65447881Y-71864210D01*
X65447877Y-71864210D01*
X65440094Y-71862725D01*
X65384049Y-71866251D01*
X65376138Y-71866500D01*
X65360144Y-71866500D01*
X65344270Y-71868506D01*
X65336410Y-71869248D01*
X65308951Y-71870976D01*
X65288263Y-71872277D01*
X65288262Y-71872277D01*
X65280350Y-71872775D01*
X65272809Y-71875225D01*
X65272513Y-71875321D01*
X65249369Y-71880494D01*
X65249065Y-71880532D01*
X65249060Y-71880533D01*
X65241203Y-71881526D01*
X65233838Y-71884442D01*
X65233834Y-71884443D01*
X65188989Y-71902199D01*
X65181570Y-71904871D01*
X65128125Y-71922236D01*
X65121429Y-71926486D01*
X65121428Y-71926486D01*
X65121169Y-71926650D01*
X65100042Y-71937415D01*
X65099754Y-71937529D01*
X65099749Y-71937532D01*
X65092383Y-71940448D01*
X65085975Y-71945104D01*
X65085969Y-71945107D01*
X65046948Y-71973458D01*
X65040411Y-71977901D01*
X64992982Y-72008000D01*
X64987556Y-72013778D01*
X64987555Y-72013779D01*
X64987341Y-72014007D01*
X64969554Y-72029688D01*
X64969309Y-72029866D01*
X64969307Y-72029868D01*
X64962893Y-72034528D01*
X64957839Y-72040637D01*
X64957838Y-72040638D01*
X64927097Y-72077796D01*
X64921866Y-72083730D01*
X64888842Y-72118898D01*
X64888840Y-72118901D01*
X64883414Y-72124679D01*
X64879445Y-72131899D01*
X64866119Y-72151506D01*
X64865920Y-72151746D01*
X64865916Y-72151753D01*
X64860867Y-72157856D01*
X64857493Y-72165027D01*
X64836953Y-72208676D01*
X64833371Y-72215708D01*
X64806305Y-72264940D01*
X64804335Y-72272615D01*
X64804332Y-72272621D01*
X64804256Y-72272919D01*
X64796224Y-72295228D01*
X64796094Y-72295503D01*
X64796091Y-72295511D01*
X64792717Y-72302682D01*
X64786775Y-72333834D01*
X64782195Y-72357843D01*
X64780471Y-72365558D01*
X64766500Y-72419970D01*
X64766500Y-72428207D01*
X64764268Y-72451816D01*
X64762725Y-72459906D01*
X64766251Y-72515951D01*
X64766500Y-72523862D01*
X64766500Y-80685405D01*
X64746498Y-80753526D01*
X64729595Y-80774500D01*
X63664500Y-81839595D01*
X63602188Y-81873621D01*
X63575405Y-81876500D01*
X62797315Y-81876500D01*
X62729194Y-81856498D01*
X62694102Y-81822770D01*
X62687489Y-81813325D01*
X62629301Y-81730224D01*
X62479776Y-81580699D01*
X62306558Y-81459411D01*
X62301580Y-81457090D01*
X62301577Y-81457088D01*
X62119892Y-81372367D01*
X62119891Y-81372366D01*
X62114910Y-81370044D01*
X62109602Y-81368622D01*
X62109600Y-81368621D01*
X61915970Y-81316738D01*
X61915968Y-81316738D01*
X61910655Y-81315314D01*
X61700000Y-81296884D01*
X61694525Y-81297363D01*
X61494816Y-81314835D01*
X61494812Y-81314836D01*
X61489345Y-81315314D01*
X61484039Y-81316736D01*
X61479439Y-81317547D01*
X61408879Y-81309679D01*
X61368462Y-81282557D01*
X59973652Y-79887747D01*
X59966112Y-79879461D01*
X59962000Y-79872982D01*
X59912348Y-79826356D01*
X59909507Y-79823602D01*
X59889770Y-79803865D01*
X59886573Y-79801385D01*
X59877551Y-79793680D01*
X59845321Y-79763414D01*
X59838375Y-79759595D01*
X59838372Y-79759593D01*
X59827566Y-79753652D01*
X59811047Y-79742801D01*
X59805466Y-79738472D01*
X59795041Y-79730386D01*
X59787772Y-79727241D01*
X59787768Y-79727238D01*
X59754463Y-79712826D01*
X59743813Y-79707609D01*
X59705060Y-79686305D01*
X59685437Y-79681267D01*
X59666734Y-79674863D01*
X59655420Y-79669967D01*
X59655419Y-79669967D01*
X59648145Y-79666819D01*
X59640322Y-79665580D01*
X59640312Y-79665577D01*
X59604476Y-79659901D01*
X59592856Y-79657495D01*
X59557711Y-79648472D01*
X59557710Y-79648472D01*
X59550030Y-79646500D01*
X59529776Y-79646500D01*
X59510065Y-79644949D01*
X59497886Y-79643020D01*
X59490057Y-79641780D01*
X59482165Y-79642526D01*
X59446039Y-79645941D01*
X59434181Y-79646500D01*
X54787904Y-79646500D01*
X54719783Y-79626498D01*
X54674178Y-79574744D01*
X54646827Y-79517401D01*
X54646824Y-79517396D01*
X54644411Y-79512337D01*
X54518526Y-79337149D01*
X54419287Y-79240980D01*
X54367636Y-79190926D01*
X54367633Y-79190924D01*
X54363608Y-79187023D01*
X54184553Y-79066703D01*
X54171883Y-79061141D01*
X54036490Y-79001708D01*
X53987020Y-78979992D01*
X53777255Y-78929632D01*
X53694212Y-78924844D01*
X53567494Y-78917537D01*
X53567491Y-78917537D01*
X53561887Y-78917214D01*
X53556309Y-78917889D01*
X53353292Y-78942456D01*
X53353291Y-78942456D01*
X53347723Y-78943130D01*
X53342369Y-78944777D01*
X53342365Y-78944778D01*
X53184834Y-78993242D01*
X53141534Y-79006563D01*
X53136553Y-79009134D01*
X52964228Y-79098077D01*
X52949836Y-79105505D01*
X52915620Y-79131760D01*
X52783140Y-79233415D01*
X52783136Y-79233419D01*
X52778689Y-79236831D01*
X52774914Y-79240980D01*
X52639757Y-79389516D01*
X52633503Y-79396389D01*
X52630522Y-79401141D01*
X52560671Y-79512493D01*
X52518866Y-79579135D01*
X52438403Y-79779293D01*
X52394656Y-79990537D01*
X52391500Y-80045275D01*
X52391500Y-80484735D01*
X43408500Y-80484735D01*
X43408500Y-75847846D01*
X52392000Y-75847846D01*
X52392337Y-75854362D01*
X52402244Y-75949841D01*
X52405137Y-75963238D01*
X52456517Y-76117243D01*
X52462691Y-76130422D01*
X52547893Y-76268107D01*
X52556929Y-76279508D01*
X52671528Y-76393907D01*
X52682939Y-76402919D01*
X52820785Y-76487888D01*
X52833963Y-76494032D01*
X52988077Y-76545150D01*
X53001443Y-76548016D01*
X53095690Y-76557672D01*
X53102105Y-76558000D01*
X53327885Y-76558000D01*
X53343124Y-76553525D01*
X53344329Y-76552135D01*
X53346000Y-76544452D01*
X53346000Y-76539885D01*
X53854000Y-76539885D01*
X53858475Y-76555124D01*
X53859865Y-76556329D01*
X53867548Y-76558000D01*
X54097846Y-76558000D01*
X54104362Y-76557663D01*
X54199841Y-76547756D01*
X54213238Y-76544863D01*
X54367243Y-76493483D01*
X54380422Y-76487309D01*
X54518107Y-76402107D01*
X54529508Y-76393071D01*
X54643907Y-76278472D01*
X54652919Y-76267061D01*
X54737888Y-76129215D01*
X54744032Y-76116037D01*
X54795150Y-75961923D01*
X54798016Y-75948557D01*
X54807672Y-75854310D01*
X54808000Y-75847895D01*
X54808000Y-75472115D01*
X54803525Y-75456876D01*
X54802135Y-75455671D01*
X54794452Y-75454000D01*
X53872115Y-75454000D01*
X53856876Y-75458475D01*
X53855671Y-75459865D01*
X53854000Y-75467548D01*
X53854000Y-76539885D01*
X53346000Y-76539885D01*
X53346000Y-75472115D01*
X53341525Y-75456876D01*
X53340135Y-75455671D01*
X53332452Y-75454000D01*
X52410115Y-75454000D01*
X52394876Y-75458475D01*
X52393671Y-75459865D01*
X52392000Y-75467548D01*
X52392000Y-75847846D01*
X43408500Y-75847846D01*
X43408500Y-74927885D01*
X52392000Y-74927885D01*
X52396475Y-74943124D01*
X52397865Y-74944329D01*
X52405548Y-74946000D01*
X53327885Y-74946000D01*
X53343124Y-74941525D01*
X53344329Y-74940135D01*
X53346000Y-74932452D01*
X53346000Y-74927885D01*
X53854000Y-74927885D01*
X53858475Y-74943124D01*
X53859865Y-74944329D01*
X53867548Y-74946000D01*
X54789885Y-74946000D01*
X54805124Y-74941525D01*
X54806329Y-74940135D01*
X54808000Y-74932452D01*
X54808000Y-74890000D01*
X60486884Y-74890000D01*
X60505314Y-75100655D01*
X60506738Y-75105968D01*
X60506738Y-75105970D01*
X60554585Y-75284535D01*
X60560044Y-75304910D01*
X60562366Y-75309891D01*
X60562367Y-75309892D01*
X60645065Y-75487237D01*
X60649411Y-75496558D01*
X60770699Y-75669776D01*
X60920224Y-75819301D01*
X61093442Y-75940589D01*
X61098420Y-75942910D01*
X61098423Y-75942912D01*
X61184954Y-75983262D01*
X61285090Y-76029956D01*
X61290398Y-76031378D01*
X61290400Y-76031379D01*
X61484030Y-76083262D01*
X61484032Y-76083262D01*
X61489345Y-76084686D01*
X61700000Y-76103116D01*
X61910655Y-76084686D01*
X61915968Y-76083262D01*
X61915970Y-76083262D01*
X62109600Y-76031379D01*
X62109602Y-76031378D01*
X62114910Y-76029956D01*
X62215046Y-75983262D01*
X62301577Y-75942912D01*
X62301580Y-75942910D01*
X62306558Y-75940589D01*
X62479776Y-75819301D01*
X62629301Y-75669776D01*
X62750589Y-75496558D01*
X62754936Y-75487237D01*
X62837633Y-75309892D01*
X62837634Y-75309891D01*
X62839956Y-75304910D01*
X62845416Y-75284535D01*
X62893262Y-75105970D01*
X62893262Y-75105968D01*
X62894686Y-75100655D01*
X62913116Y-74890000D01*
X62894686Y-74679345D01*
X62871403Y-74592452D01*
X62841379Y-74480400D01*
X62841378Y-74480398D01*
X62839956Y-74475090D01*
X62828929Y-74451443D01*
X62752912Y-74288423D01*
X62752910Y-74288420D01*
X62750589Y-74283442D01*
X62629301Y-74110224D01*
X62479776Y-73960699D01*
X62387230Y-73895898D01*
X62342901Y-73840441D01*
X62333500Y-73792685D01*
X62333500Y-73302524D01*
X62353502Y-73234403D01*
X62365858Y-73218221D01*
X62439040Y-73136944D01*
X62534527Y-72971556D01*
X62593542Y-72789928D01*
X62603393Y-72696206D01*
X62612814Y-72606565D01*
X62613504Y-72600000D01*
X62597961Y-72452119D01*
X62594232Y-72416635D01*
X62594232Y-72416633D01*
X62593542Y-72410072D01*
X62534527Y-72228444D01*
X62439040Y-72063056D01*
X62408996Y-72029688D01*
X62315675Y-71926045D01*
X62315674Y-71926044D01*
X62311253Y-71921134D01*
X62180375Y-71826045D01*
X62162094Y-71812763D01*
X62162093Y-71812762D01*
X62156752Y-71808882D01*
X62150724Y-71806198D01*
X62150722Y-71806197D01*
X61988319Y-71733891D01*
X61988318Y-71733891D01*
X61982288Y-71731206D01*
X61888888Y-71711353D01*
X61801944Y-71692872D01*
X61801939Y-71692872D01*
X61795487Y-71691500D01*
X61604513Y-71691500D01*
X61598061Y-71692872D01*
X61598056Y-71692872D01*
X61511112Y-71711353D01*
X61417712Y-71731206D01*
X61411682Y-71733891D01*
X61411681Y-71733891D01*
X61249278Y-71806197D01*
X61249276Y-71806198D01*
X61243248Y-71808882D01*
X61237907Y-71812762D01*
X61237906Y-71812763D01*
X61219625Y-71826045D01*
X61088747Y-71921134D01*
X61084326Y-71926044D01*
X61084325Y-71926045D01*
X60991005Y-72029688D01*
X60960960Y-72063056D01*
X60865473Y-72228444D01*
X60806458Y-72410072D01*
X60805768Y-72416633D01*
X60805768Y-72416635D01*
X60802039Y-72452119D01*
X60786496Y-72600000D01*
X60787186Y-72606565D01*
X60796608Y-72696206D01*
X60806458Y-72789928D01*
X60865473Y-72971556D01*
X60960960Y-73136944D01*
X61034137Y-73218215D01*
X61064853Y-73282221D01*
X61066500Y-73302524D01*
X61066500Y-73792685D01*
X61046498Y-73860806D01*
X61012770Y-73895898D01*
X60920224Y-73960699D01*
X60770699Y-74110224D01*
X60649411Y-74283442D01*
X60647090Y-74288420D01*
X60647088Y-74288423D01*
X60571071Y-74451443D01*
X60560044Y-74475090D01*
X60558622Y-74480398D01*
X60558621Y-74480400D01*
X60528597Y-74592452D01*
X60505314Y-74679345D01*
X60486884Y-74890000D01*
X54808000Y-74890000D01*
X54808000Y-74552154D01*
X54807663Y-74545638D01*
X54797756Y-74450159D01*
X54794863Y-74436762D01*
X54743483Y-74282757D01*
X54737309Y-74269578D01*
X54652107Y-74131893D01*
X54643071Y-74120492D01*
X54528472Y-74006093D01*
X54517061Y-73997081D01*
X54379215Y-73912112D01*
X54366037Y-73905968D01*
X54211923Y-73854850D01*
X54198557Y-73851984D01*
X54104310Y-73842328D01*
X54097895Y-73842000D01*
X53872115Y-73842000D01*
X53856876Y-73846475D01*
X53855671Y-73847865D01*
X53854000Y-73855548D01*
X53854000Y-74927885D01*
X53346000Y-74927885D01*
X53346000Y-73860115D01*
X53341525Y-73844876D01*
X53340135Y-73843671D01*
X53332452Y-73842000D01*
X53102154Y-73842000D01*
X53095638Y-73842337D01*
X53000159Y-73852244D01*
X52986762Y-73855137D01*
X52832757Y-73906517D01*
X52819578Y-73912691D01*
X52681893Y-73997893D01*
X52670492Y-74006929D01*
X52556093Y-74121528D01*
X52547081Y-74132939D01*
X52462112Y-74270785D01*
X52455968Y-74283963D01*
X52404850Y-74438077D01*
X52401984Y-74451443D01*
X52392328Y-74545690D01*
X52392000Y-74552105D01*
X52392000Y-74927885D01*
X43408500Y-74927885D01*
X43408500Y-47334500D01*
X43428502Y-47266379D01*
X43482158Y-47219886D01*
X43534500Y-47208500D01*
X129265500Y-47208500D01*
X129333621Y-47228502D01*
G37*
%TD.AperFunction*%
%TD*%
M02*
