%TF.GenerationSoftware,KiCad,Pcbnew,6.0.6-3a73a75311~116~ubuntu20.04.1*%
%TF.CreationDate,2022-08-01T12:42:22+05:30*%
%TF.ProjectId,LSA,4c53412e-6b69-4636-9164-5f7063625858,rev?*%
%TF.SameCoordinates,Original*%
%TF.FileFunction,Soldermask,Bot*%
%TF.FilePolarity,Negative*%
%FSLAX46Y46*%
G04 Gerber Fmt 4.6, Leading zero omitted, Abs format (unit mm)*
G04 Created by KiCad (PCBNEW 6.0.6-3a73a75311~116~ubuntu20.04.1) date 2022-08-01 12:42:22*
%MOMM*%
%LPD*%
G01*
G04 APERTURE LIST*
G04 Aperture macros list*
%AMRoundRect*
0 Rectangle with rounded corners*
0 $1 Rounding radius*
0 $2 $3 $4 $5 $6 $7 $8 $9 X,Y pos of 4 corners*
0 Add a 4 corners polygon primitive as box body*
4,1,4,$2,$3,$4,$5,$6,$7,$8,$9,$2,$3,0*
0 Add four circle primitives for the rounded corners*
1,1,$1+$1,$2,$3*
1,1,$1+$1,$4,$5*
1,1,$1+$1,$6,$7*
1,1,$1+$1,$8,$9*
0 Add four rect primitives between the rounded corners*
20,1,$1+$1,$2,$3,$4,$5,0*
20,1,$1+$1,$4,$5,$6,$7,0*
20,1,$1+$1,$6,$7,$8,$9,0*
20,1,$1+$1,$8,$9,$2,$3,0*%
G04 Aperture macros list end*
%ADD10R,1.800000X1.800000*%
%ADD11C,1.800000*%
%ADD12RoundRect,0.250000X-0.600000X0.600000X-0.600000X-0.600000X0.600000X-0.600000X0.600000X0.600000X0*%
%ADD13C,1.700000*%
%ADD14C,1.400000*%
%ADD15O,1.400000X1.400000*%
%ADD16RoundRect,0.249200X-0.450800X0.600800X-0.450800X-0.600800X0.450800X-0.600800X0.450800X0.600800X0*%
%ADD17O,1.400000X1.700000*%
%ADD18R,1.180000X1.180000*%
%ADD19C,1.180000*%
G04 APERTURE END LIST*
D10*
%TO.C,D4*%
X118125000Y-88000000D03*
D11*
X120665000Y-88000000D03*
%TD*%
D12*
%TO.C,J1*%
X93500000Y-62000000D03*
D13*
X93500000Y-64540000D03*
X90960000Y-62000000D03*
X90960000Y-64540000D03*
X88420000Y-62000000D03*
X88420000Y-64540000D03*
X85880000Y-62000000D03*
X85880000Y-64540000D03*
X83340000Y-62000000D03*
X83340000Y-64540000D03*
%TD*%
D14*
%TO.C,R4*%
X111800000Y-94210000D03*
D15*
X111800000Y-86590000D03*
%TD*%
D14*
%TO.C,R6*%
X68700000Y-82310000D03*
D15*
X68700000Y-74690000D03*
%TD*%
D14*
%TO.C,R8*%
X111700000Y-82410000D03*
D15*
X111700000Y-74790000D03*
%TD*%
D10*
%TO.C,D1*%
X52325000Y-86700000D03*
D11*
X54865000Y-86700000D03*
%TD*%
%TO.C,D3*%
X99565000Y-91400000D03*
D10*
X97025000Y-91400000D03*
%TD*%
D14*
%TO.C,R3*%
X105900000Y-94410000D03*
D15*
X105900000Y-86790000D03*
%TD*%
D16*
%TO.C,P3*%
X98700000Y-81700000D03*
D17*
X98700000Y-86780000D03*
%TD*%
D10*
%TO.C,D2*%
X75425000Y-92500000D03*
D11*
X77965000Y-92500000D03*
%TD*%
D14*
%TO.C,R5*%
X61700000Y-82510000D03*
D15*
X61700000Y-74890000D03*
%TD*%
D16*
%TO.C,P4*%
X119700000Y-74860000D03*
D17*
X119700000Y-79940000D03*
%TD*%
D18*
%TO.C,U1*%
X83685000Y-75880000D03*
D19*
X83685000Y-78420000D03*
X83685000Y-80960000D03*
X83685000Y-83500000D03*
X83685000Y-86040000D03*
X83685000Y-88580000D03*
X83685000Y-91120000D03*
X91940000Y-91120000D03*
X91940000Y-88580000D03*
X91940000Y-86040000D03*
X91940000Y-83500000D03*
X91940000Y-80960000D03*
X91940000Y-78420000D03*
X91940000Y-75880000D03*
%TD*%
D16*
%TO.C,P1*%
X53600000Y-75200000D03*
D17*
X53600000Y-80280000D03*
%TD*%
D14*
%TO.C,R2*%
X68800000Y-93410000D03*
D15*
X68800000Y-85790000D03*
%TD*%
D16*
%TO.C,P2*%
X76700000Y-79860000D03*
D17*
X76700000Y-84940000D03*
%TD*%
D14*
%TO.C,R7*%
X105800000Y-82310000D03*
D15*
X105800000Y-74690000D03*
%TD*%
D14*
%TO.C,R1*%
X61800000Y-93310000D03*
D15*
X61800000Y-85690000D03*
%TD*%
M02*
