M48
; DRILL file {KiCad 6.0.6-3a73a75311~116~ubuntu20.04.1} date Mon 01 Aug 2022 12:42:28 PM IST
; FORMAT={-:-/ absolute / inch / decimal}
; #@! TF.CreationDate,2022-08-01T12:42:28+05:30
; #@! TF.GenerationSoftware,Kicad,Pcbnew,6.0.6-3a73a75311~116~ubuntu20.04.1
; #@! TF.FileFunction,MixedPlating,1,2
FMAT,2
INCH
; #@! TA.AperFunction,Plated,PTH,ViaDrill
T1C0.0157
; #@! TA.AperFunction,Plated,PTH,ComponentDrill
T2C0.0276
; #@! TA.AperFunction,Plated,PTH,ComponentDrill
T3C0.0327
; #@! TA.AperFunction,Plated,PTH,ComponentDrill
T4C0.0354
; #@! TA.AperFunction,Plated,PTH,ComponentDrill
T5C0.0394
%
G90
G05
T1
X1.937Y-3.3346
X2.1102Y-2.8583
X2.3228Y-3.6772
X2.4291Y-2.8583
X2.6299Y-3.6772
X2.8071Y-2.9409
X2.8386Y-3.7402
X3.0197Y-2.6969
X3.2323Y-3.2717
X3.6929Y-3.2874
X3.7323Y-3.689
X4.0748Y-3.6969
X4.1614Y-2.8543
X4.3031Y-3.7087
X4.3976Y-2.8583
X4.6535Y-3.6693
X4.7126Y-2.7953
X4.9134Y-3.1417
T2
X2.1102Y-2.9606
X2.1102Y-3.1606
X2.4291Y-2.9484
X2.4291Y-3.2484
X2.4331Y-3.3736
X2.4331Y-3.6736
X2.7047Y-2.9406
X2.7047Y-3.2406
X2.7087Y-3.3776
X2.7087Y-3.6776
X3.0197Y-3.1441
X3.0197Y-3.3441
X3.8858Y-3.2165
X3.8858Y-3.4165
X4.1654Y-2.9406
X4.1654Y-3.2406
X4.1693Y-3.4169
X4.1693Y-3.7169
X4.3976Y-2.9445
X4.3976Y-3.2445
X4.4016Y-3.4091
X4.4016Y-3.7091
X4.7126Y-2.9472
X4.7126Y-3.1472
T3
X3.2947Y-2.9874
X3.2947Y-3.0874
X3.2947Y-3.1874
X3.2947Y-3.2874
X3.2947Y-3.3874
X3.2947Y-3.4874
X3.2947Y-3.5874
X3.6197Y-2.9874
X3.6197Y-3.0874
X3.6197Y-3.1874
X3.6197Y-3.2874
X3.6197Y-3.3874
X3.6197Y-3.4874
X3.6197Y-3.5874
T4
X2.06Y-3.4134
X2.16Y-3.4134
X2.9695Y-3.6417
X3.0695Y-3.6417
X3.8199Y-3.5984
X3.9199Y-3.5984
X4.6506Y-3.4646
X4.7506Y-3.4646
T5
X3.2811Y-2.4409
X3.2811Y-2.5409
X3.3811Y-2.4409
X3.3811Y-2.5409
X3.4811Y-2.4409
X3.4811Y-2.5409
X3.5811Y-2.4409
X3.5811Y-2.5409
X3.6811Y-2.4409
X3.6811Y-2.5409
T0
M30
